<?xml version="1.0" encoding="utf-8"?>
<!-- Generator: Adobe Illustrator 27.5.0, SVG Export Plug-In . SVG Version: 6.00 Build 0)  -->
<svg version="1.1" xmlns="http://www.w3.org/2000/svg" xmlns:xlink="http://www.w3.org/1999/xlink" x="0px" y="0px"
	 viewBox="0 0 500 500" style="enable-background:new 0 0 500 500;" xml:space="preserve">
<g id="Background_Simple">
	<g>
		<path style="fill:#C6FF00;" d="M320.639,80.393c-19.153,11.386-34.409,28.267-52.574,41.172
			c-23.134,16.436-50.44,26.034-77.972,32.911c-34.299,8.567-72.444,14.84-95.514,41.628C74.74,219.14,71.243,252.482,76.304,282.46
			c23.429,138.777,246.858,130.959,317.336,39.484c37.522-48.7,110.417-202.221,30.962-246.924
			c-3.546-1.995-7.326-3.596-11.177-4.898C384.007,60.172,347.261,64.567,320.639,80.393z"/>
		<path style="opacity:0.7;fill:#FFFFFF;" d="M320.639,80.393c-19.153,11.386-34.409,28.267-52.574,41.172
			c-23.134,16.436-50.44,26.034-77.972,32.911c-34.299,8.567-72.444,14.84-95.514,41.628C74.74,219.14,71.243,252.482,76.304,282.46
			c23.429,138.777,246.858,130.959,317.336,39.484c37.522-48.7,110.417-202.221,30.962-246.924
			c-3.546-1.995-7.326-3.596-11.177-4.898C384.007,60.172,347.261,64.567,320.639,80.393z"/>
	</g>
</g>
<g id="Plants">
	<g id="freepik--Plants--inject-2">
		<path style="fill:#C6FF00;" d="M418.648,339.481c0,0,2.405-2.925,2.535-3.128c1.481-2.375,2.949-7.806,0.933-10.235
			c-1.356-1.529-3.695-1.669-5.224-0.313c-0.104,0.092-0.202,0.19-0.295,0.293c-1.531,1.583-1.707,4.307-1.38,6.371
			C415.587,334.903,418.637,339.476,418.648,339.481z"/>
		<path style="fill:#C6FF00;" d="M442.452,328.225c-0.11-0.075-0.219-0.15-0.329-0.226c-2.709-1.578-7.833,0.807-9.921,2.676
			c-0.179,0.167-2.662,3.032-2.662,3.032l0.054,0.024c-0.805,0.37-1.655,0.784-2.616,1.241c-1.699,0.882-3.665,1.866-5.701,3.092
			c-2.224,1.298-4.353,2.731-6.401,4.278c-2.297,1.722-4.436,3.646-6.392,5.742l1.464-3.269c0.807-2.676,0.785-8.332-1.794-10.113
			c-1.715-1.12-4.001-0.645-5.121,1.07c-0.075,0.11-0.144,0.235-0.214,0.361c-1.063,1.936-0.501,4.613,0.352,6.521
			c0.965,2.153,4.795,5.538,5.105,5.807c-1.942,2.181-3.739,4.506-5.372,6.93c-0.957,1.41-1.881,2.861-2.783,4.321l0.657-1.466
			c0.807-2.676,0.796-8.327-1.783-10.108c-1.715-1.12-4.022-0.628-5.142,1.087l-0.193,0.344c-1.063,1.936-0.512,4.608,0.341,6.516
			c0.853,1.908,4.081,4.892,4.939,5.654l-1.035,1.701c-1.621,2.716-3.242,5.433-4.909,8.05c-0.595,0.92-1.201,1.809-1.808,2.698
			l0.564-1.26c0.812-2.687,0.79-8.343-1.789-10.124c-1.715-1.12-4.022-0.628-5.142,1.087c-0.064,0.115-0.129,0.229-0.193,0.344
			c-1.068,1.947-0.512,4.608,0.347,6.531c0.859,1.924,3.759,4.591,4.783,5.506c-0.649,0.896-1.298,1.792-1.971,2.625
			c-0.477,0.569-0.889,1.14-1.388,1.673c-0.499,0.533-0.977,1.075-1.45,1.606c-0.965,0.989-1.949,2.022-2.905,2.963
			c-0.659,0.657-1.315,1.276-1.959,1.9c0.595-0.92,1.727-2.721,1.8-2.884c0.974-2.263,1.364-4.735,1.106-7.185
			c0.112-0.25,0.213-0.504,0.281-0.774c0.604-1.959-0.502-4.032-2.461-4.636c-0.129-0.032-0.253-0.074-0.387-0.095
			c-3.1-0.502-7.023,3.569-8.296,6.063c-0.068,0.152-0.716,1.831-1.102,2.897c0.137-0.656,0.269-1.301,0.395-1.988
			c0.252-1.348,0.471-2.71,0.707-4.169c0.098-0.713,0.184-1.43,0.282-2.143c0.097-0.713,0.134-1.492,0.197-2.245
			c0.123-1.731,0.16-3.501,0.164-5.286c1.203,0.226,5.404,0.947,7.445,0.466c2.041-0.481,4.499-1.662,5.383-3.691
			c0.891-1.843,0.114-4.069-1.729-4.96c-0.12-0.053-0.239-0.107-0.363-0.15c-2.986-0.959-7.491,2.46-9.125,4.74
			c-0.068,0.152-1.096,1.895-1.625,2.871c-0.003-1.07-0.006-2.141-0.057-3.22c-0.123-3.132-0.337-6.292-0.552-9.452l-0.176-2.895
			c0.419,0.083,5.419,1.058,7.708,0.519c2.041-0.481,4.493-1.677,5.387-3.702c0.858-1.858,0.046-4.061-1.823-4.924
			c-0.245-0.123-0.52-0.207-0.794-0.264c-2.986-0.96-7.48,2.465-9.12,4.729c-0.088,0.195-1.541,2.713-1.875,3.372
			c-0.122-2.115-0.228-4.235-0.243-6.328c-0.046-2.837,0.11-5.661,0.444-8.472c0.174,0.078,5.395,1.113,7.746,0.522
			c2.041-0.481,4.499-1.662,5.382-3.691c0.88-1.849,0.099-4.063-1.745-4.954c-0.12-0.053-0.239-0.107-0.363-0.15
			c-2.986-0.96-7.48,2.465-9.109,4.734c-0.073,0.163-1.201,2.07-1.699,3.007l-0.152-0.068c0.397-2.808,1.047-5.568,1.939-8.259
			c0.485-1.491,1.022-2.893,1.572-4.238c0.95,0.295,5.314,1.585,7.481,1.317c2.167-0.268,4.649-1.151,5.755-3.068
			c1.081-1.745,0.547-4.045-1.198-5.126c-0.11-0.075-0.214-0.135-0.333-0.188c-2.867-1.284-7.707,1.633-9.585,3.7
			c-0.063,0.141-1.012,1.385-1.66,2.308l0.803-1.792c0.973-2.172,1.999-4.085,2.924-5.77c0.534-0.96,1.025-1.823,1.508-2.61
			c1.083-0.206,5.441-1.057,7.2-2.277c1.759-1.22,3.594-3.163,3.708-5.367c0.169-2.037-1.34-3.821-3.372-4
			c-0.15-0.015-0.283-0.009-0.426-0.009c-3.13,0.176-6.138,4.97-6.804,7.71c-0.097,0.217-0.592,3.972-0.495,4.016
			c-0.484,0.761-0.982,1.581-1.503,2.482c-0.957,1.671-2.032,3.575-3.059,5.723c-0.382,0.794-0.752,1.593-1.112,2.396
			c-0.675,1.536-1.301,3.107-1.856,4.697c-0.977,2.705-1.7,5.484-2.176,8.322l-0.044,0.098c-0.124-0.916-0.583-3.443-0.644-3.626
			c-0.807-2.682-3.937-7.396-7.088-7.464c-2.055,0.018-3.694,1.697-3.675,3.752c-0.005,0.128,0,0.261,0.022,0.388
			c0.277,2.119,2.187,4.083,3.955,5.201c2.031,1.288,7.056,1.974,7.459,2.037c-0.409,2.894-0.632,5.806-0.651,8.731
			c-0.023,1.711,0.007,3.419,0.054,5.148c-0.129-0.788-0.271-1.491-0.296-1.58c-0.807-2.682-3.942-7.385-7.093-7.453
			c-2.055,0.018-3.704,1.692-3.681,3.736c0.001,0.144,0.007,0.277,0.023,0.414c0.185,2.208,2.076,4.098,3.883,5.246
			c1.807,1.148,6.102,1.834,7.263,1.949c0.028,0.665,0.046,1.324,0.079,1.978c0.135,3.164,0.296,6.326,0.343,9.424
			c0.026,1.107,0.002,2.178-0.01,3.255c-0.131-0.697-0.236-1.279-0.241-1.412c-0.807-2.682-3.942-7.385-7.093-7.453
			c-2.046-0.003-3.701,1.654-3.693,3.705c0.002,0.17,0.004,0.341,0.032,0.51c0.185,2.208,2.071,4.109,3.883,5.246
			c1.812,1.137,5.722,1.78,7.035,1.964c-0.049,1.099-0.103,2.21-0.169,3.288c-0.081,0.733-0.109,1.438-0.238,2.162
			c-0.129,0.725-0.211,1.431-0.319,2.139c-0.256,1.358-0.506,2.759-0.791,4.066c-0.19,0.919-0.387,1.796-0.579,2.661
			c-0.009-1.086-0.062-3.209-0.086-3.389c-0.396-2.785-2.786-7.898-5.872-8.432c-2.03-0.27-3.897,1.162-4.168,3.192
			c-0.016,0.123-0.027,0.236-0.033,0.364c-0.151,2.201,1.476,4.39,3.048,5.772c1.737,1.508,6.437,2.948,7.016,3.142
			c-0.333,1.442-0.667,2.857-0.999,4.181c-1.153,4.582-2.292,8.348-3.117,10.978c-0.098,0.334-0.201,0.653-0.301,0.934l1.886,0.884
			c0.139-0.368,0.222-0.787,0.362-1.246c0.781-2.675,1.837-6.518,2.902-11.165c0.347-1.474,0.674-3.049,1.01-4.672
			c1.579,0.055,3.155,0.031,4.732-0.084c0.756,2.242,3.671,5.777,4.053,6.235c-1.07,1.02-2.125,2.008-3.135,2.924
			c-3.491,3.195-6.478,5.73-8.658,7.453c-0.335,0.254-0.639,0.496-0.912,0.726l2.196,1.036c0.041-0.034,0.082-0.067,0.124-0.101
			c2.112-1.805,5.133-4.416,8.589-7.706c1.09-1.037,2.268-2.153,3.416-3.347c0.489,0.363,4.489,3.223,6.746,3.686
			c2.058,0.413,4.777,0.367,6.441-1.105c1.574-1.303,1.805-3.651,0.491-5.23c-0.074-0.098-0.173-0.195-0.263-0.287
			c-2.306-2.128-7.826-0.897-10.265,0.474c-0.145,0.091-1.608,1.144-2.522,1.817c0.475-0.478,0.921-0.891,1.425-1.435
			c0.965-0.989,1.891-2.009,2.899-3.096c0.462-0.536,0.939-1.079,1.411-1.637c0.472-0.558,0.925-1.163,1.396-1.748
			c1.065-1.388,2.079-2.837,3.06-4.328c0.866,0.831,3.98,3.777,5.954,4.492c1.975,0.715,4.714,1.12,6.559-0.087
			c1.767-1.034,2.363-3.296,1.329-5.063c-0.069-0.109-0.137-0.218-0.217-0.332c-1.953-2.452-7.589-2.095-10.209-1.078
			c-0.168,0.055-1.961,0.973-2.94,1.499c0.585-0.898,1.165-1.786,1.727-2.721c1.628-2.674,3.193-5.441,4.749-8.187
			c0.486-0.852,0.973-1.677,1.464-2.513c0.295,0.302,3.925,3.87,6.144,4.681c1.959,0.721,4.719,1.109,6.559-0.087
			c1.772-1.045,2.362-3.323,1.317-5.095c-0.058-0.104-0.126-0.213-0.2-0.311c-1.968-2.446-7.589-2.095-10.22-1.083
			c-0.204,0.078-2.765,1.369-3.408,1.786c1.072-1.841,2.15-3.666,3.301-5.419c1.528-2.393,3.22-4.686,5.045-6.867
			c0.145,0.143,3.916,3.892,6.177,4.723c1.964,0.71,4.664,1.085,6.563-0.098c1.761-1.05,2.329-3.338,1.275-5.088
			c-0.064-0.12-0.132-0.229-0.216-0.332c-1.953-2.452-7.589-2.095-10.22-1.083c-0.173,0.066-2.138,1.076-3.07,1.585l-0.107-0.139
			c1.891-2.126,3.965-4.078,6.213-5.836c1.221-0.979,2.446-1.851,3.652-2.68c0.63,0.777,3.553,4.264,5.485,5.221
			c1.932,0.956,4.505,1.587,6.497,0.602c1.866-0.846,2.678-3.038,1.842-4.899c-0.064-0.12-0.127-0.24-0.191-0.359
			c-1.679-2.656-7.32-2.9-10.033-2.199c-0.147,0.038-1.572,0.6-2.663,0.998c0.554-0.365,1.114-0.74,1.654-1.072
			c2.002-1.268,3.918-2.313,5.611-3.211c0.985-0.511,1.872-0.948,2.721-1.389c1.01,0.452,5.113,2.121,7.258,2.077
			c2.145-0.043,4.744-0.665,6.073-2.496C444.347,331.825,444.062,329.493,442.452,328.225z"/>
		<path style="fill:#C6FF00;" d="M368.325,315.625c1.654,1.81,6.73,3.953,6.73,3.953s0.373-3.744,0.388-4.011
			c-0.05-2.8-1.844-8.167-4.849-9.056c-1.989-0.524-4.026,0.665-4.55,2.654c-0.032,0.122-0.058,0.246-0.078,0.372
			C365.565,311.715,366.922,314.07,368.325,315.625z"/>
		<path style="opacity:0.5;fill:#C6FF00;enable-background:new    ;" d="M442.452,328.225c-0.11-0.075-0.219-0.15-0.329-0.226
			c-2.709-1.578-7.833,0.807-9.921,2.676c-0.179,0.167-2.662,3.032-2.662,3.032l0.054,0.024c-0.805,0.37-1.655,0.784-2.616,1.241
			c-1.699,0.882-3.665,1.866-5.701,3.092c-2.224,1.298-4.353,2.731-6.401,4.278c-2.297,1.722-4.436,3.646-6.392,5.742l1.464-3.269
			c0.807-2.676,0.785-8.332-1.794-10.113c-1.715-1.12-4.001-0.645-5.121,1.07c-0.075,0.11-0.144,0.235-0.214,0.361
			c-1.063,1.936-0.501,4.613,0.352,6.521c0.965,2.153,4.795,5.538,5.105,5.807c-1.942,2.181-3.739,4.506-5.372,6.93
			c-0.957,1.41-1.881,2.861-2.783,4.321l0.657-1.466c0.807-2.676,0.796-8.327-1.783-10.108c-1.715-1.12-4.022-0.628-5.142,1.087
			l-0.193,0.344c-1.063,1.936-0.512,4.608,0.341,6.516c0.853,1.908,4.081,4.892,4.939,5.654l-1.035,1.701
			c-1.621,2.716-3.242,5.433-4.909,8.05c-0.595,0.92-1.201,1.809-1.808,2.698l0.564-1.26c0.812-2.687,0.79-8.343-1.789-10.124
			c-1.715-1.12-4.022-0.628-5.142,1.087c-0.064,0.115-0.129,0.229-0.193,0.344c-1.068,1.947-0.512,4.608,0.347,6.531
			c0.859,1.924,3.759,4.591,4.783,5.506c-0.649,0.896-1.298,1.792-1.971,2.625c-0.477,0.569-0.889,1.14-1.388,1.673
			c-0.499,0.533-0.977,1.075-1.45,1.606c-0.965,0.989-1.949,2.022-2.905,2.963c-0.659,0.657-1.315,1.276-1.959,1.9
			c0.595-0.92,1.727-2.721,1.8-2.884c0.974-2.263,1.364-4.735,1.106-7.185c0.112-0.25,0.213-0.504,0.281-0.774
			c0.604-1.959-0.502-4.032-2.461-4.636c-0.129-0.032-0.253-0.074-0.387-0.095c-3.1-0.502-7.023,3.569-8.296,6.063
			c-0.068,0.152-0.716,1.831-1.102,2.897c0.137-0.656,0.269-1.301,0.395-1.988c0.252-1.348,0.471-2.71,0.707-4.169
			c0.098-0.713,0.184-1.43,0.282-2.143c0.097-0.713,0.134-1.492,0.197-2.245c0.123-1.731,0.16-3.501,0.164-5.286
			c1.203,0.226,5.404,0.947,7.445,0.466c2.041-0.481,4.499-1.662,5.383-3.691c0.891-1.843,0.114-4.069-1.729-4.96
			c-0.12-0.053-0.239-0.107-0.363-0.15c-2.986-0.959-7.491,2.46-9.125,4.74c-0.068,0.152-1.096,1.895-1.625,2.871
			c-0.003-1.07-0.006-2.141-0.057-3.22c-0.123-3.132-0.337-6.292-0.552-9.452l-0.176-2.895c0.419,0.083,5.419,1.058,7.708,0.519
			c2.041-0.481,4.493-1.677,5.387-3.702c0.858-1.858,0.046-4.061-1.823-4.924c-0.245-0.123-0.52-0.207-0.794-0.264
			c-2.986-0.96-7.48,2.465-9.12,4.729c-0.088,0.195-1.541,2.713-1.875,3.372c-0.122-2.115-0.228-4.235-0.243-6.328
			c-0.046-2.837,0.11-5.661,0.444-8.472c0.174,0.078,5.395,1.113,7.746,0.522c2.041-0.481,4.499-1.662,5.382-3.691
			c0.88-1.849,0.099-4.063-1.745-4.954c-0.12-0.053-0.239-0.107-0.363-0.15c-2.986-0.96-7.48,2.465-9.109,4.734
			c-0.073,0.163-1.201,2.07-1.699,3.007l-0.152-0.068c0.397-2.808,1.047-5.568,1.939-8.259c0.485-1.491,1.022-2.893,1.572-4.238
			c0.95,0.295,5.314,1.585,7.481,1.317c2.167-0.268,4.649-1.151,5.755-3.068c1.081-1.745,0.547-4.045-1.198-5.126
			c-0.11-0.075-0.214-0.135-0.333-0.188c-2.867-1.284-7.707,1.633-9.585,3.7c-0.063,0.141-1.012,1.385-1.66,2.308l0.803-1.792
			c0.973-2.172,1.999-4.085,2.924-5.77c0.534-0.96,1.025-1.823,1.508-2.61c1.083-0.206,5.441-1.057,7.2-2.277
			c1.759-1.22,3.594-3.163,3.708-5.367c0.169-2.037-1.34-3.821-3.372-4c-0.15-0.015-0.283-0.009-0.426-0.009
			c-3.13,0.176-6.138,4.97-6.804,7.71c-0.097,0.217-0.592,3.972-0.495,4.016c-0.484,0.761-0.982,1.581-1.503,2.482
			c-0.957,1.671-2.032,3.575-3.059,5.723c-0.382,0.794-0.752,1.593-1.112,2.396c-0.675,1.536-1.301,3.107-1.856,4.697
			c-0.977,2.705-1.7,5.484-2.176,8.322l-0.044,0.098c-0.124-0.916-0.583-3.443-0.644-3.626c-0.807-2.682-3.937-7.396-7.088-7.464
			c-2.055,0.018-3.694,1.697-3.675,3.752c-0.005,0.128,0,0.261,0.022,0.388c0.277,2.119,2.187,4.083,3.955,5.201
			c2.031,1.288,7.056,1.974,7.459,2.037c-0.409,2.894-0.632,5.806-0.651,8.731c-0.023,1.711,0.007,3.419,0.054,5.148
			c-0.129-0.788-0.271-1.491-0.296-1.58c-0.807-2.682-3.942-7.385-7.093-7.453c-2.055,0.018-3.704,1.692-3.681,3.736
			c0.001,0.144,0.007,0.277,0.023,0.414c0.185,2.208,2.076,4.098,3.883,5.246c1.807,1.148,6.102,1.834,7.263,1.949
			c0.028,0.665,0.046,1.324,0.079,1.978c0.135,3.164,0.296,6.326,0.343,9.424c0.026,1.107,0.002,2.178-0.01,3.255
			c-0.131-0.697-0.236-1.279-0.241-1.412c-0.807-2.682-3.942-7.385-7.093-7.453c-2.046-0.003-3.701,1.654-3.693,3.705
			c0.002,0.17,0.004,0.341,0.032,0.51c0.185,2.208,2.071,4.109,3.883,5.246c1.812,1.137,5.722,1.78,7.035,1.964
			c-0.049,1.099-0.103,2.21-0.169,3.288c-0.081,0.733-0.109,1.438-0.238,2.162c-0.129,0.725-0.211,1.431-0.319,2.139
			c-0.256,1.358-0.506,2.759-0.791,4.066c-0.19,0.919-0.387,1.796-0.579,2.661c-0.009-1.086-0.062-3.209-0.086-3.389
			c-0.396-2.785-2.786-7.898-5.872-8.432c-2.03-0.27-3.897,1.162-4.168,3.192c-0.016,0.123-0.027,0.236-0.033,0.364
			c-0.151,2.201,1.476,4.39,3.048,5.772c1.737,1.508,6.437,2.948,7.016,3.142c-0.333,1.442-0.667,2.857-0.999,4.181
			c-1.153,4.582-2.292,8.348-3.117,10.978c-0.098,0.334-0.201,0.653-0.301,0.934l1.886,0.884c0.139-0.368,0.222-0.787,0.362-1.246
			c0.781-2.675,1.837-6.518,2.902-11.165c0.347-1.474,0.674-3.049,1.01-4.672c1.579,0.055,3.155,0.031,4.732-0.084
			c0.756,2.242,3.671,5.777,4.053,6.235c-1.07,1.02-2.125,2.008-3.135,2.924c-3.491,3.195-6.478,5.73-8.658,7.453
			c-0.335,0.254-0.639,0.496-0.912,0.726l2.196,1.036c0.041-0.034,0.082-0.067,0.124-0.101c2.112-1.805,5.133-4.416,8.589-7.706
			c1.09-1.037,2.268-2.153,3.416-3.347c0.489,0.363,4.489,3.223,6.746,3.686c2.058,0.413,4.777,0.367,6.441-1.105
			c1.574-1.303,1.805-3.651,0.491-5.23c-0.074-0.098-0.173-0.195-0.263-0.287c-2.306-2.128-7.826-0.897-10.265,0.474
			c-0.145,0.091-1.608,1.144-2.522,1.817c0.475-0.478,0.921-0.891,1.425-1.435c0.965-0.989,1.891-2.009,2.899-3.096
			c0.462-0.536,0.939-1.079,1.411-1.637c0.472-0.558,0.925-1.163,1.396-1.748c1.065-1.388,2.079-2.837,3.06-4.328
			c0.866,0.831,3.98,3.777,5.954,4.492c1.975,0.715,4.714,1.12,6.559-0.087c1.767-1.034,2.363-3.296,1.329-5.063
			c-0.069-0.109-0.137-0.218-0.217-0.332c-1.953-2.452-7.589-2.095-10.209-1.078c-0.168,0.055-1.961,0.973-2.94,1.499
			c0.585-0.898,1.165-1.786,1.727-2.721c1.628-2.674,3.193-5.441,4.749-8.187c0.486-0.852,0.973-1.677,1.464-2.513
			c0.295,0.302,3.925,3.87,6.144,4.681c1.959,0.721,4.719,1.109,6.559-0.087c1.772-1.045,2.362-3.323,1.317-5.095
			c-0.058-0.104-0.126-0.213-0.2-0.311c-1.968-2.446-7.589-2.095-10.22-1.083c-0.204,0.078-2.765,1.369-3.408,1.786
			c1.072-1.841,2.15-3.666,3.301-5.419c1.528-2.393,3.22-4.686,5.045-6.867c0.145,0.143,3.916,3.892,6.177,4.723
			c1.964,0.71,4.664,1.085,6.563-0.098c1.761-1.05,2.329-3.338,1.275-5.088c-0.064-0.12-0.132-0.229-0.216-0.332
			c-1.953-2.452-7.589-2.095-10.22-1.083c-0.173,0.066-2.138,1.076-3.07,1.585l-0.107-0.139c1.891-2.126,3.965-4.078,6.213-5.836
			c1.221-0.979,2.446-1.851,3.652-2.68c0.63,0.777,3.553,4.264,5.485,5.221c1.932,0.956,4.505,1.587,6.497,0.602
			c1.866-0.846,2.678-3.038,1.842-4.899c-0.064-0.12-0.127-0.24-0.191-0.359c-1.679-2.656-7.32-2.9-10.033-2.199
			c-0.147,0.038-1.572,0.6-2.663,0.998c0.554-0.365,1.114-0.74,1.654-1.072c2.002-1.268,3.918-2.313,5.611-3.211
			c0.985-0.511,1.872-0.948,2.721-1.389c1.01,0.452,5.113,2.121,7.258,2.077c2.145-0.043,4.744-0.665,6.073-2.496
			C444.347,331.825,444.062,329.493,442.452,328.225z"/>
		<path style="opacity:0.3;fill:#C6FF00;enable-background:new    ;" d="M418.648,339.481c0,0,2.405-2.925,2.535-3.128
			c1.481-2.375,2.949-7.806,0.933-10.235c-1.356-1.529-3.695-1.669-5.224-0.313c-0.104,0.092-0.202,0.19-0.295,0.293
			c-1.531,1.583-1.707,4.307-1.38,6.371C415.587,334.903,418.637,339.476,418.648,339.481z"/>
		<path style="opacity:0.3;fill:#C6FF00;enable-background:new    ;" d="M368.325,315.625c1.654,1.81,6.73,3.953,6.73,3.953
			s0.373-3.744,0.388-4.011c-0.05-2.8-1.844-8.167-4.849-9.056c-1.989-0.524-4.026,0.665-4.55,2.654
			c-0.032,0.122-0.058,0.246-0.078,0.372C365.565,311.715,366.922,314.07,368.325,315.625z"/>
	</g>
	<g id="freepik--Plants--inject-2_1_">
		<path style="fill:#C6FF00;" d="M130.024,338.688c0,0-0.355-3.512-0.404-3.731c-0.598-2.539-3.227-7.076-6.157-7.337
			c-1.902-0.107-3.531,1.348-3.637,3.25c-0.007,0.129-0.007,0.258,0,0.387c0.042,2.052,1.728,3.957,3.308,5.096
			C124.986,337.706,130.014,338.692,130.024,338.688z"/>
		<path style="fill:#C6FF00;" d="M138.209,315.552c-0.122,0.023-0.243,0.046-0.365,0.07c-2.823,0.755-4.609,5.711-4.745,8.319
			c-0.007,0.228,0.258,3.752,0.258,3.752l0.052-0.02c-0.284,0.775-0.568,1.61-0.897,2.545c-0.532,1.703-1.172,3.649-1.698,5.801
			c-0.602,2.324-1.051,4.672-1.374,7.043c-0.369,2.65-0.501,5.328-0.399,7.999l-1.201-3.115c-1.24-2.291-4.996-5.99-7.867-5.454
			c-1.867,0.399-3.053,2.223-2.655,4.09c0.023,0.122,0.061,0.25,0.098,0.378c0.583,1.974,2.722,3.36,4.544,4.048
			c2.058,0.776,6.811,0.464,7.193,0.436c0.168,2.717,0.525,5.431,1.056,8.103c0.304,1.559,0.657,3.122,1.031,4.678l-0.538-1.397
			c-1.24-2.291-4.985-5.994-7.857-5.458c-1.867,0.399-3.056,2.248-2.657,4.115l0.101,0.353c0.583,1.974,2.712,3.364,4.534,4.052
			c1.822,0.688,5.915,0.513,6.983,0.446l0.445,1.802c0.732,2.856,1.465,5.711,2.101,8.533c0.218,0.997,0.408,1.982,0.597,2.967
			l-0.463-1.2c-1.244-2.302-4.999-6-7.871-5.464c-1.867,0.399-3.056,2.248-2.657,4.115c0.034,0.118,0.067,0.236,0.101,0.354
			c0.587,1.984,2.712,3.364,4.548,4.059c1.837,0.694,5.505,0.528,6.783,0.452c0.167,1.017,0.333,2.035,0.442,3.027
			c0.064,0.689,0.171,1.337,0.195,2.017c0.024,0.68,0.07,1.352,0.111,2.014c0.021,1.288,0.058,2.616,0.052,3.867
			c0.002,0.867-0.019,1.707-0.03,2.543c-0.218-0.997-0.666-2.929-0.725-3.084c-0.857-2.13-2.236-4.011-4.026-5.449
			c-0.092-0.238-0.194-0.472-0.327-0.694c-0.9-1.686-2.997-2.316-4.682-1.416c-0.106,0.065-0.216,0.119-0.317,0.194
			c-2.368,1.721-2.25,6.989-1.437,9.469c0.056,0.145,0.741,1.676,1.192,2.631c-0.344-0.521-0.683-1.032-1.056-1.566
			c-0.726-1.051-1.483-2.091-2.293-3.205c-0.407-0.532-0.825-1.061-1.232-1.593c-0.407-0.532-0.899-1.068-1.356-1.605
			c-1.064-1.218-2.211-2.405-3.388-3.579c0.939-0.647,4.175-2.953,5.196-4.618c1.022-1.666,1.855-4.067,1.093-5.984
			c-0.634-1.8-2.616-2.747-4.416-2.113c-0.114,0.044-0.228,0.088-0.338,0.142c-2.595,1.345-3.291,6.57-2.856,9.148
			c0.056,0.145,0.533,1.97,0.832,2.96c-0.71-0.701-1.42-1.402-2.167-2.076c-2.152-1.975-4.383-3.908-6.614-5.842l-2.031-1.784
			c0.33-0.223,4.258-2.89,5.404-4.758c1.022-1.666,1.841-4.073,1.089-5.994c-0.666-1.788-2.656-2.696-4.454-2.027
			c-0.242,0.081-0.478,0.208-0.696,0.352c-2.596,1.345-3.281,6.566-2.86,9.138c0.072,0.186,0.782,2.8,0.999,3.454
			c-1.479-1.308-2.951-2.63-4.345-3.995c-1.907-1.832-3.672-3.79-5.312-5.856c0.166-0.064,4.278-2.838,5.431-4.78
			c1.022-1.666,1.855-4.067,1.093-5.984c-0.645-1.796-2.623-2.733-4.423-2.099c-0.114,0.044-0.228,0.088-0.337,0.142
			c-2.596,1.345-3.281,6.566-2.85,9.134c0.06,0.155,0.581,2.153,0.874,3.098l-0.145,0.056c-1.597-2.106-2.996-4.348-4.19-6.705
			c-0.668-1.3-1.243-2.576-1.771-3.822c0.819-0.435,4.537-2.474,5.783-4.084c1.246-1.609,2.291-3.831,1.75-5.821
			c-0.444-1.861-2.316-3.017-4.178-2.573c-0.122,0.023-0.229,0.053-0.343,0.097c-2.732,1.053-3.98,6.17-3.846,8.769
			c0.052,0.134,0.252,1.579,0.437,2.613l-0.658-1.707c-0.798-2.07-1.389-4.005-1.897-5.723c-0.284-0.984-0.533-1.875-0.736-2.711
			c0.575-0.852,2.873-4.293,3.221-6.258c0.348-1.965,0.268-4.454-1.116-5.977c-1.236-1.449-3.407-1.622-4.86-0.397
			c-0.108,0.089-0.192,0.181-0.286,0.276c-1.939,2.186-0.743,7.323,0.632,9.562c0.08,0.207,2.238,3,2.331,2.964
			c0.185,0.82,0.401,1.688,0.655,2.624c0.477,1.73,1.031,3.691,1.777,5.781c0.274,0.774,0.559,1.543,0.855,2.309
			c0.573,1.455,1.201,2.901,1.888,4.312c1.148,2.422,2.511,4.725,4.076,6.903l0.036,0.093c-0.688-0.519-2.66-1.875-2.822-1.955
			c-2.304-1.228-7.477-2.252-9.591-0.213c-1.337,1.371-1.303,3.557,0.068,4.894c0.081,0.088,0.173,0.171,0.271,0.24
			c1.583,1.208,4.137,1.234,6.037,0.799c2.185-0.498,5.939-3.371,6.244-3.596c1.645,2.171,3.426,4.23,5.348,6.164
			c1.116,1.138,2.266,2.24,3.441,3.345c-0.606-0.432-1.164-0.799-1.24-0.841c-2.304-1.228-7.473-2.242-9.587-0.203
			c-1.337,1.371-1.313,3.561,0.054,4.888c0.096,0.094,0.187,0.177,0.289,0.257c1.582,1.328,4.074,1.318,6.02,0.877
			c1.946-0.441,5.219-2.832,6.058-3.524c0.458,0.418,0.906,0.839,1.36,1.247c2.181,1.988,4.379,3.958,6.458,5.961
			c0.749,0.71,1.442,1.429,2.146,2.144c-0.547-0.371-1.001-0.684-1.092-0.767c-2.304-1.228-7.473-2.242-9.587-0.203
			c-1.345,1.351-1.336,3.534,0.025,4.875c0.114,0.111,0.228,0.221,0.359,0.313c1.581,1.328,4.078,1.328,6.019,0.877
			c1.942-0.451,4.935-2.616,5.918-3.363c0.695,0.754,1.394,1.519,2.064,2.271c0.432,0.535,0.879,1.016,1.274,1.577
			s0.808,1.079,1.205,1.615c0.73,1.062,1.493,2.146,2.17,3.193c0.483,0.729,0.934,1.435,1.38,2.13
			c-0.724-0.707-2.163-2.066-2.298-2.169c-2.102-1.567-7.053-3.343-9.433-1.653c-1.512,1.165-1.79,3.341-0.625,4.853
			c0.071,0.091,0.138,0.173,0.219,0.26c1.356,1.545,3.873,1.906,5.819,1.774c2.138-0.159,6.177-2.322,6.685-2.577
			c0.735,1.167,1.452,2.317,2.11,3.406c2.274,3.771,4.017,6.997,5.214,9.27c0.157,0.284,0.3,0.562,0.42,0.813l1.823-0.667
			c-0.152-0.333-0.375-0.664-0.586-1.058c-1.257-2.273-3.105-5.495-5.48-9.25c-0.747-1.198-1.574-2.448-2.427-3.736
			c1.073-1.008,2.092-2.066,3.051-3.185c1.979,0.972,6.232,1.365,6.785,1.414c-0.028,1.378-0.067,2.724-0.124,3.994
			c-0.179,4.407-0.463,8.047-0.755,10.62c-0.052,0.389-0.092,0.749-0.119,1.08l2.127-0.772c0.005-0.049,0.01-0.099,0.014-0.148
			c0.193-2.583,0.45-6.295,0.542-10.74c0.03-1.402,0.065-2.914,0.029-4.457c0.561-0.086,5.079-0.853,6.868-2.042
			c1.624-1.09,3.379-2.919,3.498-4.986c0.172-1.897-1.23-3.591-3.137-3.759c-0.113-0.016-0.243-0.013-0.362-0.015
			c-2.922,0.128-5.732,4.587-6.426,7.101c-0.035,0.156-0.299,1.815-0.454,2.861c-0.005-0.628,0.015-1.194-0.014-1.885
			c-0.021-1.287-0.087-2.569-0.144-3.95c-0.052-0.658-0.097-1.33-0.156-2.008c-0.059-0.678-0.162-1.376-0.24-2.071
			c-0.219-1.615-0.511-3.238-0.854-4.865c1.119-0.027,5.112-0.152,6.881-0.989c1.769-0.837,3.836-2.382,4.248-4.396
			c0.476-1.848-0.629-3.728-2.476-4.204c-0.117-0.026-0.234-0.052-0.362-0.074c-2.904-0.319-6.369,3.644-7.416,6.044
			c-0.074,0.147-0.644,1.936-0.939,2.929c-0.21-0.977-0.416-1.943-0.666-2.929c-0.7-2.832-1.502-5.685-2.297-8.516
			c-0.244-0.88-0.47-1.744-0.7-2.618c0.393,0.003,5.137-0.055,7.13-0.99c1.763-0.822,3.832-2.393,4.249-4.395
			c0.472-1.858-0.647-3.744-2.505-4.216c-0.107-0.03-0.224-0.056-0.337-0.072c-2.91-0.304-6.369,3.644-7.426,6.049
			c-0.083,0.186-0.91,2.728-1.056,3.426c-0.514-1.918-1.013-3.829-1.417-5.741c-0.579-2.582-0.985-5.207-1.23-7.846
			c0.189-0.002,5.145-0.034,7.18-0.985c1.759-0.833,3.78-2.373,4.244-4.406c0.462-1.854-0.678-3.732-2.528-4.184
			c-0.121-0.036-0.238-0.063-0.362-0.075c-2.904-0.318-6.369,3.644-7.427,6.049c-0.07,0.158-0.692,2.121-0.967,3.071l-0.162-0.021
			c-0.165-2.647-0.094-5.301,0.219-7.941c0.154-1.45,0.382-2.833,0.625-4.175c0.928,0.094,5.154,0.45,7.055-0.2
			c1.901-0.65,4.007-1.937,4.665-3.902c0.665-1.79-0.251-3.766-2.031-4.435c-0.121-0.036-0.242-0.073-0.363-0.11
			c-2.859-0.633-6.724,2.937-8.042,5.192c-0.072,0.123-0.636,1.434-1.089,2.417c0.123-0.606,0.242-1.223,0.377-1.798
			c0.476-2.156,1.042-4.11,1.56-5.819c0.309-0.987,0.602-1.86,0.868-2.712c0.962-0.371,4.76-1.99,6.139-3.437
			s2.675-3.575,2.337-5.655C141.834,316.662,140.104,315.32,138.209,315.552z"/>
		<path style="fill:#C6FF00;" d="M81.203,356.309c2.283,0.094,7.034-1.856,7.034-1.856s-2.232-2.705-2.398-2.891
			c-1.885-1.805-6.613-4.142-9.174-2.739c-1.653,0.972-2.204,3.1-1.232,4.752c0.06,0.102,0.125,0.2,0.195,0.295
			C76.805,355.568,79.254,356.217,81.203,356.309z"/>
		<path style="opacity:0.5;fill:#C6FF00;enable-background:new    ;" d="M138.209,315.552c-0.122,0.023-0.243,0.046-0.365,0.07
			c-2.823,0.755-4.609,5.711-4.745,8.319c-0.007,0.228,0.258,3.752,0.258,3.752l0.052-0.02c-0.284,0.775-0.568,1.61-0.897,2.545
			c-0.532,1.703-1.172,3.649-1.698,5.801c-0.602,2.324-1.051,4.672-1.374,7.043c-0.369,2.65-0.501,5.328-0.399,7.999l-1.201-3.115
			c-1.24-2.291-4.996-5.99-7.867-5.454c-1.867,0.399-3.053,2.223-2.655,4.09c0.023,0.122,0.061,0.25,0.098,0.378
			c0.583,1.974,2.722,3.36,4.544,4.048c2.058,0.776,6.811,0.464,7.193,0.436c0.168,2.717,0.525,5.431,1.056,8.103
			c0.304,1.559,0.657,3.122,1.031,4.678l-0.538-1.397c-1.24-2.291-4.985-5.994-7.857-5.458c-1.867,0.399-3.056,2.248-2.657,4.115
			l0.101,0.353c0.583,1.974,2.712,3.364,4.534,4.052c1.822,0.688,5.915,0.513,6.983,0.446l0.445,1.802
			c0.732,2.856,1.465,5.711,2.101,8.533c0.218,0.997,0.408,1.982,0.597,2.967l-0.463-1.2c-1.244-2.302-4.999-6-7.871-5.464
			c-1.867,0.399-3.056,2.248-2.657,4.115c0.034,0.118,0.067,0.236,0.101,0.354c0.587,1.984,2.712,3.364,4.548,4.059
			c1.837,0.694,5.505,0.528,6.783,0.452c0.167,1.017,0.333,2.035,0.442,3.027c0.064,0.689,0.171,1.337,0.195,2.017
			c0.024,0.68,0.07,1.352,0.111,2.014c0.021,1.288,0.058,2.616,0.052,3.867c0.002,0.867-0.019,1.707-0.03,2.543
			c-0.218-0.997-0.666-2.929-0.725-3.084c-0.857-2.13-2.236-4.011-4.026-5.449c-0.092-0.238-0.194-0.472-0.327-0.694
			c-0.9-1.686-2.997-2.316-4.682-1.416c-0.106,0.065-0.216,0.119-0.317,0.194c-2.368,1.721-2.25,6.989-1.437,9.469
			c0.056,0.145,0.741,1.676,1.192,2.631c-0.344-0.521-0.683-1.032-1.056-1.566c-0.726-1.051-1.483-2.091-2.293-3.205
			c-0.407-0.532-0.825-1.061-1.232-1.593c-0.407-0.532-0.899-1.068-1.356-1.605c-1.064-1.218-2.211-2.405-3.388-3.579
			c0.939-0.647,4.175-2.953,5.196-4.618c1.022-1.666,1.855-4.067,1.093-5.984c-0.634-1.8-2.616-2.747-4.416-2.113
			c-0.114,0.044-0.228,0.088-0.338,0.142c-2.595,1.345-3.291,6.57-2.856,9.148c0.056,0.145,0.533,1.97,0.832,2.96
			c-0.71-0.701-1.42-1.402-2.167-2.076c-2.152-1.975-4.383-3.908-6.614-5.842l-2.031-1.784c0.33-0.223,4.258-2.89,5.404-4.758
			c1.022-1.666,1.841-4.073,1.089-5.994c-0.666-1.788-2.656-2.696-4.454-2.027c-0.242,0.081-0.478,0.208-0.696,0.352
			c-2.596,1.345-3.281,6.566-2.86,9.138c0.072,0.186,0.782,2.8,0.999,3.454c-1.479-1.308-2.951-2.63-4.345-3.995
			c-1.907-1.832-3.672-3.79-5.312-5.856c0.166-0.064,4.278-2.838,5.431-4.78c1.022-1.666,1.855-4.067,1.093-5.984
			c-0.645-1.796-2.623-2.733-4.423-2.099c-0.114,0.044-0.228,0.088-0.337,0.142c-2.596,1.345-3.281,6.566-2.85,9.134
			c0.06,0.155,0.581,2.153,0.874,3.098l-0.145,0.056c-1.597-2.106-2.996-4.348-4.19-6.705c-0.668-1.3-1.243-2.576-1.771-3.822
			c0.819-0.435,4.537-2.474,5.783-4.084c1.246-1.609,2.291-3.831,1.75-5.821c-0.444-1.861-2.316-3.017-4.178-2.573
			c-0.122,0.023-0.229,0.053-0.343,0.097c-2.732,1.053-3.98,6.17-3.846,8.769c0.052,0.134,0.252,1.579,0.437,2.613l-0.658-1.707
			c-0.798-2.07-1.389-4.005-1.897-5.723c-0.284-0.984-0.533-1.875-0.736-2.711c0.575-0.852,2.873-4.293,3.221-6.258
			c0.348-1.965,0.268-4.454-1.116-5.977c-1.236-1.449-3.407-1.622-4.86-0.397c-0.108,0.089-0.192,0.181-0.286,0.276
			c-1.939,2.186-0.743,7.323,0.632,9.562c0.08,0.207,2.238,3,2.331,2.964c0.185,0.82,0.401,1.688,0.655,2.624
			c0.477,1.73,1.031,3.691,1.777,5.781c0.274,0.774,0.559,1.543,0.855,2.309c0.573,1.455,1.201,2.901,1.888,4.312
			c1.148,2.422,2.511,4.725,4.076,6.903l0.036,0.093c-0.688-0.519-2.66-1.875-2.822-1.955c-2.304-1.228-7.477-2.252-9.591-0.213
			c-1.337,1.371-1.303,3.557,0.068,4.894c0.081,0.088,0.173,0.171,0.271,0.24c1.583,1.208,4.137,1.234,6.037,0.799
			c2.185-0.498,5.939-3.371,6.244-3.596c1.645,2.171,3.426,4.23,5.348,6.164c1.116,1.138,2.266,2.24,3.441,3.345
			c-0.606-0.432-1.164-0.799-1.24-0.841c-2.304-1.228-7.473-2.242-9.587-0.203c-1.337,1.371-1.313,3.561,0.054,4.888
			c0.096,0.094,0.187,0.177,0.289,0.257c1.582,1.328,4.074,1.318,6.02,0.877c1.946-0.441,5.219-2.832,6.058-3.524
			c0.458,0.418,0.906,0.839,1.36,1.247c2.181,1.988,4.379,3.958,6.458,5.961c0.749,0.71,1.442,1.429,2.146,2.144
			c-0.547-0.371-1.001-0.684-1.092-0.767c-2.304-1.228-7.473-2.242-9.587-0.203c-1.345,1.351-1.336,3.534,0.025,4.875
			c0.114,0.111,0.228,0.221,0.359,0.313c1.581,1.328,4.078,1.328,6.019,0.877c1.942-0.451,4.935-2.616,5.918-3.363
			c0.695,0.754,1.394,1.519,2.064,2.271c0.432,0.535,0.879,1.016,1.274,1.577s0.808,1.079,1.205,1.615
			c0.73,1.062,1.493,2.146,2.17,3.193c0.483,0.729,0.934,1.435,1.38,2.13c-0.724-0.707-2.163-2.066-2.298-2.169
			c-2.102-1.567-7.053-3.343-9.433-1.653c-1.512,1.165-1.79,3.341-0.625,4.853c0.071,0.091,0.138,0.173,0.219,0.26
			c1.356,1.545,3.873,1.906,5.819,1.774c2.138-0.159,6.177-2.322,6.685-2.577c0.735,1.167,1.452,2.317,2.11,3.406
			c2.274,3.771,4.017,6.997,5.214,9.27c0.157,0.284,0.3,0.562,0.42,0.813l1.823-0.667c-0.152-0.333-0.375-0.664-0.586-1.058
			c-1.257-2.273-3.105-5.495-5.48-9.25c-0.747-1.198-1.574-2.448-2.427-3.736c1.073-1.008,2.092-2.066,3.051-3.185
			c1.979,0.972,6.232,1.365,6.785,1.414c-0.028,1.378-0.067,2.724-0.124,3.994c-0.179,4.407-0.463,8.047-0.755,10.62
			c-0.052,0.389-0.092,0.749-0.119,1.08l2.127-0.772c0.005-0.049,0.01-0.099,0.014-0.148c0.193-2.583,0.45-6.295,0.542-10.74
			c0.03-1.402,0.065-2.914,0.029-4.457c0.561-0.086,5.079-0.853,6.868-2.042c1.624-1.09,3.379-2.919,3.498-4.986
			c0.172-1.897-1.23-3.591-3.137-3.759c-0.113-0.016-0.243-0.013-0.362-0.015c-2.922,0.128-5.732,4.587-6.426,7.101
			c-0.035,0.156-0.299,1.815-0.454,2.861c-0.005-0.628,0.015-1.194-0.014-1.885c-0.021-1.287-0.087-2.569-0.144-3.95
			c-0.052-0.658-0.097-1.33-0.156-2.008c-0.059-0.678-0.162-1.376-0.24-2.071c-0.219-1.615-0.511-3.238-0.854-4.865
			c1.119-0.027,5.112-0.152,6.881-0.989c1.769-0.837,3.836-2.382,4.248-4.396c0.476-1.848-0.629-3.728-2.476-4.204
			c-0.117-0.026-0.234-0.052-0.362-0.074c-2.904-0.319-6.369,3.644-7.416,6.044c-0.074,0.147-0.644,1.936-0.939,2.929
			c-0.21-0.977-0.416-1.943-0.666-2.929c-0.7-2.832-1.502-5.685-2.297-8.516c-0.244-0.88-0.47-1.744-0.7-2.618
			c0.393,0.003,5.137-0.055,7.13-0.99c1.763-0.822,3.832-2.393,4.249-4.395c0.472-1.858-0.647-3.744-2.505-4.216
			c-0.107-0.03-0.224-0.056-0.337-0.072c-2.91-0.304-6.369,3.644-7.426,6.049c-0.083,0.186-0.91,2.728-1.056,3.426
			c-0.514-1.918-1.013-3.829-1.417-5.741c-0.579-2.582-0.985-5.207-1.23-7.846c0.189-0.002,5.145-0.034,7.18-0.985
			c1.759-0.833,3.78-2.373,4.244-4.406c0.462-1.854-0.678-3.732-2.528-4.184c-0.121-0.036-0.238-0.063-0.362-0.075
			c-2.904-0.318-6.369,3.644-7.427,6.049c-0.07,0.158-0.692,2.121-0.967,3.071l-0.162-0.021c-0.165-2.647-0.094-5.301,0.219-7.941
			c0.154-1.45,0.382-2.833,0.625-4.175c0.928,0.094,5.154,0.45,7.055-0.2c1.901-0.65,4.007-1.937,4.665-3.902
			c0.665-1.79-0.251-3.766-2.031-4.435c-0.121-0.036-0.242-0.073-0.363-0.11c-2.859-0.633-6.724,2.937-8.042,5.192
			c-0.072,0.123-0.636,1.434-1.089,2.417c0.123-0.606,0.242-1.223,0.377-1.798c0.476-2.156,1.042-4.11,1.56-5.819
			c0.309-0.987,0.602-1.86,0.868-2.712c0.962-0.371,4.76-1.99,6.139-3.437s2.675-3.575,2.337-5.655
			C141.834,316.662,140.104,315.32,138.209,315.552z"/>
		<path style="opacity:0.3;fill:#C6FF00;enable-background:new    ;" d="M130.024,338.688c0,0-0.355-3.512-0.404-3.731
			c-0.598-2.539-3.227-7.076-6.157-7.337c-1.902-0.107-3.531,1.348-3.637,3.25c-0.007,0.129-0.007,0.258,0,0.387
			c0.042,2.052,1.728,3.957,3.308,5.096C124.986,337.706,130.014,338.692,130.024,338.688z"/>
		<path style="opacity:0.3;fill:#C6FF00;enable-background:new    ;" d="M81.203,356.309c2.283,0.094,7.034-1.856,7.034-1.856
			s-2.232-2.705-2.398-2.891c-1.885-1.805-6.613-4.142-9.174-2.739c-1.653,0.972-2.204,3.1-1.232,4.752
			c0.06,0.102,0.125,0.2,0.195,0.295C76.805,355.568,79.254,356.217,81.203,356.309z"/>
	</g>
</g>
<g id="Shape">
	<g>
		<ellipse style="fill:#C6FF00;" cx="250" cy="412.74" rx="172.116" ry="22.968"/>
		<ellipse style="opacity:0.5;fill:#FFFFFF;" cx="250" cy="412.74" rx="172.116" ry="22.968"/>
	</g>
</g>
<g id="Character_2">
	<g>
		<path style="fill:#C6FF00;" d="M448.497,195.602c0,0-6.119,28.16-14.146,41.495l-9.172-3.232l-4.556,3.817l-19.394,16.292
			c0,0-29.341-9.78-34.792-19.334c-5.451-9.554,2.111-22.137,2.111-22.137l19.155-46.099l0.167-0.095l8.23-4.389
			c0,0,1.491-0.191,3.745-0.346c0.775-0.06,1.646-0.107,2.576-0.143c4.592-0.191,10.651-0.072,14.599,1.419
			c7.085,2.672,12.917,1.682,12.917,1.682s8.206,10.997,13.299,18.654C448.342,190.855,448.497,195.602,448.497,195.602z"/>
		<g>
			<path style="fill:#FFFFFF;" d="M341.225,284.072c0,0-6.598,17.45-7.638,27.841c-1.039,10.391,11.776,28.055,11.776,28.055
				s-6.2,11.084-4.139,14.547c2.061,3.464,8.054-5.196,10.946-16.626c2.892-11.43-2.304-27.016-2.304-27.016
				s8.478-12.007,8.915-17.26C359.219,288.361,341.225,284.072,341.225,284.072z"/>
			<path style="fill:none;stroke:#263238;stroke-linecap:round;stroke-linejoin:round;stroke-miterlimit:10;" d="M341.354,284.072
				c0,0-6.708,17.45-7.765,27.841c-1.056,10.391,11.973,28.055,11.973,28.055s-6.303,11.084-4.208,14.547
				c2.095,3.464,8.189-5.196,11.128-16.626c2.94-11.43-2.342-27.016-2.342-27.016s8.619-12.007,9.064-17.26
				C359.647,288.361,341.354,284.072,341.354,284.072z"/>
			<path style="fill:#263238;" d="M343.555,342.461c0,0-1.7-3.116-0.708-3.966c0.992-0.85,4.674,1.275,5.241,2.833
				c0.567,1.558,3.391-0.947,3.391-0.947l1.631-5.861c0,0,1.635,3.833,1.777,5.533c0.142,1.7-2.999,4.919-3.4,8.924
				c-0.472,4.714-6.232,9.349-9.632,8.924C338.456,357.476,340.439,347.277,343.555,342.461z"/>
			<path style="fill:none;stroke:#FFFFFF;stroke-linecap:round;stroke-linejoin:round;stroke-miterlimit:10;" d="M353.889,339.313
				c-1.936,2.769-3.354,5.578-4.735,8.661c-0.854,1.909-1.174,4.031-2.786,5.365c-1.508,1.249-3.228,1.983-5.144,2.386"/>
		</g>
		<path style="opacity:0.1;" d="M420.623,237.681l-19.394,16.292c0,0-29.341-9.78-34.792-19.334
			c-5.451-9.554,2.111-22.137,2.111-22.137l19.155-46.099l0.167-0.095c3.996-1.133,8.003-3.375,11.975-4.735
			c0.906-0.31,1.801-0.585,2.695-0.775c-0.036,0.215-0.083,0.417-0.119,0.632c-3.483,19.084,0.489,39.431,10.902,55.795
			c2.087,3.28,2.886,7.228,4.496,10.758c1.002,2.206,2.016,4.449,2.493,6.822C420.504,235.749,420.599,236.715,420.623,237.681z"/>
		<path style="fill:#FFFFFF;" d="M419.402,170.179c0,0,0.556,3.921,6.325,4.66c5.769,0.739,8.975-3.617,8.975-3.617
			s-0.971-4.821,0.065-10.256c1.036-5.434,2.662-7.066,2.662-7.066s6.704,0.079,7.108-5.161c0.404-5.24-6.167-8.099-8.334-5.875
			c-2.166,2.223-5.025-5.872-5.025-5.872l-7.669-4.424l-5.63-5.046l-4.375,4.226c0,0-1.44,5.003-1.787,7.399
			c-0.347,2.396-1.965,6.634-1.945,8.719c0.02,2.085,0.599,13.592,1.898,17.211c1.299,3.619,4.686,4.638,6.21,4.352
			C419.403,169.143,419.402,170.179,419.402,170.179z"/>
		<g>
			<g>
				<path style="fill:#FFFFFF;" d="M359.503,396.961c-0.703-3.594-0.112-7.761,1.529-12.138c2.849-7.596,5.405-57.288,12.627-62.987
					c4.659-3.677,16.176,1.266,16.176,1.266s0.633,6.647,0,17.409c-0.633,10.762-20.24,46.212-20.407,49.377
					c-0.03,0.577,0.401,1.522,1.108,2.719L359.503,396.961z"/>
				<path style="fill:none;stroke:#263238;stroke-linecap:round;stroke-linejoin:round;stroke-miterlimit:10;" d="M359.503,396.961
					c-0.703-3.594-0.112-7.761,1.529-12.138c2.849-7.596,5.405-57.288,12.627-62.987c4.659-3.677,16.176,1.266,16.176,1.266
					s0.633,6.647,0,17.409c-0.633,10.762-20.24,46.212-20.407,49.377c-0.03,0.577,0.401,1.522,1.108,2.719L359.503,396.961z"/>
			</g>
			<path style="fill:#263238;" d="M359.874,388.594c0,0-2.473,7.501-2.079,11.779c0.394,4.278,3.495,1.944,9.599,9.032
				c6.103,7.088,11.647,7.787,13.616,6.409c1.969-1.378,0.808-4.956-5.387-15.441c-6.195-10.485-3.906-5.889-3.906-5.889
				s1.264-4.374-1.124-4.992c-3.46-0.897-5.513,4.134-7.678,4.134C360.749,393.625,359.874,388.594,359.874,388.594z"/>
			<path style="fill:none;stroke:#FFFFFF;stroke-linecap:round;stroke-linejoin:round;stroke-miterlimit:10;" d="M358.494,398.31
				c0.502,0.775,1.197,1.453,1.946,1.992c1.498,1.077,3.245,1.759,4.786,2.773c1.986,1.306,3.572,3.119,5.244,4.807
				c1.163,1.174,2.378,2.297,3.64,3.364c0.997,0.843,2.049,1.665,3.281,2.098c1.232,0.433,2.687,0.422,3.756-0.328"/>
		</g>
		<path style="fill:none;stroke:#263238;stroke-linecap:round;stroke-linejoin:round;stroke-miterlimit:10;" d="M419.43,126.269
			c-2.741,2.165-5.701,4.641-6.801,8.09c-1.094,3.432-0.793,7.294-2.219,10.639c-0.99,2.322-0.57,5.599-0.429,8.053
			c0.219,3.84,0.773,7.678,1.548,11.443c0.577,2.807,1.763,4.573,4.733,4.923c2.911,0.343,6.121-1.169,8.642-2.475
			c4.062-2.104,8.887-8.813,11.299-12.809c3.2-0.758,9.31-0.372,8.201-6.495c-1.109-6.123-5.727-3.142-7.018-1.383"/>
		<path style="fill:none;stroke:#263238;stroke-linecap:round;stroke-linejoin:round;stroke-miterlimit:10;" d="M421.303,144.026
			c1.573-1.666,3.204-1.152,5.084-0.019"/>
		<path style="fill:none;stroke:#263238;stroke-linecap:round;stroke-linejoin:round;stroke-miterlimit:10;" d="M417.26,145.099
			c0.41,2.361-0.158,4.899-1.616,6.808c-0.404,0.529-0.89,1.059-0.952,1.722c-0.069,0.74,0.419,1.415,0.956,1.928"/>
		<path style="fill:none;stroke:#263238;stroke-linecap:round;stroke-linejoin:round;stroke-miterlimit:10;" d="M417.124,159.809
			c2.421,0.212,3.789-0.363,5.074-2.224"/>
		<path style="fill:#263238;" d="M423.771,148.46c-0.075,0.852-0.478,1.513-0.902,1.476c-0.423-0.037-0.706-0.758-0.631-1.611
			c0.075-0.852,0.478-1.513,0.902-1.476C423.563,146.887,423.846,147.608,423.771,148.46z"/>
		<path style="fill:#263238;" d="M414.606,147.249c-0.075,0.853-0.478,1.513-0.902,1.476c-0.423-0.037-0.706-0.758-0.631-1.611
			c0.075-0.852,0.479-1.513,0.902-1.476C414.398,145.676,414.681,146.397,414.606,147.249z"/>
		<path style="fill:none;stroke:#263238;stroke-linecap:round;stroke-linejoin:round;stroke-miterlimit:10;" d="M412.088,142.721
			c0,0,1.492-1.277,2.893,0.254"/>
		<path style="fill:none;stroke:#263238;stroke-linecap:round;stroke-linejoin:round;stroke-miterlimit:10;" d="M436.203,154.132
			c-1.021,3.304-1.378,6.133-1.767,9.569c-0.284,2.508-0.391,5.085,0.266,7.521c-1.536,2.496-5.483,3.933-8.403,3.685
			c-1.648-0.14-3.312-0.579-4.646-1.556c-1.335-0.977-2.295-2.554-2.249-4.208"/>
		<path style="fill:#263238;" d="M366.033,231.785c0,0,17.556,17.938,36.639,20.991c0,0,5.343,9.541,2.672,18.701
			c-2.672,9.16-12.977,48.852-12.977,48.852l-19.465-2.29v-48.471c0,0-6.466,16.457-12.434,24.503l-19.244-10
			C341.225,284.072,347.713,246.67,366.033,231.785z"/>
		<polyline style="fill:none;stroke:#FFFFFF;stroke-linecap:round;stroke-linejoin:round;stroke-miterlimit:10;" points="
			366.436,255.729 372.283,262.411 372.903,269.569 		"/>
		<path style="fill:#263238;" d="M369.67,307.536c0,0-1.063,6.14,1.266,15.669c0,0,13.551,3.6,21.809,1.059
			c0,0,4.023-8.47,4.658-11.857C397.404,312.406,384.072,304.572,369.67,307.536z"/>
		<path style="fill:#263238;" d="M337.905,288.056c0,0,9.105,7.199,20.539,9.316c0,0,5.823-4.023,7.993-6.776
			c0,0-12.439-12.493-27.049-12.493L337.905,288.056z"/>
		<path style="fill:none;stroke:#263238;stroke-linecap:round;stroke-linejoin:round;stroke-miterlimit:10;" d="M421.677,206.083
			c0,0,2.933-11.163,12.678-13.809"/>
		<path style="fill:#263238;" d="M437.672,145.718c-0.914,0.72-0.647,2.266-1.343,3.199c-0.627,0.841-1.538,1.395-2.59,1.474
			c-0.094,0.007-0.196,0.008-0.272-0.047c-0.081-0.059-0.109-0.166-0.13-0.264c-0.305-1.479-0.055-3.008-0.052-4.518
			c0.006-2.496-1.018-3.668-2.712-5.27c-1.318-1.247-1.274-3.454-2.527-4.766c-0.892-0.934-2.268-1.223-3.559-1.268
			c-1.291-0.046-2.601,0.102-3.866-0.165c-2.384-0.501-4.181-2.42-4.709-4.997c-1.994,1.596-3.717,6.961-3.717,6.961l-1.256-1.093
			c-3.041-2.837-3.618-7.879-1.518-11.482c2.139-3.671,6.688-5.657,10.896-5.069c2.8,0.391,5.403,1.781,8.218,2.032
			c3.432,0.305,6.999-1.097,10.269-0.012c3.26,1.082,5.292,4.379,6.256,7.677c0.963,3.297,1.14,6.79,2.173,10.066
			c0.343,1.087,0.781,2.155,0.925,3.285c0.334,2.613-1.107,5.363-3.446,6.575C444.714,148.036,443.766,140.919,437.672,145.718z"/>
		<path style="opacity:0.2;fill:none;stroke:#FFFFFF;stroke-linecap:round;stroke-linejoin:round;stroke-miterlimit:10;" d="
			M412.235,131.92c-1.293-1.906-1.698-4.453-0.818-6.581c0.88-2.128,3.122-3.689,5.42-3.537c2.318,0.154,4.226,1.861,5.689,3.665
			c1.463,1.804,2.735,3.841,4.666,5.132c2.116,1.414,4.77,1.758,7.029,2.93c3.543,1.839,5.854,5.829,5.685,9.817"/>
		<path style="opacity:0.2;fill:none;stroke:#FFFFFF;stroke-linecap:round;stroke-linejoin:round;stroke-miterlimit:10;" d="
			M426.476,124.046c0.982,1.81,3.014,2.783,4.996,3.343c1.982,0.56,4.073,0.84,5.893,1.802c2.81,1.485,4.663,4.624,4.603,7.802"/>
		<g>
			<path style="fill:#FFFFFF;stroke:#263238;stroke-miterlimit:10;" d="M407.621,143.076l-74.857,180.355
				c-1.566,3.772-5.894,5.566-9.672,3.998l-97.928-40.645c-3.772-1.566-5.564-5.9-3.998-9.672l74.857-180.355
				c1.566-3.772,5.9-5.564,9.672-3.998l97.928,40.645C407.4,134.971,409.187,139.303,407.621,143.076z"/>
			<path style="fill:#C6FF00;" d="M380.163,147.923l-3.572,8.607c-1.076,2.593-4.059,3.826-6.652,2.75l-58.779-24.396
				c-2.15-0.893-3.361-3.084-3.106-5.28c0.048-0.462,0.165-0.926,0.351-1.374l3.572-8.607c1.079-2.599,4.061-3.831,6.659-2.753
				l58.779,24.397C380.009,142.342,381.242,145.325,380.163,147.923z"/>
			<g>
				<path style="fill:#263238;" d="M338.251,131.083l-2.978,7.175l-1.333-0.553l1.276-3.075l-3.711-1.54l-1.276,3.075l-1.333-0.553
					l2.978-7.175l1.333,0.553l-1.23,2.962l3.711,1.54l1.23-2.962L338.251,131.083z"/>
				<path style="fill:#263238;" d="M343.168,138.808l-4.295-1.783c-0.178,0.863,0.275,1.652,1.229,2.048
					c0.615,0.255,1.177,0.26,1.733,0.022l0.359,1.074c-0.734,0.38-1.631,0.368-2.574-0.023c-1.835-0.762-2.535-2.434-1.858-4.064
					c0.676-1.63,2.361-2.301,3.991-1.624c1.599,0.664,2.304,2.266,1.593,3.978C343.303,138.54,343.229,138.689,343.168,138.808z
					 M339.216,136.17l3.106,1.289c0.225-0.832-0.154-1.626-0.995-1.975C340.497,135.14,339.671,135.422,339.216,136.17z"/>
				<path style="fill:#263238;" d="M346.61,134.048l1.281,0.532l-3.157,7.606l-1.281-0.532L346.61,134.048z"/>
				<path style="fill:#263238;" d="M349.573,135.277l1.281,0.532l-3.157,7.606l-1.281-0.532L349.573,135.277z"/>
				<path style="fill:#263238;" d="M350.063,141.189c0.681-1.64,2.392-2.288,4.073-1.59c1.702,0.706,2.441,2.371,1.76,4.011
					c-0.681,1.64-2.385,2.302-4.087,1.596C350.127,144.508,349.382,142.829,350.063,141.189z M354.604,143.073
					c0.434-1.046,0.014-2.001-0.919-2.388c-0.923-0.383-1.896-0.006-2.33,1.039c-0.434,1.046-0.013,2.001,0.909,2.384
					C353.196,144.496,354.17,144.119,354.604,143.073z"/>
				<path style="fill:#263238;" d="M356.056,146.032c0.183-0.441,0.676-0.645,1.158-0.445c0.472,0.196,0.665,0.685,0.482,1.125
					c-0.183,0.441-0.67,0.659-1.142,0.463C356.073,146.976,355.873,146.472,356.056,146.032z M358.804,139.614l1.517,0.63
					l-2.247,4.691l-1.015-0.421L358.804,139.614z"/>
			</g>
			<g>
				
					<rect x="286.499" y="178.452" transform="matrix(0.9236 0.3833 -0.3833 0.9236 94.3265 -111.5144)" style="fill:#263238;" width="80.901" height="4.906"/>
				
					<rect x="281.661" y="190.108" transform="matrix(0.9236 0.3833 -0.3833 0.9236 98.4252 -108.7692)" style="fill:#263238;" width="80.901" height="4.906"/>
				
					<rect x="276.823" y="201.765" transform="matrix(0.9236 0.3833 -0.3833 0.9236 102.524 -106.0241)" style="fill:#263238;" width="80.901" height="4.906"/>
				
					<rect x="271.985" y="213.421" transform="matrix(0.9236 0.3833 -0.3833 0.9236 106.623 -103.279)" style="fill:#263238;" width="80.901" height="4.906"/>
				
					<rect x="267.147" y="225.078" transform="matrix(0.9236 0.3833 -0.3833 0.9236 110.7216 -100.5338)" style="fill:#263238;" width="80.901" height="4.906"/>
				
					<rect x="262.309" y="236.734" transform="matrix(0.9236 0.3833 -0.3833 0.9236 114.821 -97.789)" style="fill:#263238;" width="80.901" height="4.906"/>
			</g>
			<path style="fill:#C6FF00;stroke:#263238;stroke-miterlimit:10;" d="M353.174,274.256l-20.41,49.175
				c-1.566,3.772-5.894,5.566-9.672,3.998l-70.144-29.114c4.356-5.191,10.304-9.047,16.934-10.523
				c10.267-2.281,21.98,0.497,30.771-5.28c7.093-4.656,10.56-13.988,18.352-17.346c3.922-1.687,8.397-1.575,12.582-0.745
				C339.116,265.913,346.81,269.607,353.174,274.256z"/>
			<path style="fill:#C6FF00;stroke:#263238;stroke-miterlimit:10;" d="M306.602,112.544c-2.714,1.988-4.476,4.998-5.953,8.013
				c-3.476,7.108-5.78,14.74-9.307,21.82c-3.53,7.073-8.579,13.797-15.749,17.132c-1.984,0.922-4.149,1.512-6.346,1.757
				l26.775-64.51c1.566-3.772,5.9-5.564,9.672-3.998l17.101,7.098C321.411,106.043,311.945,108.638,306.602,112.544z"/>
			<path style="opacity:0.1;" d="M380.163,147.923l-3.572,8.607c-1.076,2.593-4.059,3.826-6.652,2.75l-58.779-24.396
				c-2.15-0.893-3.361-3.084-3.106-5.28c3.061,0.038,6.853,2.613,9.378,3.642c4.094,1.68,8.224,3.257,12.395,4.738
				c13.096,4.647,27.467,8.316,40.728,4.169c1.546-0.484,3.086-1.09,4.518-1.859l2.342,0.972
				C380.009,142.342,381.242,145.325,380.163,147.923z"/>
			<path style="fill:none;stroke:#263238;stroke-miterlimit:10;" d="M380.163,147.923l-3.572,8.607
				c-1.076,2.593-4.059,3.826-6.652,2.75l-58.779-24.396c-2.15-0.893-3.361-3.084-3.106-5.28c0.048-0.462,0.165-0.926,0.351-1.374
				l3.572-8.607c1.079-2.599,4.061-3.831,6.659-2.753l58.779,24.397C380.009,142.342,381.242,145.325,380.163,147.923z"/>
		</g>
		<g>
			<path style="fill:#FFFFFF;" d="M426.507,235.432c0,0-14.642,10.881-19.462,14.367c0,0-23.566-15.07-31.92-22.896
				c-8.353-7.826-11.991-10.563-12.518-19.437c0,0-12.397,1.327-13.701-1.354c0,0,2.03-1.331,5.306-1.514
				c0,0-5.767-1.663-5.786-3.773l11.566-0.635c0,0-13.026-1.954-12.88-3.152c0.145-1.198,16.02-3.059,20.278,0
				c0,0,5.123,9.033,7.222,15.135c0,0,15.9,14.27,32.433,17.542l5.996-6.399L426.507,235.432z"/>
			<path style="fill:none;stroke:#263238;stroke-linecap:round;stroke-linejoin:round;stroke-miterlimit:10;" d="M413.04,223.315
				l-5.996,6.399c0,0-21.051-5.504-32.433-17.542c0,0-4.781-12.039-7.222-15.135c-2.441-3.096-21.261-1.376-20.278,0
				c0.983,1.376,11.582,3.593,11.582,3.593"/>
			<path style="fill:none;stroke:#263238;stroke-linecap:round;stroke-linejoin:round;stroke-miterlimit:10;" d="M426.507,234.847
				c0,0-9.917,9.622-19.462,14.951c0,0-24.373-13.671-36.422-27.573l-1.09-0.746c-4.594-3.144-7.219-8.455-6.926-14.014l0,0
				c-4.281,1.328-9.037,1.057-13.139-0.748c-0.269-0.118-0.579-0.312-0.562-0.605c0.012-0.208,0.191-0.364,0.366-0.478
				c1.351-0.88,3.329-0.965,4.94-1.037c3.018-0.134,5.791-0.984,8.764-0.445"/>
			<path style="fill:none;stroke:#263238;stroke-linecap:round;stroke-linejoin:round;stroke-miterlimit:10;" d="M363.933,200.729
				c-1.335-0.025-2.67-0.051-4.005-0.076c-3.596-0.068-7.192-0.136-10.788-0.204c-0.299-0.006-0.7,0.077-0.713,0.376
				c-0.006,0.138,0.083,0.259,0.172,0.364c0.842,0.997,1.991,1.679,3.125,2.325c0.644,0.367,1.302,0.733,2.005,0.956"/>
		</g>
		<path style="fill:none;stroke:#FFFFFF;stroke-linecap:round;stroke-linejoin:round;stroke-miterlimit:10;" d="M397.404,252.764
			c0,0-2.649,15.943,7.94,18.714"/>
		<path style="fill:none;stroke:#FFFFFF;stroke-linecap:round;stroke-linejoin:round;stroke-miterlimit:10;" d="M374.664,307.229
			c0,0,9.83-0.655,17.53,3.22"/>
		<path style="fill:none;stroke:#FFFFFF;stroke-linecap:round;stroke-linejoin:round;stroke-miterlimit:10;" d="M362.41,287.158
			c0,0-2.276-1.748-5.568-3.68"/>
		<path style="fill:none;stroke:#263238;stroke-linecap:round;stroke-linejoin:round;stroke-miterlimit:10;" d="M400.016,161.397
			c3.15-0.263,7.695-0.263,10.931,0.526"/>
		<path style="fill:none;stroke:#263238;stroke-linecap:round;stroke-linejoin:round;stroke-miterlimit:10;" d="M434.355,169.465
			c0,0,11.315,14.82,14.144,26.136c0,0-4.713,27.033-14.144,41.492c0,0-11.708-0.314-22.985-16.66c0,0,6.07-10.059,15.785-20.746"/>
		
			<line style="fill:none;stroke:#263238;stroke-linecap:round;stroke-linejoin:round;stroke-miterlimit:10;" x1="402.672" y1="252.776" x2="406.092" y2="249.799"/>
		<path style="fill:#263238;" d="M419.661,169.659c0,0,2.684,3.385,6.846,2.108c4.162-1.277,7.848-14.772,7.848-14.772
			S427.348,167.148,419.661,169.659z"/>
	</g>
</g>
<g id="Phone">
	<g>
		<path style="fill:#263238;" d="M320.022,147.403v248.659c0,5.59-4.533,10.122-10.122,10.122H185.952
			c-2.297,0-4.423-0.77-6.127-2.065c-2.425-1.845-3.995-4.771-3.995-8.057V147.403c0-5.59,4.533-10.122,10.122-10.122H309.9
			C315.489,137.281,320.022,141.813,320.022,147.403z"/>
		<path style="fill:#263238;" d="M324.17,147.403v248.659c0,5.59-4.533,10.122-10.122,10.122H190.1c-2.297,0-4.423-0.77-6.127-2.065
			c-2.425-1.845-3.995-4.771-3.995-8.057V147.403c0-5.59,4.533-10.122,10.122-10.122h123.948
			C319.637,137.281,324.17,141.813,324.17,147.403z"/>
		
			<line style="fill:none;stroke:#FFFFFF;stroke-width:2;stroke-linecap:round;stroke-linejoin:round;stroke-miterlimit:10;" x1="231.84" y1="148.387" x2="265.341" y2="148.387"/>
		<path style="opacity:0.1;fill:#FFFFFF;" d="M320.022,147.403v248.659c0,5.59-4.533,10.122-10.122,10.122H185.952
			c-2.297,0-4.423-0.77-6.127-2.065l108.199-266.839H309.9C315.489,137.281,320.022,141.813,320.022,147.403z"/>
		<path style="fill:none;stroke:#263238;stroke-miterlimit:10;" d="M320.022,147.403v248.659c0,5.59-4.533,10.122-10.122,10.122
			H185.952c-2.297,0-4.423-0.77-6.127-2.065c-2.425-1.845-3.995-4.771-3.995-8.057V147.403c0-5.59,4.533-10.122,10.122-10.122H309.9
			C315.489,137.281,320.022,141.813,320.022,147.403z"/>
		<path style="fill:#FFFFFF;stroke:#263238;stroke-miterlimit:10;" d="M299.092,383.453H196.953
			c-7.077,0-12.814-5.737-12.814-12.814V167.613c0-7.077,5.737-12.814,12.814-12.814h102.139c7.077,0,12.814,5.737,12.814,12.814
			v203.025C311.906,377.715,306.169,383.453,299.092,383.453z"/>
		<path style="fill:#263238;" d="M253.589,395.513c0,3.343-2.71,6.052-6.052,6.052c-3.343,0-6.052-2.71-6.052-6.052
			c0-3.343,2.71-6.052,6.052-6.052C250.879,389.46,253.589,392.17,253.589,395.513z"/>
		<polygon style="fill:#263238;" points="289.327,400.983 289.327,390.042 300.268,395.513 		"/>
		<rect x="196.435" y="390.651" style="fill:#263238;" width="9.932" height="9.932"/>
		<path style="fill:#263238;" d="M284.411,215.174l-1.565-3.444l-4.162,0.727l-0.295,3.794c-1.271,0.482-2.477,1.119-3.591,1.897
			l-3.306-1.952l-2.937,2.965l1.98,3.324c-1.297,1.915-2.181,4.079-2.597,6.354l-3.794,0.921v4.19l3.821,0.967
			c0.245,1.299,0.647,2.564,1.197,3.766l-2.587,2.993l2.394,3.435l3.683-1.409c0.945,0.917,1.993,1.724,3.121,2.403l-0.405,3.941
			l3.932,1.436l2.219-3.269c0.912,0.158,1.836,0.238,2.762,0.239c0.396,0,0.792,0,1.179-0.046l1.915,3.435l4.052-1.087l-0.055-3.886
			c1.214-0.574,2.355-1.291,3.398-2.136l3.49,1.676l2.689-3.204l-2.228-3.112c0.683-1.178,1.215-2.437,1.584-3.748l3.757-0.626
			l0.359-4.171l-3.545-1.261c-0.14-1.371-0.449-2.72-0.921-4.015l2.679-2.633l-2.099-3.628l-3.61,0.994
			c-0.893-1.044-1.914-1.972-3.039-2.762l0.681-3.683l-3.794-1.768l-2.385,2.891C287.089,215.352,285.753,215.182,284.411,215.174z
			 M284.338,221.371c5.777,0,10.46,4.683,10.46,10.46s-4.683,10.46-10.46,10.46s-10.46-4.683-10.46-10.46
			S278.56,221.371,284.338,221.371L284.338,221.371z"/>
		<path style="fill:#C6FF00;stroke:#263238;stroke-miterlimit:10;" d="M286.208,212.929l-1.565-3.444l-4.162,0.727l-0.295,3.794
			c-1.27,0.482-2.477,1.119-3.591,1.897l-3.306-1.952l-2.937,2.965l1.98,3.324c-1.296,1.915-2.181,4.079-2.597,6.354l-3.794,0.921
			v4.19l3.821,0.967c0.245,1.299,0.647,2.564,1.197,3.766l-2.588,2.993l2.394,3.435l3.683-1.409
			c0.945,0.917,1.993,1.724,3.122,2.403l-0.405,3.941l3.932,1.436l2.219-3.269c0.912,0.158,1.837,0.238,2.762,0.239
			c0.396,0,0.792,0,1.179-0.046l1.915,3.435l4.051-1.087l-0.055-3.886c1.214-0.574,2.355-1.291,3.398-2.136l3.49,1.676l2.689-3.204
			l-2.228-3.112c0.683-1.178,1.215-2.437,1.584-3.748l3.757-0.626l0.359-4.171l-3.545-1.262c-0.14-1.371-0.449-2.72-0.921-4.015
			l2.68-2.633l-2.1-3.628l-3.609,0.995c-0.894-1.044-1.914-1.972-3.039-2.762l0.681-3.683l-3.794-1.768l-2.385,2.891
			C288.885,213.106,287.549,212.936,286.208,212.929z M286.134,219.126c5.777,0,10.46,4.683,10.46,10.46
			c0,5.777-4.683,10.46-10.46,10.46c-5.777,0-10.46-4.683-10.46-10.46C275.674,223.809,280.357,219.126,286.134,219.126
			L286.134,219.126z"/>
		<path style="fill:#263238;" d="M223.879,179.566l-2.505-5.511l-6.66,1.164l-0.472,6.071c-2.033,0.772-3.963,1.791-5.747,3.036
			l-5.29-3.124l-4.701,4.745l3.168,5.32c-2.075,3.064-3.49,6.527-4.155,10.167l-6.071,1.474v6.705l6.115,1.547
			c0.392,2.079,1.035,4.103,1.916,6.027l-4.141,4.789l3.831,5.496l5.894-2.255c1.513,1.468,3.189,2.759,4.995,3.846l-0.648,6.307
			l6.292,2.299l3.551-5.231c1.46,0.253,2.939,0.381,4.421,0.383c0.634,0,1.267,0,1.886-0.074l3.065,5.496l6.484-1.739l-0.088-6.218
			c1.943-0.918,3.768-2.066,5.437-3.419l5.585,2.682l4.303-5.128l-3.566-4.981c1.093-1.885,1.944-3.9,2.535-5.997l6.012-1.002
			l0.575-6.675l-5.673-2.019c-0.224-2.194-0.719-4.352-1.474-6.425l4.288-4.214l-3.36-5.806l-5.776,1.591
			c-1.43-1.671-3.064-3.156-4.863-4.421l1.09-5.894l-6.071-2.829l-3.816,4.627C228.163,179.85,226.025,179.578,223.879,179.566z
			 M223.761,195.043c6.174,0,11.18,5.005,11.18,11.18c0,6.174-5.005,11.179-11.18,11.179c-6.174,0-11.18-5.005-11.18-11.179
			C212.581,200.048,217.587,195.043,223.761,195.043L223.761,195.043z"/>
		<path style="fill:#263238;" d="M274.559,321.576l-1.873-4.121l-4.98,0.871l-0.353,4.539c-1.52,0.577-2.964,1.339-4.297,2.27
			l-3.956-2.336l-3.515,3.548l2.369,3.978c-1.551,2.292-2.61,4.88-3.107,7.603l-4.54,1.102v5.013l4.573,1.157
			c0.293,1.555,0.774,3.068,1.432,4.507l-3.096,3.581l2.865,4.11l4.407-1.686c1.131,1.098,2.385,2.063,3.735,2.876l-0.485,4.716
			l4.705,1.719l2.655-3.912c1.092,0.189,2.198,0.285,3.306,0.286c0.474,0,0.948,0,1.41-0.055l2.292,4.11l4.848-1.3l-0.066-4.65
			c1.453-0.686,2.818-1.544,4.066-2.556l4.176,2.005l3.217-3.834l-2.666-3.724c0.817-1.41,1.454-2.916,1.895-4.484l4.495-0.749
			l0.43-4.991l-4.242-1.509c-0.168-1.641-0.538-3.254-1.102-4.804l3.206-3.151l-2.512-4.341l-4.319,1.19
			c-1.069-1.249-2.291-2.36-3.636-3.306l0.815-4.407l-4.54-2.115l-2.854,3.46C277.763,321.788,276.164,321.585,274.559,321.576z
			 M274.471,333.149c4.617,0,8.359,3.743,8.359,8.359c0,4.617-3.743,8.359-8.359,8.359s-8.359-3.743-8.359-8.359
			C266.111,336.891,269.854,333.149,274.471,333.149L274.471,333.149z"/>
		<path style="fill:#C6FF00;stroke:#263238;stroke-miterlimit:10;" d="M276.326,318.585l-1.873-4.121l-4.98,0.87l-0.353,4.54
			c-1.52,0.577-2.964,1.339-4.297,2.27l-3.956-2.336l-3.515,3.548l2.369,3.978c-1.551,2.292-2.609,4.88-3.107,7.603l-4.54,1.102
			v5.013l4.573,1.157c0.293,1.555,0.774,3.068,1.432,4.507l-3.096,3.581l2.865,4.11l4.407-1.686
			c1.131,1.098,2.385,2.063,3.735,2.876l-0.485,4.716l4.705,1.719l2.655-3.911c1.092,0.189,2.198,0.285,3.306,0.286
			c0.474,0,0.948,0,1.41-0.055l2.292,4.11l4.848-1.3l-0.066-4.65c1.453-0.686,2.818-1.544,4.066-2.556l4.176,2.005l3.217-3.834
			l-2.666-3.724c0.817-1.41,1.454-2.916,1.895-4.484l4.496-0.749l0.43-4.991l-4.242-1.509c-0.168-1.641-0.538-3.254-1.102-4.804
			l3.206-3.151l-2.512-4.341l-4.319,1.19c-1.069-1.249-2.291-2.36-3.636-3.306l0.815-4.407l-4.54-2.116l-2.854,3.46
			C279.529,318.797,277.931,318.594,276.326,318.585z M276.237,330.158c4.617,0,8.359,3.743,8.359,8.359
			c0,4.617-3.743,8.359-8.359,8.359c-4.617,0-8.359-3.743-8.359-8.359C267.878,333.901,271.62,330.158,276.237,330.158
			L276.237,330.158z"/>
		<path style="fill:#263238;" d="M309.968,286.197v-6.262c-5.688-0.981-9.504-6.387-8.523-12.075
			c0.751-4.359,4.165-8.832,8.523-9.584v-8.682l-3.849,0.681l-0.295,3.785c-1.271,0.486-2.477,1.126-3.591,1.906l-3.306-1.961
			l-2.965,2.956l1.961,3.333c-1.299,1.914-2.184,4.078-2.597,6.354l-3.794,0.921v4.19l3.821,0.921
			c0.247,1.302,0.649,2.569,1.197,3.775l-2.597,2.993l2.403,3.425l3.683-1.409c0.941,0.923,1.989,1.73,3.121,2.403l-0.405,3.95
			l3.932,1.427l2.219-3.26C309.286,286.123,309.627,286.16,309.968,286.197z"/>
		<path style="fill:#263238;" d="M221.067,257.684l-3.745-4.54l-5.957,2.776l1.07,5.783c-1.765,1.241-3.368,2.698-4.771,4.338
			l-5.668-1.561l-3.297,5.697l4.207,4.135c-0.74,2.034-1.226,4.151-1.446,6.304l-5.567,1.981l0.564,6.55l5.899,0.983
			c0.579,2.058,1.415,4.035,2.487,5.885l-3.499,4.887l4.222,5.032l5.48-2.632c1.638,1.328,3.429,2.454,5.335,3.355l-0.087,6.102
			l6.362,1.706l3.007-5.393c0.607,0.072,1.229,0.072,1.851,0.072c1.454-0.002,2.905-0.127,4.338-0.376l3.485,5.133l6.174-2.256
			l-0.636-6.188c1.772-1.067,3.417-2.333,4.902-3.774l5.783,2.212l3.759-5.393l-4.063-4.699c0.864-1.888,1.495-3.874,1.88-5.914
			l6-1.518v-6.579l-5.957-1.446c-0.653-3.572-2.042-6.97-4.077-9.977l3.109-5.22l-4.612-4.656l-5.191,3.065
			c-1.75-1.221-3.644-2.221-5.639-2.979l-0.463-5.957l-6.535-1.142l-2.458,5.408C225.206,256.901,223.109,257.168,221.067,257.684z
			 M227.428,266.62c9.072,0,16.425,7.354,16.425,16.425c0,9.072-7.354,16.425-16.425,16.425s-16.425-7.354-16.425-16.425
			C211.003,273.974,218.357,266.62,227.428,266.62L227.428,266.62z"/>
		<path style="fill:#C6FF00;stroke:#263238;stroke-miterlimit:10;" d="M217.828,255.87l-3.745-4.54l-5.957,2.776l1.07,5.783
			c-1.765,1.241-3.368,2.698-4.771,4.338l-5.668-1.562l-3.297,5.697l4.208,4.135c-0.74,2.034-1.226,4.151-1.446,6.304l-5.567,1.981
			l0.564,6.55l5.899,0.983c0.579,2.058,1.415,4.035,2.487,5.885l-3.499,4.887l4.222,5.032l5.48-2.632
			c1.638,1.328,3.429,2.454,5.335,3.355l-0.087,6.102l6.362,1.706l3.007-5.393c0.607,0.072,1.229,0.072,1.851,0.072
			c1.454-0.002,2.905-0.127,4.338-0.376l3.485,5.133l6.174-2.256l-0.636-6.188c1.772-1.067,3.417-2.333,4.902-3.774l5.784,2.212
			l3.759-5.393l-4.063-4.699c0.864-1.888,1.495-3.874,1.88-5.914l6-1.518v-6.579l-5.957-1.446c-0.653-3.572-2.042-6.97-4.077-9.977
			l3.109-5.22l-4.612-4.656l-5.191,3.065c-1.75-1.221-3.644-2.221-5.639-2.978l-0.463-5.957l-6.535-1.142l-2.458,5.408
			C221.968,255.086,219.871,255.354,217.828,255.87z M224.19,264.806c9.072,0,16.425,7.354,16.425,16.425
			c0,9.072-7.354,16.425-16.425,16.425c-9.071,0-16.425-7.354-16.425-16.425C207.765,272.16,215.119,264.806,224.19,264.806
			L224.19,264.806z"/>
		<path style="fill:#263238;" d="M185.801,367.266l3.485,5.118l6.174-2.241l-0.636-6.203c1.779-1.057,3.424-2.324,4.902-3.774
			l5.784,2.212l3.774-5.379l-4.077-4.699c0.861-1.894,1.492-3.884,1.88-5.928l6.001-1.446v-6.579l-5.957-1.446
			c-0.648-3.574-2.037-6.972-4.077-9.977l3.08-5.234l-4.656-4.641l-5.191,3.08c-1.75-1.225-3.644-2.231-5.639-2.993l-0.463-5.943
			l-6.044-1.07v15.298c6.844,1.18,12.204,6.54,13.384,13.384c1.54,8.932-4.452,17.421-13.384,18.96v9.832
			C184.673,367.54,185.208,367.483,185.801,367.266z"/>
		<path style="fill:#C6FF00;stroke:#263238;stroke-miterlimit:10;" d="M185.801,363.377l3.485,5.118l6.174-2.241l-0.636-6.203
			c1.779-1.057,3.424-2.324,4.902-3.774l5.784,2.212l3.774-5.379l-4.077-4.699c0.861-1.894,1.492-3.884,1.88-5.928l6.001-1.446
			v-6.579l-5.957-1.446c-0.648-3.574-2.037-6.972-4.077-9.977l3.08-5.234l-4.656-4.641l-5.191,3.08
			c-1.75-1.225-3.644-2.23-5.639-2.993l-0.463-5.943l-6.044-1.07v15.298c6.844,1.18,12.204,6.54,13.384,13.384
			c1.54,8.932-4.452,17.421-13.384,18.96v9.832C184.673,363.651,185.208,363.593,185.801,363.377z"/>
		<path style="fill:#C6FF00;stroke:#263238;stroke-miterlimit:10;" d="M222.082,177.131l-2.505-5.511l-6.66,1.164l-0.472,6.071
			c-2.033,0.772-3.963,1.791-5.747,3.036l-5.29-3.124l-4.701,4.745l3.168,5.32c-2.075,3.065-3.49,6.527-4.155,10.167l-6.071,1.474
			v6.705l6.115,1.547c0.392,2.079,1.035,4.103,1.916,6.027l-4.141,4.789l3.831,5.496l5.894-2.255
			c1.513,1.468,3.189,2.758,4.995,3.846l-0.648,6.307l6.292,2.299l3.551-5.231c1.46,0.253,2.939,0.382,4.421,0.383
			c0.634,0,1.267,0,1.886-0.074l3.065,5.496l6.484-1.739l-0.088-6.218c1.943-0.918,3.768-2.066,5.437-3.419l5.585,2.682l4.303-5.128
			l-3.566-4.981c1.093-1.885,1.944-3.9,2.535-5.997l6.012-1.002l0.575-6.675l-5.673-2.019c-0.224-2.194-0.719-4.352-1.474-6.425
			l4.288-4.214l-3.36-5.806l-5.776,1.591c-1.43-1.671-3.064-3.156-4.863-4.421l1.09-5.894l-6.071-2.829l-3.816,4.627
			C226.367,177.415,224.229,177.143,222.082,177.131z M221.964,192.608c6.174,0,11.179,5.005,11.179,11.179
			s-5.005,11.18-11.179,11.18c-6.174,0-11.18-5.005-11.18-11.18S215.79,192.608,221.964,192.608L221.964,192.608z"/>
		<path style="fill:#C6FF00;stroke:#263238;stroke-miterlimit:10;" d="M311.906,284.603v-6.261
			c-5.688-0.981-9.504-6.387-8.524-12.075c0.751-4.358,4.165-7.772,8.524-8.524v-9.742l-3.849,0.681l-0.295,3.785
			c-1.271,0.486-2.477,1.126-3.591,1.906l-3.306-1.961l-2.965,2.956l1.961,3.333c-1.299,1.914-2.184,4.078-2.597,6.354l-3.794,0.921
			v4.19l3.821,0.921c0.247,1.302,0.649,2.569,1.197,3.775l-2.597,2.993l2.403,3.425l3.683-1.409c0.941,0.923,1.989,1.73,3.121,2.403
			l-0.405,3.95l3.932,1.427l2.219-3.26C311.225,284.529,311.566,284.566,311.906,284.603z"/>
		<circle style="fill:none;stroke:#FFFFFF;stroke-miterlimit:10;" cx="221.876" cy="203.788" r="16.218"/>
		<circle style="fill:none;stroke:#FFFFFF;stroke-miterlimit:10;" cx="223.761" cy="281.231" r="21.212"/>
		<circle style="fill:none;stroke:#263238;stroke-miterlimit:10;" cx="276.171" cy="338.462" r="12.806"/>
	</g>
</g>
<g id="Character_1">
	<g>
		<path style="fill:#263238;" d="M92.671,167.011c3.2,2.158,6.788,3.838,9.467,6.617c3.145,3.263,4.745,7.816,4.968,12.343
			c0.223,4.527-0.841,9.039-2.456,13.273c-0.954,2.5-2.154,4.999-4.157,6.774c-1.888,1.673-4.35,2.569-6.825,3.064
			c-4.828,0.966-9.88,0.524-14.598-0.885c-4.159-1.242-8.162-3.28-11.163-6.415c-2.389-2.496-4.061-5.591-5.428-8.764
			c-2.118-4.917-3.577-10.136-4.089-15.465c-0.494-5.15-0.105-10.339,0.284-15.498c0.321-4.258,0.643-8.516,0.965-12.774
			c0.175-2.318-0.093-8.329,2.838-9.29c2.417-0.792,6.171,3.226,7.798,4.687c5.097,4.58,9.253,10.074,13.983,15.01
			C86.834,162.376,89.578,164.925,92.671,167.011z"/>
		<path style="fill:#C6FF00;" d="M78.851,185.993c0,0,11.913,0.876,17.942-2.87c6.029-3.747,19.699,11.53,19.699,11.53l-4.713,79.94
			c0,0-11.977,2.533-19.372-0.987c-7.395-3.519-11.027-3.349-12.802-7.569c-1.775-4.22-1.802-11.233-9.443-17.337
			c-7.642-6.104-7.648-9.279-10.014-13.132c-2.366-3.853-10.008-9.214-10.535-13.473c-0.527-4.26,0.264-14.988,0.264-14.988
			l14.596-11.365C64.471,195.742,68.051,183.127,78.851,185.993z"/>
		<path style="opacity:0.1;" d="M88.171,197.368c0.459,5.252,1.567,10.447,3.292,15.428c-6.323,0.159-12.6,1.887-18.113,4.986
			c4.251,6.45,9.578,12.188,15.694,16.908c1.406-1.805,3.441-3.109,5.668-3.632c0.864-0.203,1.756-0.293,2.598-0.574
			c0.799-0.266,1.532-0.698,2.238-1.158c7.838-5.099,12.915-14.2,13.136-23.549c0.131-5.517-1.329-10.989-3.607-16.015
			c-1.854-4.091-4.683-8.266-9.04-9.356c-2.271-0.568-4.666-0.209-6.948,0.31c-1.782,0.405-4.399,0.74-5.95,1.738
			c-2.415,1.555-1.74,1.04-0.94,3.706C87.331,189.936,87.827,193.428,88.171,197.368z"/>
		<path style="fill:#FFFFFF;" d="M71.019,147.476c0,0,6.299,10.892,8.141,16.201c1.842,5.309,1.428,11.255,1.053,13.393
			c0,0,0.355,3.672,2.733,8.242l3.867,0.68c0,0,5.347,11.225,5.671,27.786c0,0-9.123-11.539-15.444-14.559
			c-6.321-3.021-5.022-2.686-5.022-2.686s-5.163-9.099-7.861-11.887c-2.698-2.787-14.369,6.294-14.369,6.294l-12.144-19.393
			l5.991-11.297l8.132-6.309l7.958-6.467h4.433H71.019z"/>
		<g>
			<path style="fill:#FFFFFF;stroke:#263238;stroke-miterlimit:10;" d="M119.375,421.361c3.967,5.152,9.979,8.685,16.41,9.645
				c1.511,0.225,3.425,0.104,4.059-1.286c0.279-0.612,0.217-1.32,0.105-1.983c-1.457-8.659-9.741-14.293-14.18-21.868
				c-1.255-2.142-2.922-7.666-5.656-7.274c-1.241,0.178-4.688,3.949-5.314,5.16C112.136,408.915,116.24,417.29,119.375,421.361z"/>
			<path style="fill:#FFFFFF;stroke:#263238;stroke-miterlimit:10;" d="M114.8,403.755c0,0,0.67,9.498,6.713,15.038
				c6.043,5.54,7.664,8.655,18.437,8.944"/>
		</g>
		<g>
			<path style="fill:#FFFFFF;stroke:#263238;stroke-miterlimit:10;" d="M146.989,386.385c0,0-1.893,10.786,2.208,16.218
				s8.202,4.269,14.827,5.481c4.397,0.805,8.062,3.949,12.74,2.789c4.195-1.04,1.58-4.081-0.418-5.753
				c-4.405-3.686-9.611-6.317-14.055-9.971c-7.732-6.358-6.377-11.971-6.377-11.971L146.989,386.385z"/>
			<path style="fill:none;stroke:#263238;stroke-miterlimit:10;" d="M147.747,399.89c1.776,1.15,2.755,2.634,4.605,3.663
				c2.655,1.476,5.876,1.261,8.899,1.553c1.775,0.172,3.531,0.532,5.23,1.073c1.845,0.587,3.642,1.392,5.563,1.627
				c1.861,0.228,3.786-0.102,5.465-0.937"/>
		</g>
		<path style="fill:#263238;" d="M93.573,273.624c0,0-7.848,26.292,0,53.761c7.848,27.469,0.392,44.343,17.659,78.484
			c0,0,8.081,6.671,13.655-3.139c0,0-1.584-38.065-4.284-47.09c-2.7-9.026,8.892-28.725,5.058-47.522
			c-3.834-18.797-12.075-34.493-12.075-34.493S100.636,276.37,93.573,273.624z"/>
		<path style="fill:#263238;" d="M132.212,337.928c0,0,5.745,38.207,12.927,52.57c0,0,8.331,6.033,13.502-1.724
			c0,0,0.575-63.486-4.596-68.37C148.874,315.521,132.212,337.928,132.212,337.928z"/>
		<g>
			<path style="fill:#FFFFFF;" d="M222.169,88.535l33.97,224.724c0.712,4.707-2.528,9.1-7.235,9.812l-122.016,18.444
				c-2.3,0.348-4.532-0.247-6.286-1.498c-1.837-1.307-3.162-3.33-3.526-5.737l-33.97-224.724c-0.712-4.707,2.528-9.1,7.235-9.812
				L212.357,81.3c3.57-0.54,6.968,1.198,8.703,4.125C221.615,86.354,221.997,87.398,222.169,88.535z"/>
			
				<rect x="195.892" y="105.588" transform="matrix(0.9888 -0.1495 0.1495 0.9888 -13.5938 31.6797)" style="fill:#263238;" width="16.164" height="1.388"/>
			
				<rect x="195.296" y="101.641" transform="matrix(0.9888 -0.1495 0.1495 0.9888 -13.0111 31.5477)" style="fill:#263238;" width="16.164" height="1.389"/>
			
				<rect x="194.699" y="97.694" transform="matrix(0.9888 -0.1495 0.1495 0.9888 -12.4277 31.414)" style="fill:#263238;" width="16.164" height="1.388"/>
			<path style="fill:#C6FF00;" d="M218.866,250.819l1.621,10.724c0.489,3.238-1.734,6.253-4.972,6.743l-73.241,11.071
				c-3.238,0.489-6.26-1.733-6.75-4.971l-1.621-10.724c-0.49-3.238,1.74-6.261,4.978-6.751l73.241-11.071
				C215.36,245.351,218.376,247.581,218.866,250.819z"/>
			<g>
				<path style="fill:#263238;" d="M165.024,261.272l-1.137,6.621l-1.243,0.188l-2.264-4.431l-0.88,4.905l-1.252,0.189l-3.043-5.989
					l1.216-0.185l2.292,4.556l0.905-5.039l1.081-0.163l2.323,4.578l0.884-5.063L165.024,261.272z"/>
				<path style="fill:#263238;" d="M170.661,264.777l-3.774,0.57c0.241,0.682,0.894,1.045,1.732,0.918
					c0.541-0.082,0.939-0.317,1.228-0.721l0.709,0.603c-0.355,0.578-0.99,0.951-1.818,1.076c-1.613,0.244-2.814-0.634-3.031-2.066
					c-0.216-1.433,0.683-2.618,2.115-2.834c1.405-0.213,2.58,0.614,2.807,2.117C170.642,264.531,170.654,264.669,170.661,264.777z
					 M166.765,264.602l2.729-0.413c-0.195-0.68-0.798-1.076-1.537-0.964C167.228,263.335,166.767,263.883,166.765,264.602z"/>
				<path style="fill:#263238;" d="M171.061,259.973l1.126-0.171l1.011,6.684l-1.126,0.171L171.061,259.973z"/>
				<path style="fill:#263238;" d="M173.915,263.917c-0.218-1.441,0.709-2.622,2.232-2.852c0.936-0.142,1.743,0.133,2.222,0.806
					l-0.788,0.636c-0.357-0.415-0.821-0.557-1.299-0.485c-0.828,0.126-1.372,0.797-1.232,1.725c0.142,0.938,0.857,1.409,1.687,1.283
					c0.478-0.071,0.878-0.343,1.097-0.847l0.941,0.373c-0.26,0.777-0.947,1.295-1.883,1.437
					C175.369,266.222,174.132,265.358,173.915,263.917z"/>
				<path style="fill:#263238;" d="M179.077,263.137c-0.218-1.441,0.709-2.623,2.187-2.846c1.495-0.226,2.721,0.63,2.938,2.071
					c0.218,1.441-0.699,2.629-2.194,2.855C180.531,265.441,179.295,264.578,179.077,263.137z M183.068,262.533
					c-0.139-0.919-0.84-1.411-1.66-1.287c-0.81,0.122-1.335,0.8-1.196,1.719c0.139,0.919,0.839,1.411,1.65,1.289
					C182.683,264.13,183.207,263.452,183.068,262.533z"/>
				<path style="fill:#263238;" d="M193.275,260.632l0.417,2.756l-1.126,0.17l-0.395-2.612c-0.129-0.855-0.588-1.209-1.273-1.105
					c-0.739,0.111-1.179,0.674-1.034,1.629l0.369,2.441l-1.126,0.17l-0.395-2.611c-0.129-0.855-0.588-1.21-1.273-1.107
					c-0.747,0.113-1.179,0.675-1.034,1.63l0.369,2.441l-1.126,0.17l-0.727-4.81l1.071-0.162l0.093,0.612
					c0.295-0.487,0.818-0.806,1.476-0.905c0.703-0.107,1.327,0.066,1.743,0.557c0.312-0.554,0.914-0.958,1.68-1.074
					C192.146,258.647,193.056,259.182,193.275,260.632z"/>
				<path style="fill:#263238;" d="M199.375,260.436l-3.774,0.571c0.241,0.682,0.895,1.044,1.732,0.917
					c0.54-0.081,0.938-0.317,1.227-0.721l0.708,0.603c-0.355,0.578-0.99,0.95-1.818,1.075c-1.613,0.244-2.814-0.633-3.031-2.065
					c-0.217-1.433,0.683-2.618,2.115-2.835c1.405-0.213,2.58,0.615,2.807,2.117C199.356,260.191,199.368,260.328,199.375,260.436z
					 M195.479,260.261l2.729-0.413c-0.195-0.68-0.798-1.076-1.537-0.964C195.942,258.994,195.481,259.542,195.479,260.261z"/>
			</g>
			
				<rect x="124.012" y="291.814" transform="matrix(0.9888 -0.1495 0.1495 0.9888 -41.7269 30.4904)" style="fill:#263238;" width="115.95" height="2.075"/>
			
				<rect x="124.855" y="297.389" transform="matrix(0.9888 -0.1495 0.1495 0.9888 -42.5504 30.6788)" style="fill:#263238;" width="115.95" height="2.075"/>
			
				<rect x="125.697" y="302.963" transform="matrix(0.9888 -0.1495 0.1495 0.9888 -43.3742 30.8673)" style="fill:#263238;" width="115.95" height="2.075"/>
			
				<rect x="126.54" y="308.538" transform="matrix(0.9888 -0.1495 0.1495 0.9888 -44.1982 31.0561)" style="fill:#263238;" width="115.95" height="2.075"/>
			<path style="opacity:0.1;" d="M218.866,250.819l1.621,10.724c0.489,3.238-1.734,6.253-4.972,6.743l-73.241,11.071
				c-3.238,0.489-6.26-1.733-6.75-4.971l-0.018-0.12c13.481,0.152,60.547-1.291,75.678-28.285l0.937-0.142
				C215.36,245.351,218.376,247.581,218.866,250.819z"/>
			<path style="fill:none;stroke:#263238;stroke-linecap:round;stroke-linejoin:round;stroke-miterlimit:10;" d="M218.866,250.819
				l1.621,10.724c0.489,3.238-1.734,6.253-4.972,6.743l-73.241,11.071c-3.238,0.489-6.26-1.733-6.75-4.971l-1.621-10.724
				c-0.49-3.238,1.74-6.261,4.978-6.751l73.241-11.071C215.36,245.351,218.376,247.581,218.866,250.819z"/>
			<g>
				<path style="fill:#263238;" d="M166.108,234.34c0.147,0.971-0.521,1.877-1.492,2.024c-0.971,0.147-1.877-0.521-2.024-1.492
					c-0.147-0.971,0.521-1.877,1.492-2.024C165.055,232.701,165.961,233.369,166.108,234.34z"/>
				<path style="fill:#263238;" d="M174.503,233.071c0.147,0.971-0.521,1.877-1.492,2.024c-0.971,0.147-1.877-0.521-2.024-1.492
					c-0.147-0.971,0.521-1.877,1.492-2.024C173.451,231.431,174.357,232.1,174.503,233.071z"/>
				<path style="fill:#263238;" d="M182.899,231.802c0.147,0.971-0.521,1.877-1.492,2.024c-0.971,0.147-1.877-0.521-2.024-1.492
					c-0.147-0.971,0.521-1.877,1.492-2.024C181.846,230.162,182.752,230.831,182.899,231.802z"/>
			</g>
			<path style="fill:#FFFFFF;stroke:#263238;stroke-miterlimit:10;" d="M156.701,113.428l-55.501,8.39
				c-2.042,0.309-3.948-1.097-4.257-3.139l-0.179-1.185c-0.309-2.042,1.097-3.948,3.139-4.257l55.501-8.39
				c2.042-0.309,3.948,1.097,4.257,3.139l0.179,1.185C160.149,111.213,158.744,113.119,156.701,113.428z"/>
			
				<line style="fill:none;stroke:#263238;stroke-linecap:round;stroke-linejoin:round;stroke-miterlimit:10;" x1="102.749" y1="119.48" x2="102.103" y2="115.201"/>
			<g>
				<g>
					
						<rect x="106.521" y="128.332" transform="matrix(0.9888 -0.1495 0.1495 0.9888 -24.7109 26.5684)" style="fill:#C6FF00;" width="115.763" height="98.704"/>
					
						<rect x="106.521" y="128.332" transform="matrix(0.9888 -0.1495 0.1495 0.9888 -24.7109 26.5684)" style="opacity:0.5;fill:#FFFFFF;" width="115.763" height="98.704"/>
					
						<rect x="106.521" y="128.332" transform="matrix(0.9888 -0.1495 0.1495 0.9888 -24.7109 26.5684)" style="fill:none;stroke:#263238;stroke-miterlimit:10;" width="115.763" height="98.704"/>
				</g>
				
					<ellipse transform="matrix(0.5888 -0.8083 0.8083 0.5888 -36.7261 218.9771)" style="fill:#C6FF00;stroke:#263238;stroke-miterlimit:10;" cx="196.866" cy="145.586" rx="11.179" ry="11.179"/>
				<g>
					<path style="fill:#C6FF00;" d="M220.824,163.678l8.186,54.153l-114.463,17.303l-5.119-33.861
						c3.498-7.948,8.708-17.209,14.795-19.904c11.283-4.99,22.893,28.271,44.311,22.843
						C189.952,198.784,193.944,163.919,220.824,163.678z"/>
					<path style="opacity:0.1;" d="M220.824,163.678l8.186,54.153l-114.463,17.303l-5.119-33.861
						c3.498-7.948,8.708-17.209,14.795-19.904c11.283-4.99,22.893,28.271,44.311,22.843
						C189.952,198.784,193.944,163.919,220.824,163.678z"/>
					<path style="fill:none;stroke:#263238;stroke-miterlimit:10;" d="M220.824,163.678l8.186,54.153l-114.463,17.303l-5.119-33.861
						c3.498-7.948,8.708-17.209,14.795-19.904c11.283-4.99,22.893,28.271,44.311,22.843
						C189.952,198.784,193.944,163.919,220.824,163.678z"/>
				</g>
			</g>
			<path style="opacity:0.1;" d="M222.169,88.535l33.97,224.724c0.712,4.707-2.528,9.1-7.235,9.812l-122.016,18.444
				c-2.3,0.348-4.532-0.247-6.286-1.498c27.189-24.11,112.901-112.124,100.457-254.592
				C221.615,86.354,221.997,87.398,222.169,88.535z"/>
			<path style="fill:none;stroke:#263238;stroke-miterlimit:10;" d="M222.169,88.535l33.97,224.724
				c0.712,4.707-2.528,9.1-7.235,9.812l-122.016,18.444c-2.3,0.348-4.532-0.247-6.286-1.498c-1.837-1.307-3.162-3.33-3.526-5.737
				l-33.97-224.724c-0.712-4.707,2.528-9.1,7.235-9.812L212.357,81.3c3.57-0.54,6.968,1.198,8.703,4.125
				C221.615,86.354,221.997,87.398,222.169,88.535z"/>
		</g>
		<path style="fill:none;stroke:#263238;stroke-linecap:round;stroke-linejoin:round;stroke-miterlimit:10;" d="M72.28,149.322
			c0,0,6.608,13.014,8.262,17.774c1.653,4.759-0.035,12.618-4.186,16.157c-4.151,3.539-8.803,3.314-13.968,0.757
			c-5.163-2.555-10.402-6.452-10.407-6.456c-0.104-0.077-0.927,0.085-1.078,0.083c-1.019-0.014-5.037-1.563-6.4-4.09
			c-3.376-6.264,4.075-4.03,5.58-2.997"/>
		<path style="fill:none;stroke:#263238;stroke-linecap:round;stroke-linejoin:round;stroke-miterlimit:10;" d="M71.019,162.664
			c0.69,1.605,1.881,2.991,3.363,3.916c0.601,0.375,1.286,0.714,1.603,1.348c0.336,0.672,0.147,1.512-0.281,2.13
			c-0.428,0.618-1.058,1.061-1.674,1.491"/>
		<path style="fill:none;stroke:#263238;stroke-linecap:round;stroke-linejoin:round;stroke-miterlimit:10;" d="M68.207,176.546
			c0,0,2.351,1.148,4.724,0.046"/>
		<path style="fill:#263238;" d="M66.71,166.218c0.413,0.874,0.443,1.726,0.065,1.905c-0.377,0.178-1.018-0.385-1.431-1.259
			c-0.413-0.873-0.443-1.726-0.065-1.905C65.656,164.781,66.297,165.344,66.71,166.218z"/>
		<path style="fill:#263238;" d="M74.329,161.09c0.413,0.874,0.443,1.726,0.065,1.905c-0.377,0.178-1.018-0.385-1.431-1.258
			c-0.413-0.874-0.443-1.726-0.065-1.905C73.274,159.653,73.915,160.216,74.329,161.09z"/>
		<path style="fill:none;stroke:#263238;stroke-linecap:round;stroke-linejoin:round;stroke-miterlimit:10;" d="M64.471,161.186
			c0,0-3.153,0.009-3.909,3.833"/>
		<path style="fill:none;stroke:#263238;stroke-linecap:round;stroke-linejoin:round;stroke-miterlimit:10;" d="M70.103,157.799
			c0,0,1.132-2.533,3.233-1.035"/>
		<path style="fill:#263238;" d="M49.518,170.24c0.182,0.133,9.626-4.881,10.728-19.089c0,0,5.418,4.136,14.239,0.692
			c0,0-7.255-14.952-17.883-12.89c-10.628,2.062-19.888,9.087-20.25,21.534c-0.257,8.854,1.606,17.662,1.684,26.518
			c0.04,4.482-0.253,9.038-1.595,13.341c-2.249,7.213-7.333,12.04-5.147,20.19c1.617,6.027,6.959,13.001,13.407,12.161
			c2.717-0.354,8.953-1.941,9.993-3.193c-2.182-3.247-3.14-6.227-3.224-7.409c-0.519-7.316,1.175-10.109,1.175-10.109l16.926-19.541
			l-4.707-7.386l-12.884-7.505c0,0-5.34,0.612-8.273-6.005C43.16,167.622,49.518,170.24,49.518,170.24z"/>
		<path style="fill:none;stroke:#263238;stroke-linecap:round;stroke-linejoin:round;stroke-miterlimit:10;" d="M89.389,235.568
			c0,0-12.887-9.854-18.581-20.789"/>
		<path style="fill:none;stroke:#263238;stroke-linecap:round;stroke-linejoin:round;stroke-miterlimit:10;" d="M96.793,231.489
			c-0.344-0.92-1.683-1.011-2.531-0.515c-0.848,0.496-1.415,1.356-2.188,1.962c-0.575,0.451-1.268,0.764-1.741,1.322
			c-0.52,0.614-0.702,1.438-0.837,2.231c-0.572,3.352-0.617,6.794-0.14,10.161"/>
		<path style="fill:none;stroke:#263238;stroke-linecap:round;stroke-linejoin:round;stroke-miterlimit:10;" d="M85.453,246.649
			c0.274-2.607,0.918-5.175,1.906-7.603"/>
		<path style="fill:none;stroke:#263238;stroke-linecap:round;stroke-linejoin:round;stroke-miterlimit:10;" d="M102.098,249.564
			c1.116,0.927,1.138,2.875,0.045,3.828c-0.412,0.359-0.928,0.574-1.387,0.872c-1.414,0.92-2.188,2.565-3.477,3.654
			c-1.778,1.503-4.753,1.626-6.316-0.1c-1.315-1.453-1.642-4.541-1.574-6.499"/>
		<path style="fill:none;stroke:#263238;stroke-linecap:round;stroke-linejoin:round;stroke-miterlimit:10;" d="M90.199,257.9
			c-8.388,0.992-35.503-28.397-35.503-28.397c-4.049-4.96-4.129-12.594-1.109-18.267c2.891-5.431,8.596-8.831,11.936-13.998"/>
		<path style="fill:none;stroke:#263238;stroke-linecap:round;stroke-linejoin:round;stroke-miterlimit:10;" d="M65.585,185.683
			c2.411,3.102,4.26,5.986,5.223,9.795"/>
		<path style="fill:none;stroke:#263238;stroke-linecap:round;stroke-linejoin:round;stroke-miterlimit:10;" d="M80.214,177.07
			c-0.028,4.115,1.734,7.576,4.684,10.496"/>
		<path style="fill:none;stroke:#263238;stroke-linecap:round;stroke-linejoin:round;stroke-miterlimit:10;" d="M67.193,194.258
			c-1.995,2.075-1.156,6.39,1.353,7.802c2.659,1.497,6.047,0.169,9.012,0.89c0.405,0.098,0.816,0.245,1.111,0.538
			c0.527,0.524,0.551,1.352,0.569,2.095c0.038,1.568,0.311,3.339,1.598,4.234c0.79,0.549,1.797,0.641,2.734,0.86
			c5.112,1.193,8.548,4.323,11.151,8.882"/>
		<path style="fill:none;stroke:#263238;stroke-linecap:round;stroke-linejoin:round;stroke-miterlimit:10;" d="M70.161,195.742
			c11.713,4.658,21.259,14.489,25.571,26.334"/>
		<path style="fill:none;stroke:#263238;stroke-linecap:round;stroke-linejoin:round;stroke-miterlimit:10;" d="M59.603,234.774
			c2.969,9.712,13.926,14.456,17.32,24.028c0.863,2.434,1.222,5.104,2.682,7.234c1.866,2.723,5.148,4.034,8.238,5.198
			c2.102,0.792,4.534,2.566,6.636,3.358"/>
		<path style="fill:none;stroke:#263238;stroke-linecap:round;stroke-linejoin:round;stroke-miterlimit:10;" d="M104.3,275.071
			c-2.636-0.335-4.685-2.41-6.326-4.5c-1.64-2.09-3.197-4.404-5.569-5.603"/>
		<path style="fill:none;stroke:#263238;stroke-linecap:round;stroke-linejoin:round;stroke-miterlimit:10;" d="M83.151,185.586
			c3.691,0.68,6.968,0.386,10.48-0.939"/>
		<path style="fill:none;stroke:#263238;stroke-linecap:round;stroke-linejoin:round;stroke-miterlimit:10;" d="M87.212,185.993
			c2.877,8.767,5.873,19.451,5.219,28.786"/>
		<g>
			<path style="fill:#FFFFFF;" d="M94.721,233.189c0,0,0.398,11.983,5.649,17.112c0,0,12.957-12.834,18.482-20.768
				c5.525-7.934,11.684-17.349,13.486-23.934s-2.789-8.361-2.789-8.361s-1.377-3.742-2.787-3.317c-1.41,0.424-3.75,7.287-3.75,7.287
				s-1.467-3.538-4.374,1.627c-2.907,5.164-4.301,7.521-2.295,12.216l-11.42,11.142L94.721,233.189z"/>
			<g>
				<path style="fill:none;stroke:#263238;stroke-linecap:round;stroke-linejoin:round;stroke-miterlimit:10;" d="M121.392,205.532
					c0,0,2.467-6.821,0-5.349c-2.467,1.473-4.79,5.494-5.66,7.816c-0.871,2.322,0.612,7.052,0.612,7.052
					c-6.171,8.228-15.84,14.588-21.622,18.138"/>
				<path style="fill:none;stroke:#263238;stroke-linecap:round;stroke-linejoin:round;stroke-miterlimit:10;" d="M121.702,204.604
					c0,0,3.463-9.522,5.06-10.683s1.596,2.612,1.596,2.612s2.467,1.183,2.903,2.623c0.435,1.44,1.596,2.509,1.306,5.458
					c-0.29,2.949-7.681,16.013-7.681,16.013c-2.416,5.133-14.795,20.375-24.516,29.674"/>
				<path style="fill:none;stroke:#263238;stroke-linecap:round;stroke-linejoin:round;stroke-miterlimit:10;" d="M128.358,196.533
					c0,0-0.578,4.306-1.06,5.63"/>
			</g>
		</g>
		<path style="fill:none;stroke:#263238;stroke-linecap:round;stroke-linejoin:round;stroke-miterlimit:10;" d="M95.027,232.867
			c-0.508,0.336-0.563,1.048-0.547,1.657c0.174,6.296,2.603,12.507,6.748,17.249"/>
		<path style="fill:#263238;" d="M50.152,230.676"/>
		<path style="opacity:0.2;fill:none;stroke:#FFFFFF;stroke-linecap:round;stroke-linejoin:round;stroke-miterlimit:10;" d="
			M42.365,173.188c1.925,7.064,2.53,14.486,1.774,21.768c-0.583,5.621-1.968,11.189-1.781,16.837
			c0.187,5.648,2.306,11.651,7.099,14.645"/>
		<path style="opacity:0.2;fill:none;stroke:#FFFFFF;stroke-linecap:round;stroke-linejoin:round;stroke-miterlimit:10;" d="
			M46.881,165.08c3.095-5.454,5.739-11.164,7.898-17.051"/>
		<path style="opacity:0.2;fill:none;stroke:#FFFFFF;stroke-linecap:round;stroke-linejoin:round;stroke-miterlimit:10;" d="
			M43.324,164.12c2.443-5.848,1.926-12.539,3.914-18.556"/>
		<path style="fill:#263238;" d="M67.572,185.762c0,0,6.683,3.153,10.048,1.805c3.365-1.348,1.95-8.834,1.95-8.834
			S76.204,187.162,67.572,185.762z"/>
	</g>
</g>
</svg>
