<?xml version="1.0" encoding="utf-8"?>
<!-- Generator: Adobe Illustrator 27.5.0, SVG Export Plug-In . SVG Version: 6.00 Build 0)  -->
<svg version="1.1" xmlns="http://www.w3.org/2000/svg" xmlns:xlink="http://www.w3.org/1999/xlink" x="0px" y="0px"
	 viewBox="0 0 750 500" style="enable-background:new 0 0 750 500;" xml:space="preserve">
<g id="BACKGROUND">
</g>
<g id="OBJECTS">
	<g>
		<path style="fill:#FFB900;" d="M677.804,342.862c0.952-1.587-0.635-1.905-2.54-7.619c-1.711-5.134-5.729-6.429-9.29-15.158
			c-7.093,3.992-22.328,3.94-27.259,3.529c-5.698-0.475-14.245,2.849-13.771,5.223c0.475,2.374,1.425,2.374,7.123,3.799
			c5.698,1.424,15.195,1.424,22.318,1.899c1.208,0.081,2.37,0.251,3.466,0.504c-1.967-4.221-2.646-9.073-0.046-10.273
			c4.127-1.905,9.523,1.27,10.793,5.397c1.27,4.127,4.127,13.967,5.079,15.872C674.629,347.941,676.851,344.45,677.804,342.862z"/>
		<path style="fill:#FFB900;" d="M688.372,364.952v-5.122c-2.585-1.276-5.05-3.317-7.394-3.317c-3.809,0-6.031,2.222-5.079,4.762
			C676.506,362.893,682.144,363.353,688.372,364.952z"/>
		<path style="fill:#FFB900;" d="M648.281,351.433c4.127,0.952,14.285,4.127,18.412,5.079c4.127,0.952,6.666,1.587,6.666-2.222
			c0-2.906-3.878-7.285-7.691-10.61c-0.018,0.843-0.132,1.749-0.362,2.728c-1.899,8.072-15.195,5.698-26.591-1.899
			c-4.134-2.756-7.139-3.57-9.296-3.495c2.274,6.993,7.766,26.393,15.303,69.624h14.776c4.223-22.789,7.291-33.562,8.647-37.732
			c-1.442-0.051-3.451,0.494-6.215,2.336c-7.619,5.079-16.507,6.666-17.777,1.27c-1.27-5.397,2.539-7.619,7.301-7.936
			c4.762-0.317,11.11-0.317,14.92-1.27c3.809-0.952,4.444-0.952,4.762-2.54c0.318-1.587-5.397-3.809-9.206-3.492
			c-3.809,0.318-16.824,0.318-19.999-3.809C638.758,353.338,644.154,350.481,648.281,351.433z"/>
		<path style="fill:#FFB900;" d="M688.372,382.463v-10.549c-5.663-3.992-12.156-4.926-12.156-4.926s5.397,6.031,9.523,12.38
			C686.469,380.491,687.38,381.513,688.372,382.463z"/>
		<path style="fill:#FFB900;" d="M680.343,378.416c-2.857-5.079-5.396-6.984-5.396-6.984s2.539,7.301,4.762,17.459
			c2.222,10.158,0.635,15.237-3.174,14.285c-3.809-0.952-4.762-1.905-4.762-10.158c0-8.254-0.317-18.094-0.317-18.094
			s-0.007-0.018-0.023-0.051c-1.389,4.482-4.275,15.055-8.143,35.764h25.083v-14.779
			C685.402,391.876,682.872,382.912,680.343,378.416z"/>
		<path style="fill:#FFB900;" d="M624.504,343.957c-0.023,0.049-0.034,0.076-0.034,0.076s-0.475,14.72-0.475,27.066
			c0,12.346-1.424,13.77-7.123,15.195c-5.698,1.424-8.072-6.173-4.748-21.368c3.324-15.195,7.123-26.116,7.123-26.116
			s-3.799,2.849-8.072,10.447c-4.274,7.598-8.547,23.742-13.771,28.016c-5.223,4.274-10.447,1.899-12.821-5.223
			c-2.374-7.123,12.346-11.871,18.519-21.368c6.173-9.497,14.245-18.519,14.245-18.519s-9.972,1.425-18.519,7.598
			c-8.547,6.173-11.871,16.619-18.519,15.67c-6.648-0.95-9.497-11.396,3.324-19.944c12.821-8.547,32.764-8.072,34.189-11.871
			c1.424-3.799-1.899-7.123-7.598-7.123c-5.698,0-11.871,8.072-18.519,6.173c-6.648-1.899-10.446-9.022,0.475-13.296
			c10.921-4.274,21.368,0.95,21.368-1.425s-2.374-12.346-9.972-13.296c-7.597-0.95-24.217,12.821-31.34,11.871
			s-9.972-13.771,0-17.569c9.972-3.799,20.893,0.475,20.418-2.374c-0.475-2.849-12.821-5.223-22.318-8.072
			c-9.497-2.849-14.245-6.648-9.022-16.62c5.223-9.972,20.418,9.972,29.915,18.044c9.497,8.072,14.245,5.698,14.245,5.698
			s-0.475-6.648-2.849-12.821c-2.374-6.173-12.821-17.094-15.67-31.815c-2.849-14.72,3.324-26.116,13.771-15.195
			s7.123,44.635,7.123,44.635c0.475,8.072,4.274,15.67,4.274,15.67s8.072-13.77,8.547-21.843c0.475-8.072,0.475-29.915,9.972-32.289
			c9.497-2.374,9.497,7.597,3.799,25.167c-5.698,17.569-12.821,18.994-15.67,27.541c-2.849,8.547-5.223,9.022-3.799,11.396
			c1.424,2.374,4.748,7.598,6.173,4.749c1.425-2.849,5.698-17.569,7.597-23.742c1.899-6.173,9.972-10.921,16.145-8.072
			c6.173,2.849,0,19.469-6.648,24.217c-6.648,4.748-16.62,14.245-16.62,19.943s3.799,4.749,9.972,3.324
			c6.173-1.424,21.368-6.173,27.541-7.598c1.13-0.261,2.323-0.329,3.491-0.231c-1.194-6.509,0.031-9.825,4.704-8.657
			c6.349,1.587,6.349,16.19,6.666,21.586c0.318,5.397,5.714,14.602,5.714,14.602s2.54-5.079,2.857-10.476
			c0,0-2.222-22.539,4.762-29.84c0.357-0.373,0.704-0.697,1.045-0.994V115.553H68.468v295.084h570.601
			C632.085,370.839,626.857,351.553,624.504,343.957z"/>
		<path style="fill:#FFB900;" d="M684.152,335.879c0,0,1.412,0.691,4.219-0.426V323.2c-1.031,1.596-1.879,2.976-2.315,4.107
			C684.47,331.434,684.152,335.879,684.152,335.879z"/>
		<path style="fill:#FFB900;" d="M685.422,341.91c-5.079,0.635-6.666,7.301-6.666,8.888c0,1.24,4.269-0.609,9.616-0.119v-8.365
			C687.263,341.972,686.259,341.805,685.422,341.91z"/>
	</g>
	<path style="fill:#FFFFFF;" d="M143.245,311.369c-7.651,0.956-10.042,10.999-10.042,13.39c0,2.391,10.521-2.869,21.519,1.435
		c10.999,4.304,7.173,11.477,0.478,13.39c-6.695,1.913-12.911-6.217-18.65-6.217c-5.738,0-9.086,3.347-7.651,7.173
		c1.435,3.826,21.519,3.347,34.431,11.955c12.911,8.608,10.042,19.128,3.348,20.085c-6.695,0.956-10.042-9.564-18.65-15.781
		c-8.608-6.217-18.65-7.651-18.65-7.651s8.129,9.086,14.346,18.65c6.217,9.564,21.041,14.346,18.65,21.519
		c-2.391,7.173-7.651,9.564-12.911,5.26c-5.26-4.304-9.564-20.563-13.868-28.214c-4.304-7.651-8.129-10.52-8.129-10.52
		s3.826,10.999,7.173,26.301c3.347,15.302,0.956,22.954-4.782,21.519c-5.738-1.435-7.173-2.869-7.173-15.302
		c0-12.433-0.478-27.258-0.478-27.258s-0.011-0.028-0.034-0.077c-2.847,9.19-9.87,35.34-19.121,93.928h-5.67
		c9.856-62.636,17.126-88.543,19.841-96.892c-2.172-0.076-5.198,0.744-9.362,3.52c-11.477,7.651-24.867,10.042-26.779,1.913
		c-1.913-8.129,3.826-11.477,10.999-11.955c7.173-0.478,16.737-0.478,22.476-1.913c5.738-1.435,6.695-1.435,7.173-3.826
		c0.478-2.391-8.129-5.738-13.868-5.26c-5.738,0.478-25.345,0.478-30.127-5.738c-4.782-6.217,3.347-10.521,9.564-9.086
		s21.519,6.217,27.736,7.651c6.217,1.435,10.042,2.391,10.042-3.348c0-5.738-10.042-15.303-16.737-20.085
		c-6.695-4.782-12.911-21.519-6.695-24.388s14.346,1.913,16.259,8.129c1.913,6.217,6.217,21.041,7.651,23.91
		c1.435,2.869,4.782-2.391,6.217-4.782c1.435-2.391-0.956-2.869-3.826-11.477c-2.869-8.608-10.042-10.042-15.781-27.736
		c-5.739-17.693-5.739-27.736,3.826-25.345c9.564,2.391,9.564,24.388,10.042,32.518c0.478,8.129,8.608,21.997,8.608,21.997
		s3.826-7.651,4.304-15.781c0,0-3.347-33.952,7.173-44.951c10.52-10.999,16.737,0.478,13.868,15.303
		c-2.869,14.824-13.39,25.823-15.781,32.04c-2.391,6.217-2.869,12.911-2.869,12.911s4.782,2.391,14.346-5.738
		c9.564-8.129,24.867-28.214,30.127-18.172c5.26,10.042,0.478,13.868-9.086,16.737c-9.564,2.869-21.997,5.26-22.475,8.129
		c-0.478,2.869,10.52-1.435,20.563,2.391c10.042,3.826,7.173,16.737,0,17.694C167.634,324.28,150.897,310.412,143.245,311.369z"/>
	<g>
		<g>
			<path style="fill:#314E52;stroke:#314E52;stroke-linecap:round;stroke-linejoin:round;stroke-miterlimit:10;" d="
				M213.225,371.253H50.274c-3.564,0-6.453-2.889-6.453-6.453v-70.744c0-3.564,2.889-6.453,6.453-6.453h162.951
				c3.564,0,6.453,2.889,6.453,6.453v70.744C219.678,368.363,216.789,371.253,213.225,371.253z"/>
			<path style="fill:#FFFFFF;stroke:#314E52;stroke-linecap:round;stroke-linejoin:round;stroke-miterlimit:10;" d="
				M217.646,364.867H54.695c-3.564,0-6.453-2.889-6.453-6.453v-70.744c0-3.564,2.889-6.453,6.453-6.453h162.951
				c3.564,0,6.453,2.889,6.453,6.453v70.744C224.099,361.978,221.21,364.867,217.646,364.867z"/>
			<path style="fill:#B0BBBD;stroke:#314E52;stroke-linecap:round;stroke-linejoin:round;stroke-miterlimit:10;" d="
				M224.099,295.511v-7.842c0-3.564-2.889-6.453-6.453-6.453H54.695c-3.564,0-6.453,2.889-6.453,6.453v7.842H224.099z"/>
		</g>
		<g>
			
				<circle style="fill:#314E52;stroke:#314E52;stroke-linecap:round;stroke-linejoin:round;stroke-miterlimit:10;" cx="220.681" cy="284.634" r="7.176"/>
			<g>
				
					<line style="fill:none;stroke:#FFFFFF;stroke-linecap:round;stroke-linejoin:round;stroke-miterlimit:10;" x1="216.733" y1="280.687" x2="224.628" y2="288.582"/>
				
					<line style="fill:none;stroke:#FFFFFF;stroke-linecap:round;stroke-linejoin:round;stroke-miterlimit:10;" x1="224.628" y1="280.687" x2="216.733" y2="288.582"/>
			</g>
		</g>
		<g>
			
				<circle style="fill:#314E52;stroke:#314E52;stroke-linecap:round;stroke-linejoin:round;stroke-miterlimit:10;" cx="138.441" cy="311.736" r="13.603"/>
			<g>
				
					<line style="fill:none;stroke:#FFFFFF;stroke-width:3;stroke-linecap:round;stroke-linejoin:round;stroke-miterlimit:10;" x1="130.958" y1="304.253" x2="145.924" y2="319.219"/>
				
					<line style="fill:none;stroke:#FFFFFF;stroke-width:3;stroke-linecap:round;stroke-linejoin:round;stroke-miterlimit:10;" x1="145.924" y1="304.253" x2="130.958" y2="319.219"/>
			</g>
		</g>
		<path style="fill:#314E52;" d="M174.119,355.582H102.4c-3.292,0-5.962-2.669-5.962-5.961v-12.843c0-3.292,2.669-5.962,5.962-5.962
			h71.719c3.292,0,5.962,2.669,5.962,5.962v12.843C180.08,352.913,177.411,355.582,174.119,355.582z"/>
		<text transform="matrix(1 0 0 1 122.8919 349.7409)" style="fill:#FFFFFF; font-family:'Lato-Black'; font-size:17.5428px;">OK</text>
	</g>
	<g>
		<g>
			<path style="fill:#314E52;stroke:#314E52;stroke-linecap:round;stroke-linejoin:round;stroke-miterlimit:10;" d="
				M195.347,437.643h78.182l32.833-0.425c0,0-10.597-38.787-19.537-78.769c-1.696-7.584-12.226-46.827-14.287-50.442
				c-2.722-4.774-7.816-7.694-13.311-7.694l-17.9-1.141c0,0-48.496-0.767-69.485,8.774s-11.449,28.144-11.449,28.144
				L195.347,437.643z"/>
			<path style="fill:#FFFFFF;stroke:#314E52;stroke-linecap:round;stroke-linejoin:round;stroke-miterlimit:10;" d="
				M195.347,437.643h23.559c-7.082-22.199-28.341-88.844-34.296-107.6c-6.441-20.29-19.809-16.021-22.492-14.929
				c-7.586,9.538-1.726,20.976-1.726,20.976L195.347,437.643z"/>
		</g>
		<g>
			<g>
				<g>
					<path style="fill:#FFFFFF;stroke:#314E52;stroke-linecap:round;stroke-linejoin:round;stroke-miterlimit:10;" d="
						M422.999,371.758c0,0,6.018-0.821,10.941,2.188c4.923,3.009,15.318,12.309,20.514,13.676c5.197,1.368,9.574,3.009,16.138,3.009
						c6.565,0,9.573-0.821,8.206,1.915c-1.368,2.735-4.103,3.282-7.112,3.009s-9.573-1.368-9.573-1.368s3.009,1.094,4.376,8.206
						c1.368,7.112-1.368,10.941-3.556,12.309c-2.188,1.368-3.829-3.009-3.829-3.009s-2.462,3.829-5.197,3.282
						c-2.735-0.547,0-3.009,0.273-7.112c0.273-4.103-3.829-11.215-6.018-12.309c-2.188-1.094-2.188-1.094-2.188-1.094
						s-1.368,5.744,0,9.026c1.368,3.282,6.018,9.026,4.376,11.215c-1.641,2.188-5.197-0.273-7.112-3.009
						c-1.915-2.735-2.735-8.753-3.282-11.762c-0.547-3.009-4.103-8.753-5.744-9.3c-1.641-0.547-3.282-0.547-3.829,0.547
						c-0.547,1.094-2.462,1.915,0.547,8.206c3.009,6.291,6.838,9.3,5.744,11.762c-1.094,2.462-4.65,1.641-7.932-3.829
						c-3.282-5.471-5.197-16.959-4.65-18.6c0.547-1.641-3.829-3.009-3.829-3.009L422.999,371.758z"/>
					<path style="fill:none;stroke:#314E52;stroke-linecap:round;stroke-linejoin:round;stroke-miterlimit:10;" d="M456.369,394.187
						c0,0,6.018,5.197,3.829,13.676"/>
				</g>
				<polygon style="fill:#B0BBBD;stroke:#314E52;stroke-linecap:round;stroke-linejoin:round;stroke-miterlimit:10;" points="
					424.913,368.475 421.237,396.025 378.14,408.957 370.208,372.852 				"/>
			</g>
			<path style="fill:#314E52;stroke:#314E52;stroke-linecap:round;stroke-linejoin:round;stroke-miterlimit:10;" d="
				M375.217,437.643c-4.552-13.82-41.403-125.428-45.765-129.824c-4.65-4.687-26.806-8.546-26.806-8.546l12.185,138.37H375.217z"/>
			<path style="fill:#314E52;stroke:#314E52;stroke-linecap:round;stroke-linejoin:round;stroke-miterlimit:10;" d="
				M369.806,252.739c0,0-0.506,26.066,4.302,38.719c4.808,12.653,5.314,14.678,5.314,14.678s-29.356,0.253-39.985-3.037
				c-10.629-3.29-15.69-6.074-15.69-6.074l3.037-26.572C326.784,270.454,363.479,269.694,369.806,252.739z"/>
			<g>
				<path style="fill:#FFFFFF;stroke:#314E52;stroke-linecap:round;stroke-linejoin:round;stroke-miterlimit:10;" d="
					M372.843,221.358c0,0,1.772,25.307-4.049,43.022c-5.821,17.715-20.752,18.727-26.319,16.702
					c-5.567-2.025-7.845-7.086-13.413-3.29s-7.592,21.005-7.592,21.005l-31.887-14.425l9.364-57.953
					C298.947,226.42,345.511,209.464,372.843,221.358z"/>
				<path style="fill:none;stroke:#314E52;stroke-width:3;stroke-linecap:round;stroke-linejoin:round;stroke-miterlimit:10;" d="
					M353.352,226.719c-1.574-0.811-3.36-1.268-5.253-1.268c-2.956,0-5.651,1.116-7.687,2.95"/>
				<path style="fill:none;stroke:#314E52;stroke-width:3;stroke-linecap:round;stroke-linejoin:round;stroke-miterlimit:10;" d="
					M373.151,230.709c-1.697-0.491-3.425-0.571-5.072-0.295"/>
				<path style="fill:#314E52;" d="M350.221,241.604c-0.487,1.47-1.676,2.399-2.656,2.075c-0.98-0.325-1.381-1.78-0.894-3.25
					c0.487-1.471,1.676-2.399,2.656-2.075C350.308,238.679,350.708,240.134,350.221,241.604z"/>
				<path style="fill:#314E52;" d="M368.238,245.344c-0.487,1.47-1.676,2.399-2.656,2.075c-0.98-0.324-1.38-1.779-0.894-3.25
					c0.487-1.471,1.676-2.4,2.656-2.075C368.324,242.418,368.725,243.873,368.238,245.344z"/>
				<path style="fill:none;stroke:#314E52;stroke-linecap:round;stroke-linejoin:round;stroke-miterlimit:10;" d="M361.024,246.201
					c0,0-0.51,4.419,0.85,6.969c1.36,2.55,0.68,4.079-1.53,4.759c-2.21,0.68-5.439,0.51-5.949-2.55"/>
				<path style="fill:none;stroke:#314E52;stroke-width:2;stroke-linecap:round;stroke-linejoin:round;stroke-miterlimit:10;" d="
					M342.497,255.379c0,0,3.229,9.518,13.088,9.178"/>
				
					<ellipse transform="matrix(0.7071 -0.7071 0.7071 0.7071 -68.3671 316.9809)" style="fill:none;stroke:#314E52;stroke-linecap:round;stroke-linejoin:round;stroke-miterlimit:10;" cx="348.446" cy="241.017" rx="11.558" ry="11.558"/>
				
					<ellipse transform="matrix(0.7703 -0.6376 0.6376 0.7703 -70.3038 293.4738)" style="fill:none;stroke:#314E52;stroke-linecap:round;stroke-linejoin:round;stroke-miterlimit:10;" cx="372.242" cy="244.331" rx="11.048" ry="11.048"/>
				
					<line style="fill:none;stroke:#314E52;stroke-linecap:round;stroke-linejoin:round;stroke-miterlimit:10;" x1="360.004" y1="242.122" x2="361.194" y2="242.122"/>
				
					<line style="fill:none;stroke:#314E52;stroke-linecap:round;stroke-linejoin:round;stroke-miterlimit:10;" x1="372.242" y1="244.331" x2="384.35" y2="244.001"/>
				
					<line style="fill:none;stroke:#314E52;stroke-linecap:round;stroke-linejoin:round;stroke-miterlimit:10;" x1="337.738" y1="239.402" x2="330.09" y2="240.252"/>
			</g>
			<path style="fill:#B0BBBD;stroke:#314E52;stroke-linecap:round;stroke-linejoin:round;stroke-miterlimit:10;" d="
				M368.013,437.643h31.101c-3.584-8.472-32.731-77.516-36.837-92.144c-4.376-15.591-10.941-31.729-18.053-36.926
				c-7.112-5.197-18.873-8.206-17.506,3.282L368.013,437.643z"/>
			<path style="fill:#FFB900;stroke:#314E52;stroke-linecap:round;stroke-linejoin:round;stroke-miterlimit:10;" d="
				M343.159,335.332l12.213,38.561c0.198,0.625,0.813,1.019,1.463,0.939l0,0c0.852-0.105,1.395-0.963,1.125-1.778l-12.294-37.113
				L343.159,335.332z"/>
			<path style="fill:#B0BBBD;stroke:#314E52;stroke-linecap:round;stroke-linejoin:round;stroke-miterlimit:10;" d="
				M343.949,364.099c0,0,6.291-15.591,7.385-23.25c1.094-7.659,3.009-13.676,4.376-17.506c1.368-3.829,0.547-9.026-2.462-13.403
				c-3.009-4.376-21.062-12.582-24.617-12.582c-3.556,0-5.744,5.744-3.829,10.121C326.717,311.855,343.949,364.099,343.949,364.099z
				"/>
			<path style="fill:#FFB900;stroke:#314E52;stroke-linecap:round;stroke-linejoin:round;stroke-miterlimit:10;" d="
				M348.242,326.322c1.433-8.046,2.096-14.279,2.38-18.834c-6.002-4.432-19.027-10.13-21.99-10.13c-3.556,0-5.744,5.744-3.829,10.12
				c1.369,3.13,10.572,30.738,15.704,46.214C342.267,349.605,345.738,340.383,348.242,326.322z"/>
			<path style="fill:#B0BBBD;stroke:#314E52;stroke-linecap:round;stroke-linejoin:round;stroke-miterlimit:10;" d="
				M319.836,437.643l-1.598-72.45c-0.547-16.412-21.062-58.261-40.208-60.449c-19.147-2.188-35.285,3.556-36.653,7.932
				c-1.266,4.051-19.871,109.326-22.632,124.967H319.836z"/>
			<path style="fill:#FFB900;stroke:#314E52;stroke-linecap:round;stroke-linejoin:round;stroke-miterlimit:10;" d="M297.45,334.832
				l-0.532,40.446c-0.009,0.655,0.451,1.223,1.093,1.352l0,0c0.842,0.168,1.627-0.475,1.627-1.334v-39.096L297.45,334.832z"/>
			<g>
				<path style="fill:#FFFFFF;stroke:#314E52;stroke-linecap:round;stroke-linejoin:round;stroke-miterlimit:10;" d="
					M364.737,394.187c0,0,13.95,0.821,21.062-7.385c7.112-8.206,12.582-18.053,20.241-20.241c7.659-2.188,13.676,0.547,13.129,4.376
					c-0.547,3.829-3.556,1.094-7.385,1.094c-3.829,0-11.762,6.565-11.762,6.565s6.018-1.368,11.215-1.368s9.3,5.197,9.026,8.479
					c-0.274,3.282-3.282,2.735-6.291,1.368c-3.009-1.368-4.923-3.009-7.932-2.462c-3.009,0.547-9.3,3.556-9.3,3.556
					s11.488-0.821,15.317,1.915c3.829,2.735,6.565,8.206,3.282,9.573c-3.282,1.368-4.65-4.65-10.668-4.65s-8.753,1.915-8.753,1.915
					s7.112,0.547,9.026,3.829c1.915,3.282,1.915,8.206-0.274,7.932c-2.188-0.273-4.376-4.376-7.659-5.744
					c-3.282-1.368-7.659,0.274-8.753,1.094c-1.094,0.821-4.103,4.376-10.121,4.923c-6.018,0.547-13.676-3.556-13.676-3.556
					L364.737,394.187z"/>
				<path style="fill:#B0BBBD;stroke:#314E52;stroke-linecap:round;stroke-linejoin:round;stroke-miterlimit:10;" d="
					M243.292,309.393c0,0-27.626,20.788-36.105,57.167c-8.479,36.379,11.488,55.799,38.02,61.817
					c26.532,6.018,121.719-5.197,122.54-5.744c0.821-0.547,0.821-31.182,0.821-31.182s-55.526-3.009-69.476-6.291
					c-13.95-3.282-16.138-5.197-16.138-5.197s-3.009-14.771,4.103-28.994"/>
				<path style="fill:none;stroke:#314E52;stroke-linecap:round;stroke-linejoin:round;stroke-miterlimit:10;" d="M282.953,379.964
					c0,0-8.479-2.462-14.497-5.197"/>
				<path style="fill:none;stroke:#314E52;stroke-linecap:round;stroke-linejoin:round;stroke-miterlimit:10;" d="M225.79,374.504
					c7.613-2.948,19.494-6.091,31.178-3.293"/>
				<path style="fill:none;stroke:#314E52;stroke-linecap:round;stroke-linejoin:round;stroke-miterlimit:10;" d="M217.58,378.322
					c0,0,1.779-1.048,4.792-2.395"/>
				<path style="fill:none;stroke:#314E52;stroke-linecap:round;stroke-linejoin:round;stroke-miterlimit:10;" d="M264.627,364.646
					c0,0,8.206,2.188,11.762,10.394"/>
				<path style="fill:none;stroke:#314E52;stroke-linecap:round;stroke-linejoin:round;stroke-miterlimit:10;" d="M249.277,378.319
					c3.521-1.736,8.068-3.252,12.614-2.732"/>
				<path style="fill:none;stroke:#314E52;stroke-linecap:round;stroke-linejoin:round;stroke-miterlimit:10;" d="M242.744,382.425
					c0,0,1.449-1.2,3.783-2.603"/>
			</g>
			<path style="fill:#B0BBBD;stroke:#314E52;stroke-linecap:round;stroke-linejoin:round;stroke-miterlimit:10;" d="
				M271.738,290.247c0,0-11.762,3.829-19.694,9.573c-7.932,5.744-13.676,10.941-10.668,12.856
				c3.009,1.915,11.582,2.704,28.994,8.479c19.625,6.509,35.558,22.976,39.388,28.447c3.829,5.471,7.385,15.865,8.479,15.591
				c1.094-0.273-1.915-29.541-3.556-44.585c-1.641-15.044-3.282-19.694-3.282-19.694S289.518,284.776,271.738,290.247z"/>
			<path style="fill:#FFB900;stroke:#314E52;stroke-linecap:round;stroke-linejoin:round;stroke-miterlimit:10;" d="
				M271.738,290.247c0,0-11.762,3.829-19.694,9.573c-1.005,0.728-1.974,1.447-2.896,2.152c-0.317,0.868-0.203,1.599,0.585,2.072
				c4.026,2.416,21.742,0.268,42.679,16.642c13.278,10.384,21.044,20.438,24.953,26.408c-0.811-8.945-1.901-19.325-2.682-26.485
				c-0.872-7.993-1.744-13.052-2.37-16.038l-3.648-5.492C302.254,295.015,285.73,285.942,271.738,290.247z"/>
			<path style="fill:#314E52;stroke:#314E52;stroke-linecap:round;stroke-linejoin:round;stroke-miterlimit:10;" d="M331.34,222.624
				c0,0-5.061,69.847-3.29,82.247c1.772,12.4,3.037,14.931,3.037,14.931s-28.344-1.772-48.336-13.16
				c-19.992-11.388-26.066-18.474-26.066-18.474s24.295-34.923,24.801-53.65C281.485,234.518,311.853,218.575,331.34,222.624z"/>
			<g>
				<path style="fill:#B0BBBD;stroke:#314E52;stroke-linecap:round;stroke-linejoin:round;stroke-miterlimit:10;" d="
					M365.531,196.372c0,0-6.101-13.986-13.946-21.578s-26.572-10.882-43.275-6.327c-16.703,4.555-29.103,15.943-28.091,17.968
					c1.012,2.025,4.808,2.531,4.808,2.531s-3.29,6.58-5.061,16.196c-1.772,9.617,0,17.968,0,17.968s7.845-12.147,39.479-18.727
					c31.634-6.58,44.54-6.327,45.552-5.821C366.01,199.088,365.531,196.372,365.531,196.372z"/>
				<path style="fill:#B0BBBD;stroke:#314E52;stroke-linecap:round;stroke-linejoin:round;stroke-miterlimit:10;" d="
					M279.967,243.882c0,0,19.739-13.666,51.373-18.98c31.633-5.314,40.997-1.265,41.756-1.518c0.759-0.253,2.278-2.278,2.278-5.567
					c0-1.908-1.192-6.883-2.193-10.723c-1.145-4.394-3.8-8.312-7.649-10.721c-1.477-0.925-3.064-1.585-4.583-1.585
					c-5.061,0-32.894-0.728-60.23,12.906c-19.455,9.703-21.764,15.943-21.764,18.727c0,2.784-2.025,13.413-0.506,15.437
					C279.967,243.882,279.967,243.882,279.967,243.882z"/>
				<path style="fill:none;stroke:#314E52;stroke-linecap:round;stroke-linejoin:round;stroke-miterlimit:10;" d="M288.715,214.343
					c0,0-2.459,17.211-1.537,19.977c0.922,2.766,2.151,0.922,2.151,0.922"/>
				<path style="fill:none;stroke:#314E52;stroke-linecap:round;stroke-linejoin:round;stroke-miterlimit:10;" d="M296.929,225.545
					c0.008,1.004,0.033,1.816,0.084,2.321c0.307,3.073,2.151,3.073,2.151,3.073"/>
				<path style="fill:none;stroke:#314E52;stroke-linecap:round;stroke-linejoin:round;stroke-miterlimit:10;" d="M297.32,210.348
					c0,0-0.268,6.302-0.362,11.466"/>
				<path style="fill:none;stroke:#314E52;stroke-linecap:round;stroke-linejoin:round;stroke-miterlimit:10;" d="M308.542,210.177
					c-0.422,5.963-0.846,14.649,0.15,15.845c1.537,1.844,3.688,0.922,3.688,0.922"/>
				<path style="fill:none;stroke:#314E52;stroke-linecap:round;stroke-linejoin:round;stroke-miterlimit:10;" d="M308.999,204.508
					c0,0-0.133,1.419-0.298,3.53"/>
				<path style="fill:none;stroke:#314E52;stroke-linecap:round;stroke-linejoin:round;stroke-miterlimit:10;" d="M365.873,215.031
					c-0.178,3.59-1.245,4.23-1.245,4.23"/>
				<path style="fill:none;stroke:#314E52;stroke-linecap:round;stroke-linejoin:round;stroke-miterlimit:10;" d="M360.948,194.786
					c0,0,4.602,11.873,4.909,17.713"/>
				<path style="fill:none;stroke:#314E52;stroke-linecap:round;stroke-linejoin:round;stroke-miterlimit:10;" d="M368.818,200.82
					c0,0,5.132,12.13,3.032,18.661"/>
				<path style="fill:none;stroke:#314E52;stroke-linecap:round;stroke-linejoin:round;stroke-miterlimit:10;" d="M324.966,220.764
					c0.434,0.877,0.97,1.563,1.63,1.983"/>
				<path style="fill:none;stroke:#314E52;stroke-linecap:round;stroke-linejoin:round;stroke-miterlimit:10;" d="M323.797,200.12
					c0,0-1.356,11.256,0.275,18.051"/>
			</g>
		</g>
	</g>
	<g>
		<g>
			<path style="fill:#FFFFFF;stroke:#314E52;stroke-linecap:round;stroke-linejoin:round;stroke-miterlimit:10;" d="
				M505.034,356.881h-30.684c-0.888,0-1.665,0.598-1.892,1.457l-6.203,23.498c-0.222,0.842,0.413,1.667,1.285,1.667h31.983
				c0.603,0,1.13-0.406,1.284-0.989l6.118-23.177C507.254,358.096,506.318,356.881,505.034,356.881z"/>
			<path style="fill:#B0BBBD;stroke:#314E52;stroke-linecap:round;stroke-linejoin:round;stroke-miterlimit:10;" d="
				M506.364,361.468l0.563-2.131c0.328-1.241-0.608-2.456-1.892-2.456h-30.684c-0.888,0-1.665,0.598-1.892,1.457l-0.826,3.13
				H506.364z"/>
		</g>
		<g>
			<path style="fill:#314E52;stroke:#314E52;stroke-linecap:round;stroke-linejoin:round;stroke-miterlimit:10;" d="
				M514.102,359.337c0,3.963-3.213,7.176-7.176,7.176s-7.176-3.213-7.176-7.176s3.213-7.176,7.176-7.176
				S514.102,355.374,514.102,359.337z"/>
			<g>
				
					<line style="fill:none;stroke:#FFFFFF;stroke-linecap:round;stroke-linejoin:round;stroke-miterlimit:10;" x1="502.978" y1="355.389" x2="510.874" y2="363.284"/>
				
					<line style="fill:none;stroke:#FFFFFF;stroke-linecap:round;stroke-linejoin:round;stroke-miterlimit:10;" x1="510.874" y1="355.389" x2="502.978" y2="363.284"/>
			</g>
		</g>
	</g>
	<g>
		<rect x="389.934" y="431.797" style="fill:#FFFFFF;stroke:#314E52;stroke-miterlimit:10;" width="204.616" height="5.846"/>
		
			<rect x="478.526" y="431.797" style="fill:#B0BBBD;stroke:#314E52;stroke-linecap:round;stroke-linejoin:round;stroke-miterlimit:10;" width="116.024" height="5.846"/>
		<polygon style="fill:#314E52;stroke:#314E52;stroke-linecap:round;stroke-linejoin:round;stroke-miterlimit:10;" points="
			617.485,343.205 501.911,343.205 478.526,431.797 594.1,431.797 		"/>
	</g>
	<line style="fill:none;stroke:#314E52;stroke-miterlimit:10;" x1="68.948" y1="437.643" x2="687.718" y2="437.643"/>
	<g>
		<g>
			<path style="fill:#FFFFFF;stroke:#314E52;stroke-linecap:round;stroke-linejoin:round;stroke-miterlimit:10;" d="
				M474.837,315.436h-46.722c-1.353,0-2.536,0.911-2.881,2.219l-9.445,35.781c-0.339,1.283,0.629,2.539,1.956,2.539h48.701
				c0.918,0,1.721-0.619,1.956-1.507l9.316-35.292C478.216,317.287,476.791,315.436,474.837,315.436z"/>
			<path style="fill:#B0BBBD;stroke:#314E52;stroke-linecap:round;stroke-linejoin:round;stroke-miterlimit:10;" d="
				M476.861,322.421l0.856-3.245c0.499-1.89-0.926-3.74-2.881-3.74h-46.722c-1.353,0-2.536,0.911-2.881,2.219l-1.258,4.766H476.861z
				"/>
		</g>
		<g>
			
				<circle style="fill:#314E52;stroke:#314E52;stroke-linecap:round;stroke-linejoin:round;stroke-miterlimit:10;" cx="477.65" cy="317.115" r="7.176"/>
			<g>
				
					<line style="fill:none;stroke:#FFFFFF;stroke-linecap:round;stroke-linejoin:round;stroke-miterlimit:10;" x1="473.702" y1="313.167" x2="481.597" y2="321.062"/>
				
					<line style="fill:none;stroke:#FFFFFF;stroke-linecap:round;stroke-linejoin:round;stroke-miterlimit:10;" x1="481.597" y1="313.167" x2="473.702" y2="321.062"/>
			</g>
		</g>
	</g>
	<g>
		<g>
			<path style="fill:#FFFFFF;stroke:#314E52;stroke-linecap:round;stroke-linejoin:round;stroke-miterlimit:10;" d="
				M537.859,308.702h-30.683c-0.888,0-1.665,0.598-1.892,1.457l-6.202,23.498c-0.222,0.843,0.413,1.667,1.284,1.667h31.983
				c0.603,0,1.13-0.406,1.284-0.989l6.118-23.177C540.079,309.917,539.143,308.702,537.859,308.702z"/>
			<path style="fill:#B0BBBD;stroke:#314E52;stroke-linecap:round;stroke-linejoin:round;stroke-miterlimit:10;" d="
				M539.188,313.289l0.563-2.131c0.328-1.241-0.608-2.456-1.892-2.456h-30.683c-0.888,0-1.665,0.598-1.892,1.457l-0.826,3.13
				H539.188z"/>
		</g>
		<g>
			
				<circle style="fill:#314E52;stroke:#314E52;stroke-linecap:round;stroke-linejoin:round;stroke-miterlimit:10;" cx="539.751" cy="311.158" r="7.176"/>
			<g>
				
					<line style="fill:none;stroke:#FFFFFF;stroke-linecap:round;stroke-linejoin:round;stroke-miterlimit:10;" x1="535.803" y1="307.211" x2="543.699" y2="315.106"/>
				
					<line style="fill:none;stroke:#FFFFFF;stroke-linecap:round;stroke-linejoin:round;stroke-miterlimit:10;" x1="543.699" y1="307.211" x2="535.803" y2="315.106"/>
			</g>
		</g>
	</g>
	<g>
		<g>
			<path style="fill:#314E52;stroke:#314E52;stroke-linecap:round;stroke-linejoin:round;stroke-miterlimit:10;" d="
				M382.809,140.838H273.416c-3.564,0-6.453-2.889-6.453-6.453V63.641c0-3.564,2.889-6.453,6.453-6.453h109.393
				c3.564,0,6.453,2.889,6.453,6.453v70.744C389.262,137.949,386.373,140.838,382.809,140.838z"/>
			<path style="fill:#FFFFFF;stroke:#314E52;stroke-linecap:round;stroke-linejoin:round;stroke-miterlimit:10;" d="M387.23,134.452
				H277.837c-3.564,0-6.453-2.889-6.453-6.453V57.255c0-3.564,2.889-6.453,6.453-6.453H387.23c3.564,0,6.453,2.889,6.453,6.453
				v70.744C393.684,131.563,390.794,134.452,387.23,134.452z"/>
			<path style="fill:#B0BBBD;stroke:#314E52;stroke-linecap:round;stroke-linejoin:round;stroke-miterlimit:10;" d="M393.684,65.097
				v-7.842c0-3.564-2.889-6.453-6.453-6.453H277.837c-3.564,0-6.453,2.889-6.453,6.453v7.842H393.684z"/>
		</g>
		<g>
			
				<circle style="fill:#314E52;stroke:#314E52;stroke-linecap:round;stroke-linejoin:round;stroke-miterlimit:10;" cx="390.265" cy="54.22" r="7.176"/>
			<g>
				
					<line style="fill:none;stroke:#FFFFFF;stroke-linecap:round;stroke-linejoin:round;stroke-miterlimit:10;" x1="386.318" y1="50.272" x2="394.213" y2="58.168"/>
				
					<line style="fill:none;stroke:#FFFFFF;stroke-linecap:round;stroke-linejoin:round;stroke-miterlimit:10;" x1="394.213" y1="50.272" x2="386.318" y2="58.168"/>
			</g>
		</g>
		<text transform="matrix(1 0 0 1 293.1241 116.6112)" style="fill:#314E52; font-family:'Lato-Black'; font-size:17.5428px;">Attention</text>
		<g>
			<path style="fill:#314E52;" d="M329.815,73.55l-11.494,19.908c-1.208,2.093,0.302,4.709,2.719,4.709h22.988
				c2.417,0,3.927-2.616,2.719-4.709L335.252,73.55C334.044,71.457,331.023,71.457,329.815,73.55z"/>
			<g>
				<path style="fill:#FFB900;" d="M330.395,91.963c0-0.292,0.055-0.563,0.164-0.814c0.109-0.251,0.259-0.47,0.45-0.656
					c0.19-0.186,0.415-0.334,0.675-0.444c0.259-0.109,0.543-0.164,0.851-0.164c0.3,0,0.579,0.055,0.839,0.164
					c0.259,0.11,0.486,0.257,0.681,0.444c0.195,0.187,0.347,0.405,0.456,0.656c0.109,0.251,0.164,0.523,0.164,0.814
					c0,0.292-0.055,0.565-0.164,0.82c-0.109,0.255-0.261,0.476-0.456,0.663c-0.194,0.187-0.421,0.332-0.681,0.438
					c-0.259,0.105-0.539,0.158-0.839,0.158c-0.308,0-0.592-0.053-0.851-0.158c-0.259-0.105-0.484-0.251-0.675-0.438
					c-0.19-0.186-0.34-0.407-0.45-0.663C330.449,92.528,330.395,92.254,330.395,91.963z M334.333,76.161v6.953
					c0,0.746-0.045,1.485-0.134,2.218c-0.089,0.734-0.207,1.481-0.352,2.243h-2.553c-0.146-0.762-0.264-1.509-0.353-2.243
					c-0.089-0.733-0.134-1.473-0.134-2.218v-6.953H334.333z"/>
			</g>
		</g>
	</g>
	<g>
		<g>
			<path style="fill:#314E52;stroke:#314E52;stroke-linecap:round;stroke-linejoin:round;stroke-miterlimit:10;" d="M556.636,284.72
				H447.243c-3.564,0-6.453-2.889-6.453-6.453v-70.744c0-3.564,2.889-6.453,6.453-6.453h109.393c3.564,0,6.453,2.889,6.453,6.453
				v70.744C563.089,281.831,560.2,284.72,556.636,284.72z"/>
			<path style="fill:#FFFFFF;stroke:#314E52;stroke-linecap:round;stroke-linejoin:round;stroke-miterlimit:10;" d="
				M561.057,278.334H451.664c-3.564,0-6.453-2.889-6.453-6.453v-70.744c0-3.564,2.889-6.453,6.453-6.453h109.393
				c3.564,0,6.453,2.889,6.453,6.453v70.744C567.51,275.445,564.621,278.334,561.057,278.334z"/>
			<path style="fill:#B0BBBD;stroke:#314E52;stroke-linecap:round;stroke-linejoin:round;stroke-miterlimit:10;" d="M567.51,208.978
				v-7.842c0-3.564-2.889-6.453-6.453-6.453H451.664c-3.564,0-6.453,2.889-6.453,6.453v7.842H567.51z"/>
		</g>
		<g>
			
				<circle style="fill:#314E52;stroke:#314E52;stroke-linecap:round;stroke-linejoin:round;stroke-miterlimit:10;" cx="564.092" cy="198.101" r="7.176"/>
			<g>
				
					<line style="fill:none;stroke:#FFFFFF;stroke-linecap:round;stroke-linejoin:round;stroke-miterlimit:10;" x1="560.145" y1="194.154" x2="568.04" y2="202.049"/>
				
					<line style="fill:none;stroke:#FFFFFF;stroke-linecap:round;stroke-linejoin:round;stroke-miterlimit:10;" x1="568.04" y1="194.154" x2="560.145" y2="202.049"/>
			</g>
		</g>
		<text transform="matrix(1 0 0 1 477.0231 251.8625)" style="fill:#314E52; font-family:'Lato-Black'; font-size:29.2197px;">ADS</text>
	</g>
	<g>
		<g>
			<path style="fill:#314E52;stroke:#314E52;stroke-linecap:round;stroke-linejoin:round;stroke-miterlimit:10;" d="M636.057,180.29
				H473.107c-3.564,0-6.453-2.889-6.453-6.453v-70.744c0-3.564,2.889-6.453,6.453-6.453h162.951c3.564,0,6.453,2.889,6.453,6.453
				v70.744C642.51,177.401,639.621,180.29,636.057,180.29z"/>
			<path style="fill:#FFFFFF;stroke:#314E52;stroke-linecap:round;stroke-linejoin:round;stroke-miterlimit:10;" d="
				M640.478,173.904H477.528c-3.564,0-6.453-2.889-6.453-6.453V96.707c0-3.564,2.889-6.453,6.453-6.453h162.951
				c3.564,0,6.453,2.889,6.453,6.453v70.744C646.931,171.015,644.042,173.904,640.478,173.904z"/>
			<path style="fill:#B0BBBD;stroke:#314E52;stroke-linecap:round;stroke-linejoin:round;stroke-miterlimit:10;" d="
				M646.931,104.548v-7.842c0-3.564-2.889-6.453-6.453-6.453H477.528c-3.564,0-6.453,2.889-6.453,6.453v7.842H646.931z"/>
		</g>
		<g>
			
				<circle style="fill:#314E52;stroke:#314E52;stroke-linecap:round;stroke-linejoin:round;stroke-miterlimit:10;" cx="643.513" cy="93.672" r="7.176"/>
			<g>
				
					<line style="fill:none;stroke:#FFFFFF;stroke-linecap:round;stroke-linejoin:round;stroke-miterlimit:10;" x1="639.566" y1="89.724" x2="647.461" y2="97.619"/>
				
					<line style="fill:none;stroke:#FFFFFF;stroke-linecap:round;stroke-linejoin:round;stroke-miterlimit:10;" x1="647.461" y1="89.724" x2="639.566" y2="97.619"/>
			</g>
		</g>
		<text transform="matrix(1 0 0 1 509.7879 142.4237)" style="fill:#314E52; font-family:'Lato-Black'; font-size:17.5428px;">CLICK HERE</text>
	</g>
	<g>
		<g>
			<g>
				<path style="fill:#314E52;stroke:#314E52;stroke-linecap:round;stroke-linejoin:round;stroke-miterlimit:10;" d="
					M202.854,241.001H93.461c-3.564,0-6.453-2.889-6.453-6.453V103.092c0-3.564,2.889-6.453,6.453-6.453h109.393
					c3.564,0,6.453,2.889,6.453,6.453v131.455C209.307,238.112,206.418,241.001,202.854,241.001z"/>
				<path style="fill:#FFFFFF;stroke:#314E52;stroke-linecap:round;stroke-linejoin:round;stroke-miterlimit:10;" d="
					M207.275,234.615H97.882c-3.564,0-6.453-2.889-6.453-6.453V96.707c0-3.564,2.889-6.453,6.453-6.453h109.393
					c3.564,0,6.453,2.889,6.453,6.453v131.455C213.728,231.726,210.839,234.615,207.275,234.615z"/>
				
					<rect x="117.744" y="155.941" style="fill:#FFFFFF;stroke:#314E52;stroke-linecap:round;stroke-linejoin:round;stroke-miterlimit:10;" width="69.848" height="14.569"/>
				
					<rect x="117.744" y="181.165" style="fill:#FFFFFF;stroke:#314E52;stroke-linecap:round;stroke-linejoin:round;stroke-miterlimit:10;" width="69.848" height="14.569"/>
				<path style="fill:#B0BBBD;stroke:#314E52;stroke-linecap:round;stroke-linejoin:round;stroke-miterlimit:10;" d="M213.728,149.6
					V96.707c0-3.564-2.889-6.453-6.453-6.453H97.882c-3.564,0-6.453,2.889-6.453,6.453V149.6H213.728z"/>
			</g>
			<g>
				
					<circle style="fill:#314E52;stroke:#314E52;stroke-linecap:round;stroke-linejoin:round;stroke-miterlimit:10;" cx="210.31" cy="93.672" r="7.176"/>
				<g>
					
						<line style="fill:none;stroke:#FFFFFF;stroke-linecap:round;stroke-linejoin:round;stroke-miterlimit:10;" x1="206.363" y1="89.724" x2="214.258" y2="97.619"/>
					
						<line style="fill:none;stroke:#FFFFFF;stroke-linecap:round;stroke-linejoin:round;stroke-miterlimit:10;" x1="214.258" y1="89.724" x2="206.363" y2="97.619"/>
				</g>
			</g>
			<text transform="matrix(1 0 0 1 113.6602 216.7737)" style="fill:#314E52; font-family:'Lato-Black'; font-size:17.5428px;">Subscribe</text>
		</g>
		<g>
			<polygon style="fill:#FFFFFF;" points="171.393,113.115 137.475,113.115 154.457,124.288 			"/>
			<polygon style="fill:#FFFFFF;" points="154.458,126.683 135.625,114.292 135.625,137.856 173.291,137.856 173.291,114.26 			"/>
		</g>
	</g>
</g>
</svg>
