<?xml version="1.0" encoding="utf-8"?>
<!-- Generator: Adobe Illustrator 27.5.0, SVG Export Plug-In . SVG Version: 6.00 Build 0)  -->
<svg version="1.1" xmlns="http://www.w3.org/2000/svg" xmlns:xlink="http://www.w3.org/1999/xlink" x="0px" y="0px"
	 viewBox="0 0 650 500" style="enable-background:new 0 0 650 500;" xml:space="preserve">
<g id="BACKGROUND">
	<rect x="0.019" style="fill:#F2E9DA;" width="650" height="500"/>
</g>
<g id="OBJECTS">
	<path style="fill:#F2D9AF;" d="M622.276,70.957v333.53c0,16.11-13.06,29.17-29.17,29.17H69.066c-16.11,0-29.18-13.06-29.18-29.17
		V70.957c0-16.11,13.07-29.17,29.18-29.17h524.04C609.216,41.787,622.276,54.847,622.276,70.957z"/>
	<g>
		<g>
			<rect x="108.381" y="252.812" style="fill:#FFA727;" width="287.496" height="149.556"/>
		</g>
		<g>
			<g>
				<g>
					<g>
						<g>
							<g>
								<path style="fill:#25292B;" d="M564.829,74.737v8.616H268.737v-8.616c0-5.888,4.78-10.659,10.668-10.659H554.17
									C560.059,64.078,564.829,68.849,564.829,74.737z"/>
							</g>
						</g>
					</g>
				</g>
				<g>
					<g>
						<g>
							<g>
								<path style="fill:#F2E9DA;" d="M546.876,75.66h-20.728c-1.373,0-2.497-1.124-2.497-2.497v0c0-1.373,1.124-2.497,2.497-2.497
									h20.728c1.373,0,2.497,1.124,2.497,2.497v0C549.373,74.536,548.249,75.66,546.876,75.66z"/>
							</g>
						</g>
					</g>
				</g>
				<g>
					<g>
						<g>
							<g>
								<path style="fill:#FFBD29;" d="M512.77,76.026h-20.729c-1.373,0-2.497-1.124-2.497-2.497v0c0-1.373,1.124-2.497,2.497-2.497
									h20.729c1.373,0,2.497,1.124,2.497,2.497v0C515.267,74.903,514.143,76.026,512.77,76.026z"/>
							</g>
						</g>
					</g>
				</g>
				<g>
					<g>
						<g>
							<g>
								<path style="fill:#FFA727;" d="M478.611,76.026h-20.729c-1.373,0-2.497-1.124-2.497-2.497v0
									c0-1.373,1.124-2.497,2.497-2.497h20.729c1.373,0,2.497,1.124,2.497,2.497v0C481.108,74.903,479.984,76.026,478.611,76.026z
									"/>
							</g>
						</g>
					</g>
				</g>
				<g>
					<g>
						<g>
							<g>
								<path style="fill:#25292B;" d="M553.595,63.141H279.998c-6.723,0-12.193,5.47-12.193,12.193v145.398h0.745V75.334
									c0-6.312,5.135-11.448,11.448-11.448h273.598c6.297,0,11.42,5.135,11.42,11.448v193.007c0,6.312-5.123,11.448-11.42,11.448
									h-0.186v0.745h0.186c6.708,0,12.165-5.47,12.165-12.193V75.334C565.761,68.611,560.303,63.141,553.595,63.141z"/>
							</g>
						</g>
					</g>
				</g>
			</g>
			<g>
				<g>
					<rect x="261.534" y="131.784" style="fill:#FFBD29;" width="214.775" height="87.125"/>
				</g>
				<g>
					<rect x="268.768" y="141.053" style="fill:#F2E9DA;" width="68.587" height="68.587"/>
				</g>
				<g>
					<g>
						<rect x="346.46" y="142.631" style="fill:#F2E9DA;" width="114.797" height="5.57"/>
					</g>
					<g>
						<rect x="346.46" y="154.053" style="fill:#F2E9DA;" width="114.797" height="5.57"/>
					</g>
					<g>
						<rect x="346.46" y="166.268" style="fill:#F2E9DA;" width="114.797" height="5.57"/>
					</g>
					<g>
						<rect x="346.46" y="177.69" style="fill:#F2E9DA;" width="114.797" height="5.57"/>
					</g>
					<g>
						<rect x="346.46" y="188.941" style="fill:#F2E9DA;" width="114.797" height="5.57"/>
					</g>
					<g>
						<rect x="346.46" y="200.364" style="fill:#F2E9DA;" width="78.822" height="5.57"/>
					</g>
				</g>
				<g>
					<path style="fill:#25292B;" d="M340.745,206.631h-5.782c-0.276,0-0.5-0.224-0.5-0.5s0.224-0.5,0.5-0.5h5.782
						c0.276,0,0.5,0.224,0.5,0.5S341.021,206.631,340.745,206.631z M329.181,206.631h-5.782c-0.276,0-0.5-0.224-0.5-0.5
						s0.224-0.5,0.5-0.5h5.782c0.276,0,0.5,0.224,0.5,0.5S329.457,206.631,329.181,206.631z M317.616,206.631h-5.782
						c-0.276,0-0.5-0.224-0.5-0.5s0.224-0.5,0.5-0.5h5.782c0.276,0,0.5,0.224,0.5,0.5S317.892,206.631,317.616,206.631z
						 M306.051,206.631h-5.782c-0.276,0-0.5-0.224-0.5-0.5s0.224-0.5,0.5-0.5h5.782c0.276,0,0.5,0.224,0.5,0.5
						S306.328,206.631,306.051,206.631z M294.487,206.631h-5.782c-0.276,0-0.5-0.224-0.5-0.5s0.224-0.5,0.5-0.5h5.782
						c0.276,0,0.5,0.224,0.5,0.5S294.763,206.631,294.487,206.631z M282.922,206.631h-5.782c-0.276,0-0.5-0.224-0.5-0.5
						s0.224-0.5,0.5-0.5h5.782c0.276,0,0.5,0.224,0.5,0.5S283.199,206.631,282.922,206.631z M272.158,205.831
						c-0.276,0-0.5-0.224-0.5-0.5v-5.782c0-0.276,0.224-0.5,0.5-0.5s0.5,0.224,0.5,0.5v5.782
						C272.658,205.607,272.434,205.831,272.158,205.831z M340.745,204.05c-0.276,0-0.5-0.224-0.5-0.5v-5.782
						c0-0.276,0.224-0.5,0.5-0.5s0.5,0.224,0.5,0.5v5.782C341.245,203.827,341.021,204.05,340.745,204.05z M272.158,194.267
						c-0.276,0-0.5-0.224-0.5-0.5v-5.782c0-0.276,0.224-0.5,0.5-0.5s0.5,0.224,0.5,0.5v5.782
						C272.658,194.043,272.434,194.267,272.158,194.267z M340.745,192.486c-0.276,0-0.5-0.224-0.5-0.5v-5.782
						c0-0.276,0.224-0.5,0.5-0.5s0.5,0.224,0.5,0.5v5.782C341.245,192.262,341.021,192.486,340.745,192.486z M272.158,182.702
						c-0.276,0-0.5-0.224-0.5-0.5v-5.782c0-0.276,0.224-0.5,0.5-0.5s0.5,0.224,0.5,0.5v5.782
						C272.658,182.479,272.434,182.702,272.158,182.702z M340.745,180.921c-0.276,0-0.5-0.224-0.5-0.5v-5.782
						c0-0.276,0.224-0.5,0.5-0.5s0.5,0.224,0.5,0.5v5.782C341.245,180.698,341.021,180.921,340.745,180.921z M272.158,171.138
						c-0.276,0-0.5-0.224-0.5-0.5v-5.783c0-0.276,0.224-0.5,0.5-0.5s0.5,0.224,0.5,0.5v5.783
						C272.658,170.914,272.434,171.138,272.158,171.138z M340.745,169.357c-0.276,0-0.5-0.224-0.5-0.5v-5.783
						c0-0.276,0.224-0.5,0.5-0.5s0.5,0.224,0.5,0.5v5.783C341.245,169.133,341.021,169.357,340.745,169.357z M272.158,159.573
						c-0.276,0-0.5-0.224-0.5-0.5v-5.782c0-0.276,0.224-0.5,0.5-0.5s0.5,0.224,0.5,0.5v5.782
						C272.658,159.349,272.434,159.573,272.158,159.573z M340.745,157.792c-0.276,0-0.5-0.224-0.5-0.5v-5.782
						c0-0.276,0.224-0.5,0.5-0.5s0.5,0.224,0.5,0.5v5.782C341.245,157.568,341.021,157.792,340.745,157.792z M272.158,148.008
						c-0.276,0-0.5-0.224-0.5-0.5v-5.782c0-0.276,0.224-0.5,0.5-0.5s0.5,0.224,0.5,0.5v5.782
						C272.658,147.785,272.434,148.008,272.158,148.008z M340.745,146.228c-0.276,0-0.5-0.224-0.5-0.5v-5.782
						c0-0.276,0.224-0.5,0.5-0.5s0.5,0.224,0.5,0.5v5.782C341.245,146.004,341.021,146.228,340.745,146.228z M337.363,138.044
						h-5.782c-0.276,0-0.5-0.224-0.5-0.5s0.224-0.5,0.5-0.5h5.782c0.276,0,0.5,0.224,0.5,0.5S337.64,138.044,337.363,138.044z
						 M325.799,138.044h-5.782c-0.276,0-0.5-0.224-0.5-0.5s0.224-0.5,0.5-0.5h5.782c0.276,0,0.5,0.224,0.5,0.5
						S326.075,138.044,325.799,138.044z M314.234,138.044h-5.782c-0.276,0-0.5-0.224-0.5-0.5s0.224-0.5,0.5-0.5h5.782
						c0.276,0,0.5,0.224,0.5,0.5S314.511,138.044,314.234,138.044z M302.67,138.044h-5.782c-0.276,0-0.5-0.224-0.5-0.5
						s0.224-0.5,0.5-0.5h5.782c0.276,0,0.5,0.224,0.5,0.5S302.946,138.044,302.67,138.044z M291.105,138.044h-5.782
						c-0.276,0-0.5-0.224-0.5-0.5s0.224-0.5,0.5-0.5h5.782c0.276,0,0.5,0.224,0.5,0.5S291.382,138.044,291.105,138.044z
						 M279.541,138.044h-5.782c-0.276,0-0.5-0.224-0.5-0.5s0.224-0.5,0.5-0.5h5.782c0.276,0,0.5,0.224,0.5,0.5
						S279.817,138.044,279.541,138.044z"/>
				</g>
			</g>
			<g>
				<g>
					<g>
						<g>
							<path style="fill:#F2E9DA;" d="M478.11,101.765v4.596c0,4.172-3.413,7.586-7.586,7.586H268.521
								c-4.172,0-7.586-3.414-7.586-7.586v-4.596c0-4.172,3.413-7.586,7.586-7.586h202.004
								C474.696,94.179,478.11,97.593,478.11,101.765z"/>
						</g>
					</g>
				</g>
				<g>
					<g>
						<g>
							<g>
								<path style="fill:#25292B;" d="M309.871,109.244h-1.799v-5.185c0-0.651-0.131-1.136-0.393-1.457
									c-0.262-0.32-0.677-0.48-1.246-0.48c-0.753,0-1.306,0.225-1.659,0.675c-0.353,0.45-0.53,1.203-0.53,2.261v4.186h-1.792
									V97.379h1.792v3.012c0,0.483-0.031,0.999-0.091,1.548h0.114c0.244-0.407,0.583-0.722,1.018-0.945s0.941-0.336,1.521-0.336
									c2.043,0,3.065,1.029,3.065,3.088V109.244z"/>
							</g>
						</g>
					</g>
					<g>
						<g>
							<g>
								<path style="fill:#25292B;" d="M315.506,107.947c0.437,0,0.874-0.069,1.312-0.206v1.35
									c-0.199,0.086-0.454,0.159-0.767,0.217c-0.312,0.058-0.636,0.088-0.972,0.088c-1.698,0-2.546-0.894-2.546-2.684v-4.544
									h-1.151v-0.793l1.235-0.656l0.61-1.784h1.106v1.876h2.402v1.357h-2.402v4.514c0,0.432,0.108,0.751,0.324,0.957
									C314.872,107.844,315.155,107.947,315.506,107.947z"/>
							</g>
						</g>
					</g>
					<g>
						<g>
							<g>
								<path style="fill:#25292B;" d="M321.645,107.947c0.437,0,0.874-0.069,1.312-0.206v1.35
									c-0.199,0.086-0.454,0.159-0.767,0.217c-0.312,0.058-0.636,0.088-0.972,0.088c-1.698,0-2.546-0.894-2.546-2.684v-4.544
									h-1.151v-0.793l1.235-0.656l0.61-1.784h1.106v1.876h2.402v1.357h-2.402v4.514c0,0.432,0.108,0.751,0.324,0.957
									C321.011,107.844,321.294,107.947,321.645,107.947z"/>
							</g>
						</g>
					</g>
					<g>
						<g>
							<g>
								<path style="fill:#25292B;" d="M328.918,109.396c-1.067,0-1.896-0.384-2.485-1.151h-0.107
									c0.071,0.712,0.107,1.144,0.107,1.296v3.454h-1.792V100.81h1.449c0.041,0.158,0.125,0.534,0.252,1.128h0.091
									c0.559-0.854,1.398-1.281,2.516-1.281c1.052,0,1.872,0.381,2.459,1.144c0.587,0.763,0.881,1.833,0.881,3.21
									c0,1.378-0.299,2.453-0.896,3.225C330.796,109.01,329.971,109.396,328.918,109.396z M328.484,102.122
									c-0.712,0-1.231,0.208-1.559,0.625c-0.328,0.417-0.491,1.082-0.491,1.998v0.267c0,1.027,0.162,1.77,0.488,2.23
									c0.325,0.46,0.857,0.69,1.594,0.69c0.62,0,1.098-0.254,1.433-0.762c0.335-0.508,0.503-1.233,0.503-2.173
									c0-0.945-0.167-1.661-0.499-2.146C329.619,102.365,329.13,102.122,328.484,102.122z"/>
							</g>
						</g>
					</g>
					<g>
						<g>
							<g>
								<path style="fill:#25292B;" d="M340.036,106.842c0,0.823-0.299,1.455-0.899,1.895c-0.6,0.44-1.459,0.66-2.577,0.66
									c-1.124,0-2.025-0.17-2.707-0.511v-1.548c0.991,0.457,1.914,0.686,2.768,0.686c1.103,0,1.654-0.333,1.654-0.999
									c0-0.213-0.061-0.391-0.183-0.534c-0.122-0.142-0.323-0.29-0.602-0.442c-0.28-0.152-0.669-0.325-1.167-0.519
									c-0.971-0.376-1.628-0.752-1.971-1.128c-0.343-0.376-0.515-0.864-0.515-1.464c0-0.722,0.291-1.282,0.874-1.681
									c0.582-0.399,1.374-0.598,2.375-0.598c0.991,0,1.929,0.201,2.814,0.602l-0.58,1.35c-0.91-0.376-1.675-0.564-2.295-0.564
									c-0.946,0-1.419,0.269-1.419,0.808c0,0.265,0.123,0.488,0.37,0.671c0.246,0.183,0.784,0.435,1.613,0.755
									c0.696,0.269,1.202,0.516,1.517,0.74c0.315,0.224,0.549,0.482,0.701,0.774C339.96,106.086,340.036,106.435,340.036,106.842z
									"/>
							</g>
						</g>
					</g>
					<g>
						<g>
							<g>
								<path style="fill:#25292B;" d="M341.706,101.779c0-0.767,0.376-1.151,1.128-1.151c0.381,0,0.666,0.102,0.854,0.305
									c0.188,0.203,0.282,0.486,0.282,0.846c0,0.361-0.098,0.647-0.293,0.858c-0.196,0.211-0.477,0.317-0.843,0.317
									c-0.366,0-0.646-0.104-0.839-0.313C341.802,102.432,341.706,102.145,341.706,101.779z M341.706,108.29
									c0-0.371,0.096-0.656,0.29-0.854c0.193-0.198,0.473-0.297,0.839-0.297c0.371,0,0.653,0.103,0.846,0.309
									c0.193,0.206,0.29,0.487,0.29,0.843c0,0.361-0.098,0.647-0.293,0.858c-0.196,0.211-0.477,0.316-0.843,0.316
									c-0.366,0-0.646-0.104-0.839-0.312C341.802,108.944,341.706,108.657,341.706,108.29z"/>
							</g>
						</g>
					</g>
					<g>
						<g>
							<g>
								<path style="fill:#25292B;" d="M350.947,98.096l-4.148,11.148h-1.693l4.155-11.148H350.947z"/>
							</g>
						</g>
					</g>
					<g>
						<g>
							<g>
								<path style="fill:#25292B;" d="M357.039,98.096l-4.148,11.148h-1.693l4.155-11.148H357.039z"/>
							</g>
						</g>
					</g>
				</g>
				<g>
					<g>
						<g>
							<path style="fill:#FFBD29;" d="M297.831,101.689v4.747c0,3.142-2.566,5.708-5.708,5.708h-23.326
								c-3.142,0-5.708-2.566-5.708-5.708v-4.747c0-3.142,2.566-5.708,5.708-5.708h23.326
								C295.265,95.981,297.831,98.547,297.831,101.689z"/>
						</g>
					</g>
				</g>
			</g>
		</g>
		<g>
			<g>
				<g>
					<g>
						<g>
							<g>
								<path style="fill:#25292B;" d="M424.194,235.417v9.194H128.102v-9.194c0-5.57,4.51-10.071,10.071-10.071h275.95
									C419.694,225.346,424.194,229.847,424.194,235.417z"/>
							</g>
						</g>
					</g>
				</g>
				<g>
					<g>
						<g>
							<g>
								<path style="fill:#FFBD29;" d="M406.242,237.722h-20.729c-1.373,0-2.497-1.124-2.497-2.497v0
									c0-1.373,1.124-2.497,2.497-2.497h20.729c1.373,0,2.497,1.124,2.497,2.497v0
									C408.738,236.598,407.615,237.722,406.242,237.722z"/>
							</g>
						</g>
					</g>
				</g>
				<g>
					<g>
						<g>
							<g>
								<path style="fill:#F2E9DA;" d="M372.135,237.722h-20.728c-1.373,0-2.497-1.124-2.497-2.497v0
									c0-1.373,1.124-2.497,2.497-2.497h20.728c1.373,0,2.497,1.124,2.497,2.497v0
									C374.632,236.598,373.509,237.722,372.135,237.722z"/>
							</g>
						</g>
					</g>
				</g>
				<g>
					<g>
						<g>
							<g>
								<path style="fill:#FFA727;" d="M337.977,237.722h-20.729c-1.373,0-2.497-1.124-2.497-2.497v0
									c0-1.373,1.124-2.497,2.497-2.497h20.729c1.373,0,2.497,1.124,2.497,2.497v0
									C340.473,236.598,339.35,237.722,337.977,237.722z"/>
							</g>
						</g>
					</g>
				</g>
				<g>
					<g>
						<g>
							<g>
								<path style="fill:#25292B;" d="M412.961,442.23H139.363c-6.723,0-12.193-5.47-12.193-12.193V237.03
									c0-6.723,5.47-12.193,12.193-12.193h273.598c6.708,0,12.165,5.47,12.165,12.193v193.007
									C425.126,436.76,419.669,442.23,412.961,442.23z M139.363,225.582c-6.312,0-11.448,5.135-11.448,11.448v193.007
									c0,6.312,5.135,11.448,11.448,11.448h273.598c6.297,0,11.42-5.136,11.42-11.448V237.03c0-6.312-5.123-11.448-11.42-11.448
									H139.363z"/>
							</g>
						</g>
					</g>
				</g>
			</g>
			<g>
				<g>
					<g>
						<g>
							<g>
								<rect x="142.613" y="264.021" style="fill:#F2E9DA;" width="68.383" height="68.383"/>
							</g>
							<g>
								<g>
									<g>
										<path style="fill:#FFBD29;" d="M178.615,322.987c-14.709,0-26.676-11.967-26.676-26.676
											c0-14.71,11.967-26.677,26.676-26.677c14.71,0,26.677,11.967,26.677,26.677
											C205.292,311.02,193.325,322.987,178.615,322.987z M178.615,274.943c-11.782,0-21.368,9.586-21.368,21.369
											c0,11.782,9.586,21.368,21.368,21.368c11.783,0,21.369-9.586,21.369-21.368
											C199.984,284.529,190.398,274.943,178.615,274.943z"/>
									</g>
								</g>
								<g>
									<path style="fill:#FFBD29;" d="M194.98,297.891l-22.587,13.735c-1.269,0.768-2.879-0.139-2.879-1.621v-27.46
										c0-1.472,1.61-2.378,2.879-1.61l22.587,13.725C196.196,295.395,196.196,297.155,194.98,297.891z"/>
								</g>
							</g>
							<g>
								<path style="fill:#25292B;" d="M212.807,331.002h-6.037c-0.276,0-0.5-0.224-0.5-0.5s0.224-0.5,0.5-0.5h6.037
									c0.276,0,0.5,0.224,0.5,0.5S213.083,331.002,212.807,331.002z M200.734,331.002h-6.037c-0.276,0-0.5-0.224-0.5-0.5
									s0.224-0.5,0.5-0.5h6.037c0.276,0,0.5,0.224,0.5,0.5S201.011,331.002,200.734,331.002z M188.661,331.002h-6.037
									c-0.276,0-0.5-0.224-0.5-0.5s0.224-0.5,0.5-0.5h6.037c0.276,0,0.5,0.224,0.5,0.5S188.938,331.002,188.661,331.002z
									 M176.588,331.002h-6.037c-0.276,0-0.5-0.224-0.5-0.5s0.224-0.5,0.5-0.5h6.037c0.276,0,0.5,0.224,0.5,0.5
									S176.865,331.002,176.588,331.002z M164.515,331.002h-6.037c-0.276,0-0.5-0.224-0.5-0.5s0.224-0.5,0.5-0.5h6.037
									c0.276,0,0.5,0.224,0.5,0.5S164.792,331.002,164.515,331.002z M152.442,331.002h-6.037c-0.276,0-0.5-0.224-0.5-0.5
									s0.224-0.5,0.5-0.5h6.037c0.276,0,0.5,0.224,0.5,0.5S152.719,331.002,152.442,331.002z M212.807,329.113
									c-0.276,0-0.5-0.224-0.5-0.5v-6.037c0-0.276,0.224-0.5,0.5-0.5s0.5,0.224,0.5,0.5v6.037
									C213.307,328.89,213.083,329.113,212.807,329.113z M144.424,326.947c-0.276,0-0.5-0.224-0.5-0.5v-6.037
									c0-0.276,0.224-0.5,0.5-0.5s0.5,0.224,0.5,0.5v6.037C144.924,326.724,144.701,326.947,144.424,326.947z M212.807,317.04
									c-0.276,0-0.5-0.224-0.5-0.5v-6.036c0-0.276,0.224-0.5,0.5-0.5s0.5,0.224,0.5,0.5v6.036
									C213.307,316.816,213.083,317.04,212.807,317.04z M144.424,314.874c-0.276,0-0.5-0.224-0.5-0.5v-6.037
									c0-0.276,0.224-0.5,0.5-0.5s0.5,0.224,0.5,0.5v6.037C144.924,314.65,144.701,314.874,144.424,314.874z M212.807,304.967
									c-0.276,0-0.5-0.224-0.5-0.5v-6.036c0-0.276,0.224-0.5,0.5-0.5s0.5,0.224,0.5,0.5v6.036
									C213.307,304.743,213.083,304.967,212.807,304.967z M144.424,302.801c-0.276,0-0.5-0.224-0.5-0.5v-6.036
									c0-0.276,0.224-0.5,0.5-0.5s0.5,0.224,0.5,0.5v6.036C144.924,302.577,144.701,302.801,144.424,302.801z M212.807,292.894
									c-0.276,0-0.5-0.224-0.5-0.5v-6.036c0-0.276,0.224-0.5,0.5-0.5s0.5,0.224,0.5,0.5v6.036
									C213.307,292.67,213.083,292.894,212.807,292.894z M144.424,290.728c-0.276,0-0.5-0.224-0.5-0.5v-6.036
									c0-0.276,0.224-0.5,0.5-0.5s0.5,0.224,0.5,0.5v6.036C144.924,290.504,144.701,290.728,144.424,290.728z M212.807,280.821
									c-0.276,0-0.5-0.224-0.5-0.5v-6.037c0-0.276,0.224-0.5,0.5-0.5s0.5,0.224,0.5,0.5v6.037
									C213.307,280.598,213.083,280.821,212.807,280.821z M144.424,278.655c-0.276,0-0.5-0.224-0.5-0.5v-6.037
									c0-0.276,0.224-0.5,0.5-0.5s0.5,0.224,0.5,0.5v6.037C144.924,278.432,144.701,278.655,144.424,278.655z M212.807,268.748
									c-0.276,0-0.5-0.224-0.5-0.5v-6.036c0-0.276,0.224-0.5,0.5-0.5s0.5,0.224,0.5,0.5v6.036
									C213.307,268.524,213.083,268.748,212.807,268.748z M144.424,266.582c-0.276,0-0.5-0.224-0.5-0.5v-3.963
									c0-0.276,0.224-0.5,0.5-0.5h2.074c0.276,0,0.5,0.224,0.5,0.5s-0.224,0.5-0.5,0.5h-1.574v3.463
									C144.924,266.358,144.701,266.582,144.424,266.582z M206.863,262.619h-6.037c-0.276,0-0.5-0.224-0.5-0.5s0.224-0.5,0.5-0.5
									h6.037c0.276,0,0.5,0.224,0.5,0.5S207.14,262.619,206.863,262.619z M194.79,262.619h-6.037c-0.276,0-0.5-0.224-0.5-0.5
									s0.224-0.5,0.5-0.5h6.037c0.276,0,0.5,0.224,0.5,0.5S195.066,262.619,194.79,262.619z M182.717,262.619h-6.037
									c-0.276,0-0.5-0.224-0.5-0.5s0.224-0.5,0.5-0.5h6.037c0.276,0,0.5,0.224,0.5,0.5S182.994,262.619,182.717,262.619z
									 M170.644,262.619h-6.037c-0.276,0-0.5-0.224-0.5-0.5s0.224-0.5,0.5-0.5h6.037c0.276,0,0.5,0.224,0.5,0.5
									S170.92,262.619,170.644,262.619z M158.571,262.619h-6.037c-0.276,0-0.5-0.224-0.5-0.5s0.224-0.5,0.5-0.5h6.037
									c0.276,0,0.5,0.224,0.5,0.5S158.848,262.619,158.571,262.619z"/>
							</g>
						</g>
						<g>
							<g>
								<path style="fill:#F2E9DA;" d="M209.031,347.245h-64.453c-1.081,0-1.965-0.884-1.965-1.965v-0.024
									c0-1.081,0.884-1.965,1.965-1.965h64.453c1.081,0,1.965,0.884,1.965,1.965v0.024
									C210.996,346.361,210.112,347.245,209.031,347.245z"/>
							</g>
							<g>
								<path style="fill:#F2E9DA;" d="M209.031,360.632h-64.453c-1.081,0-1.965-0.884-1.965-1.965v-0.024
									c0-1.081,0.884-1.965,1.965-1.965h64.453c1.081,0,1.965,0.884,1.965,1.965v0.024
									C210.996,359.748,210.112,360.632,209.031,360.632z"/>
							</g>
							<g>
								<path style="fill:#F2E9DA;" d="M209.031,375.143h-64.453c-1.081,0-1.965-0.884-1.965-1.965v-0.024
									c0-1.081,0.884-1.965,1.965-1.965h64.453c1.081,0,1.965,0.884,1.965,1.965v0.024
									C210.996,374.259,210.112,375.143,209.031,375.143z"/>
							</g>
							<g>
								<path style="fill:#F2E9DA;" d="M209.031,388.53h-64.453c-1.081,0-1.965-0.884-1.965-1.965v-0.024
									c0-1.081,0.884-1.965,1.965-1.965h64.453c1.081,0,1.965,0.884,1.965,1.965v0.024
									C210.996,387.646,210.112,388.53,209.031,388.53z"/>
							</g>
						</g>
					</g>
					<g>
						<g>
							<g>
								<rect x="227.575" y="264.021" style="fill:#F2E9DA;" width="68.383" height="68.383"/>
							</g>
							<g>
								<g>
									<g>
										<path style="fill:#FFBD29;" d="M263.578,322.987c-14.709,0-26.676-11.967-26.676-26.676
											c0-14.71,11.967-26.677,26.676-26.677c14.71,0,26.677,11.967,26.677,26.677
											C290.254,311.02,278.288,322.987,263.578,322.987z M263.578,274.943c-11.782,0-21.368,9.586-21.368,21.369
											c0,11.782,9.586,21.368,21.368,21.368c11.783,0,21.369-9.586,21.369-21.368
											C284.946,284.529,275.36,274.943,263.578,274.943z"/>
									</g>
								</g>
								<g>
									<path style="fill:#FFBD29;" d="M279.943,297.891l-22.587,13.735c-1.269,0.768-2.879-0.139-2.879-1.621v-27.46
										c0-1.472,1.61-2.378,2.879-1.61l22.587,13.725C281.159,295.395,281.159,297.155,279.943,297.891z"/>
								</g>
							</g>
							<g>
								<path style="fill:#25292B;" d="M297.769,331.002h-6.037c-0.276,0-0.5-0.224-0.5-0.5s0.224-0.5,0.5-0.5h6.037
									c0.276,0,0.5,0.224,0.5,0.5S298.045,331.002,297.769,331.002z M285.696,331.002h-6.037c-0.276,0-0.5-0.224-0.5-0.5
									s0.224-0.5,0.5-0.5h6.037c0.276,0,0.5,0.224,0.5,0.5S285.973,331.002,285.696,331.002z M273.623,331.002h-6.037
									c-0.276,0-0.5-0.224-0.5-0.5s0.224-0.5,0.5-0.5h6.037c0.276,0,0.5,0.224,0.5,0.5S273.899,331.002,273.623,331.002z
									 M261.55,331.002h-6.037c-0.276,0-0.5-0.224-0.5-0.5s0.224-0.5,0.5-0.5h6.037c0.276,0,0.5,0.224,0.5,0.5
									S261.827,331.002,261.55,331.002z M249.477,331.002h-6.037c-0.276,0-0.5-0.224-0.5-0.5s0.224-0.5,0.5-0.5h6.037
									c0.276,0,0.5,0.224,0.5,0.5S249.753,331.002,249.477,331.002z M237.404,331.002h-6.037c-0.276,0-0.5-0.224-0.5-0.5
									s0.224-0.5,0.5-0.5h6.037c0.276,0,0.5,0.224,0.5,0.5S237.681,331.002,237.404,331.002z M297.769,329.114
									c-0.276,0-0.5-0.224-0.5-0.5v-6.037c0-0.276,0.224-0.5,0.5-0.5s0.5,0.224,0.5,0.5v6.037
									C298.269,328.891,298.045,329.114,297.769,329.114z M229.387,326.946c-0.276,0-0.5-0.224-0.5-0.5v-6.036
									c0-0.276,0.224-0.5,0.5-0.5s0.5,0.224,0.5,0.5v6.036C229.887,326.723,229.663,326.946,229.387,326.946z M297.769,317.041
									c-0.276,0-0.5-0.224-0.5-0.5v-6.036c0-0.276,0.224-0.5,0.5-0.5s0.5,0.224,0.5,0.5v6.036
									C298.269,316.817,298.045,317.041,297.769,317.041z M229.387,314.873c-0.276,0-0.5-0.224-0.5-0.5v-6.036
									c0-0.276,0.224-0.5,0.5-0.5s0.5,0.224,0.5,0.5v6.036C229.887,314.649,229.663,314.873,229.387,314.873z M297.769,304.968
									c-0.276,0-0.5-0.224-0.5-0.5v-6.036c0-0.276,0.224-0.5,0.5-0.5s0.5,0.224,0.5,0.5v6.036
									C298.269,304.744,298.045,304.968,297.769,304.968z M229.387,302.801c-0.276,0-0.5-0.224-0.5-0.5v-6.037
									c0-0.276,0.224-0.5,0.5-0.5s0.5,0.224,0.5,0.5v6.037C229.887,302.577,229.663,302.801,229.387,302.801z M297.769,292.895
									c-0.276,0-0.5-0.224-0.5-0.5v-6.036c0-0.276,0.224-0.5,0.5-0.5s0.5,0.224,0.5,0.5v6.036
									C298.269,292.671,298.045,292.895,297.769,292.895z M229.387,290.728c-0.276,0-0.5-0.224-0.5-0.5v-6.037
									c0-0.276,0.224-0.5,0.5-0.5s0.5,0.224,0.5,0.5v6.037C229.887,290.504,229.663,290.728,229.387,290.728z M297.769,280.822
									c-0.276,0-0.5-0.224-0.5-0.5v-6.037c0-0.276,0.224-0.5,0.5-0.5s0.5,0.224,0.5,0.5v6.037
									C298.269,280.599,298.045,280.822,297.769,280.822z M229.387,278.654c-0.276,0-0.5-0.224-0.5-0.5v-6.036
									c0-0.276,0.224-0.5,0.5-0.5s0.5,0.224,0.5,0.5v6.036C229.887,278.431,229.663,278.654,229.387,278.654z M297.769,268.749
									c-0.276,0-0.5-0.224-0.5-0.5v-6.036c0-0.276,0.224-0.5,0.5-0.5s0.5,0.224,0.5,0.5v6.036
									C298.269,268.525,298.045,268.749,297.769,268.749z M229.387,266.581c-0.276,0-0.5-0.224-0.5-0.5v-3.962
									c0-0.276,0.224-0.5,0.5-0.5h2.074c0.276,0,0.5,0.224,0.5,0.5s-0.224,0.5-0.5,0.5h-1.574v3.462
									C229.887,266.357,229.663,266.581,229.387,266.581z M291.826,262.619h-6.037c-0.276,0-0.5-0.224-0.5-0.5s0.224-0.5,0.5-0.5
									h6.037c0.276,0,0.5,0.224,0.5,0.5S292.103,262.619,291.826,262.619z M279.753,262.619h-6.037c-0.276,0-0.5-0.224-0.5-0.5
									s0.224-0.5,0.5-0.5h6.037c0.276,0,0.5,0.224,0.5,0.5S280.029,262.619,279.753,262.619z M267.68,262.619h-6.037
									c-0.276,0-0.5-0.224-0.5-0.5s0.224-0.5,0.5-0.5h6.037c0.276,0,0.5,0.224,0.5,0.5S267.957,262.619,267.68,262.619z
									 M255.607,262.619h-6.037c-0.276,0-0.5-0.224-0.5-0.5s0.224-0.5,0.5-0.5h6.037c0.276,0,0.5,0.224,0.5,0.5
									S255.883,262.619,255.607,262.619z M243.534,262.619h-6.037c-0.276,0-0.5-0.224-0.5-0.5s0.224-0.5,0.5-0.5h6.037
									c0.276,0,0.5,0.224,0.5,0.5S243.811,262.619,243.534,262.619z"/>
							</g>
						</g>
						<g>
							<g>
								<path style="fill:#F2E9DA;" d="M293.993,347.245H229.54c-1.081,0-1.965-0.884-1.965-1.965v-0.024
									c0-1.081,0.884-1.965,1.965-1.965h64.453c1.081,0,1.965,0.884,1.965,1.965v0.024
									C295.958,346.361,295.074,347.245,293.993,347.245z"/>
							</g>
							<g>
								<path style="fill:#F2E9DA;" d="M293.993,360.632H229.54c-1.081,0-1.965-0.884-1.965-1.965v-0.024
									c0-1.081,0.884-1.965,1.965-1.965h64.453c1.081,0,1.965,0.884,1.965,1.965v0.024
									C295.958,359.748,295.074,360.632,293.993,360.632z"/>
							</g>
							<g>
								<path style="fill:#F2E9DA;" d="M293.993,375.143H229.54c-1.081,0-1.965-0.884-1.965-1.965v-0.024
									c0-1.081,0.884-1.965,1.965-1.965h64.453c1.081,0,1.965,0.884,1.965,1.965v0.024
									C295.958,374.259,295.074,375.143,293.993,375.143z"/>
							</g>
							<g>
								<path style="fill:#F2E9DA;" d="M293.993,388.53H229.54c-1.081,0-1.965-0.884-1.965-1.965v-0.024
									c0-1.081,0.884-1.965,1.965-1.965h64.453c1.081,0,1.965,0.884,1.965,1.965v0.024
									C295.958,387.646,295.074,388.53,293.993,388.53z"/>
							</g>
						</g>
					</g>
					<g>
						<g>
							<g>
								<rect x="311.81" y="264.021" style="fill:#F2E9DA;" width="68.383" height="68.383"/>
							</g>
							<g>
								<g>
									<g>
										<path style="fill:#FFBD29;" d="M347.812,322.987c-14.709,0-26.676-11.967-26.676-26.676
											c0-14.71,11.967-26.677,26.676-26.677c14.71,0,26.677,11.967,26.677,26.677
											C374.489,311.02,362.522,322.987,347.812,322.987z M347.812,274.943c-11.782,0-21.368,9.586-21.368,21.369
											c0,11.782,9.586,21.368,21.368,21.368c11.783,0,21.369-9.586,21.369-21.368
											C369.181,284.529,359.595,274.943,347.812,274.943z"/>
									</g>
								</g>
								<g>
									<path style="fill:#FFBD29;" d="M364.177,297.891l-22.587,13.735c-1.269,0.768-2.879-0.139-2.879-1.621v-27.46
										c0-1.472,1.61-2.378,2.879-1.61l22.587,13.725C365.393,295.395,365.393,297.155,364.177,297.891z"/>
								</g>
							</g>
							<g>
								<path style="fill:#25292B;" d="M382.004,331.002h-6.036c-0.276,0-0.5-0.224-0.5-0.5s0.224-0.5,0.5-0.5h6.036
									c0.276,0,0.5,0.224,0.5,0.5S382.28,331.002,382.004,331.002z M369.931,331.002h-6.036c-0.276,0-0.5-0.224-0.5-0.5
									s0.224-0.5,0.5-0.5h6.036c0.276,0,0.5,0.224,0.5,0.5S370.207,331.002,369.931,331.002z M357.858,331.002h-6.037
									c-0.276,0-0.5-0.224-0.5-0.5s0.224-0.5,0.5-0.5h6.037c0.276,0,0.5,0.224,0.5,0.5S358.135,331.002,357.858,331.002z
									 M345.785,331.002h-6.037c-0.276,0-0.5-0.224-0.5-0.5s0.224-0.5,0.5-0.5h6.037c0.276,0,0.5,0.224,0.5,0.5
									S346.062,331.002,345.785,331.002z M333.712,331.002h-6.036c-0.276,0-0.5-0.224-0.5-0.5s0.224-0.5,0.5-0.5h6.036
									c0.276,0,0.5,0.224,0.5,0.5S333.988,331.002,333.712,331.002z M321.639,331.002h-6.037c-0.276,0-0.5-0.224-0.5-0.5
									s0.224-0.5,0.5-0.5h6.037c0.276,0,0.5,0.224,0.5,0.5S321.916,331.002,321.639,331.002z M382.004,329.113
									c-0.276,0-0.5-0.224-0.5-0.5v-6.037c0-0.276,0.224-0.5,0.5-0.5s0.5,0.224,0.5,0.5v6.037
									C382.504,328.89,382.28,329.113,382.004,329.113z M313.621,326.947c-0.276,0-0.5-0.224-0.5-0.5v-6.037
									c0-0.276,0.224-0.5,0.5-0.5s0.5,0.224,0.5,0.5v6.037C314.121,326.724,313.897,326.947,313.621,326.947z M382.004,317.04
									c-0.276,0-0.5-0.224-0.5-0.5v-6.036c0-0.276,0.224-0.5,0.5-0.5s0.5,0.224,0.5,0.5v6.036
									C382.504,316.816,382.28,317.04,382.004,317.04z M313.621,314.874c-0.276,0-0.5-0.224-0.5-0.5v-6.037
									c0-0.276,0.224-0.5,0.5-0.5s0.5,0.224,0.5,0.5v6.037C314.121,314.65,313.897,314.874,313.621,314.874z M382.004,304.967
									c-0.276,0-0.5-0.224-0.5-0.5v-6.036c0-0.276,0.224-0.5,0.5-0.5s0.5,0.224,0.5,0.5v6.036
									C382.504,304.743,382.28,304.967,382.004,304.967z M313.621,302.801c-0.276,0-0.5-0.224-0.5-0.5v-6.036
									c0-0.276,0.224-0.5,0.5-0.5s0.5,0.224,0.5,0.5v6.036C314.121,302.577,313.897,302.801,313.621,302.801z M382.004,292.894
									c-0.276,0-0.5-0.224-0.5-0.5v-6.036c0-0.276,0.224-0.5,0.5-0.5s0.5,0.224,0.5,0.5v6.036
									C382.504,292.67,382.28,292.894,382.004,292.894z M313.621,290.728c-0.276,0-0.5-0.224-0.5-0.5v-6.036
									c0-0.276,0.224-0.5,0.5-0.5s0.5,0.224,0.5,0.5v6.036C314.121,290.504,313.897,290.728,313.621,290.728z M382.004,280.821
									c-0.276,0-0.5-0.224-0.5-0.5v-6.037c0-0.276,0.224-0.5,0.5-0.5s0.5,0.224,0.5,0.5v6.037
									C382.504,280.598,382.28,280.821,382.004,280.821z M313.621,278.655c-0.276,0-0.5-0.224-0.5-0.5v-6.037
									c0-0.276,0.224-0.5,0.5-0.5s0.5,0.224,0.5,0.5v6.037C314.121,278.432,313.897,278.655,313.621,278.655z M382.004,268.748
									c-0.276,0-0.5-0.224-0.5-0.5v-6.036c0-0.276,0.224-0.5,0.5-0.5s0.5,0.224,0.5,0.5v6.036
									C382.504,268.524,382.28,268.748,382.004,268.748z M313.621,266.582c-0.276,0-0.5-0.224-0.5-0.5v-3.963
									c0-0.276,0.224-0.5,0.5-0.5h2.074c0.276,0,0.5,0.224,0.5,0.5s-0.224,0.5-0.5,0.5h-1.574v3.463
									C314.121,266.358,313.897,266.582,313.621,266.582z M376.06,262.619h-6.036c-0.276,0-0.5-0.224-0.5-0.5s0.224-0.5,0.5-0.5
									h6.036c0.276,0,0.5,0.224,0.5,0.5S376.336,262.619,376.06,262.619z M363.987,262.619h-6.037c-0.276,0-0.5-0.224-0.5-0.5
									s0.224-0.5,0.5-0.5h6.037c0.276,0,0.5,0.224,0.5,0.5S364.264,262.619,363.987,262.619z M351.914,262.619h-6.037
									c-0.276,0-0.5-0.224-0.5-0.5s0.224-0.5,0.5-0.5h6.037c0.276,0,0.5,0.224,0.5,0.5S352.19,262.619,351.914,262.619z
									 M339.841,262.619h-6.036c-0.276,0-0.5-0.224-0.5-0.5s0.224-0.5,0.5-0.5h6.036c0.276,0,0.5,0.224,0.5,0.5
									S340.117,262.619,339.841,262.619z M327.768,262.619h-6.036c-0.276,0-0.5-0.224-0.5-0.5s0.224-0.5,0.5-0.5h6.036
									c0.276,0,0.5,0.224,0.5,0.5S328.044,262.619,327.768,262.619z"/>
							</g>
						</g>
						<g>
							<g>
								<path style="fill:#F2E9DA;" d="M378.228,347.245h-64.453c-1.081,0-1.965-0.884-1.965-1.965v-0.024
									c0-1.081,0.884-1.965,1.965-1.965h64.453c1.081,0,1.965,0.884,1.965,1.965v0.024
									C380.192,346.361,379.308,347.245,378.228,347.245z"/>
							</g>
							<g>
								<path style="fill:#F2E9DA;" d="M378.228,360.632h-64.453c-1.081,0-1.965-0.884-1.965-1.965v-0.024
									c0-1.081,0.884-1.965,1.965-1.965h64.453c1.081,0,1.965,0.884,1.965,1.965v0.024
									C380.192,359.748,379.308,360.632,378.228,360.632z"/>
							</g>
							<g>
								<path style="fill:#F2E9DA;" d="M378.228,375.143h-64.453c-1.081,0-1.965-0.884-1.965-1.965v-0.024
									c0-1.081,0.884-1.965,1.965-1.965h64.453c1.081,0,1.965,0.884,1.965,1.965v0.024
									C380.192,374.259,379.308,375.143,378.228,375.143z"/>
							</g>
							<g>
								<path style="fill:#F2E9DA;" d="M378.228,388.53h-64.453c-1.081,0-1.965-0.884-1.965-1.965v-0.024
									c0-1.081,0.884-1.965,1.965-1.965h64.453c1.081,0,1.965,0.884,1.965,1.965v0.024
									C380.192,387.646,379.308,388.53,378.228,388.53z"/>
							</g>
						</g>
					</g>
				</g>
				<g>
					<g>
						<path style="fill:#FFBD29;" d="M330.791,409.93l-16.228,16.228h-163.83c-1.751,0-3.37-0.563-4.698-1.509
							c-1.398-0.996-2.475-2.425-3.018-4.095c-0.262-0.785-0.402-1.63-0.402-2.505c0-2.234,0.916-4.266,2.384-5.735
							s3.501-2.384,5.735-2.384H330.791z"/>
					</g>
					<g>
						<path style="fill:#25292B;" d="M392.242,418.049c0,2.223-0.916,4.256-2.384,5.725c-1.469,1.479-3.501,2.384-5.735,2.384
							h-69.561l16.228-16.228h53.332C388.59,409.93,392.242,413.582,392.242,418.049z"/>
					</g>
					<g>
						<g>
							<g>
								<polygon style="fill:#FFFFFF;" points="323.99,409.93 307.761,426.158 300.658,426.158 316.877,409.93 								"/>
							</g>
						</g>
						<g>
							<g>
								<polygon style="fill:#FFFFFF;" points="309.15,409.93 292.922,426.158 285.819,426.158 302.037,409.93 								"/>
							</g>
						</g>
						<g>
							<g>
								<polygon style="fill:#FFFFFF;" points="294.31,409.93 278.082,426.158 270.979,426.158 287.197,409.93 								"/>
							</g>
						</g>
						<g>
							<g>
								<polygon style="fill:#FFFFFF;" points="279.47,409.93 263.242,426.158 256.139,426.158 272.357,409.93 								"/>
							</g>
						</g>
						<g>
							<g>
								<polygon style="fill:#FFFFFF;" points="264.631,409.93 248.403,426.158 241.29,426.158 257.518,409.93 								"/>
							</g>
						</g>
						<g>
							<g>
								<polygon style="fill:#FFFFFF;" points="249.791,409.93 233.563,426.158 226.45,426.158 242.678,409.93 								"/>
							</g>
						</g>
						<g>
							<g>
								<polygon style="fill:#FFFFFF;" points="234.951,409.93 218.723,426.158 211.61,426.158 227.838,409.93 								"/>
							</g>
						</g>
						<g>
							<g>
								<polygon style="fill:#FFFFFF;" points="220.112,409.93 203.883,426.158 196.77,426.158 212.999,409.93 								"/>
							</g>
						</g>
						<g>
							<g>
								<polygon style="fill:#FFFFFF;" points="205.272,409.93 189.044,426.158 181.931,426.158 198.159,409.93 								"/>
							</g>
						</g>
						<g>
							<g>
								<polygon style="fill:#FFFFFF;" points="190.432,409.93 174.204,426.158 167.091,426.158 183.319,409.93 								"/>
							</g>
						</g>
						<g>
							<g>
								<polygon style="fill:#FFFFFF;" points="175.592,409.93 159.364,426.158 152.251,426.158 168.479,409.93 								"/>
							</g>
						</g>
						<g>
							<g>
								<path style="fill:#FFFFFF;" d="M160.753,409.93l-14.719,14.719c-1.398-0.996-2.475-2.425-3.018-4.095l10.624-10.624H160.753
									z"/>
							</g>
						</g>
					</g>
				</g>
			</g>
		</g>
	</g>
	<g>
		<g>
			<g>
				<g>
					<g>
						<path style="fill:#FFA727;" d="M499.033,206.542c9.854,150.557,66.357,179.788,66.357,179.788
							S589.355,327.399,499.033,206.542z"/>
					</g>
				</g>
				<g>
					<g>
						
							<rect x="535.812" y="228.755" transform="matrix(0.9381 -0.3463 0.3463 0.9381 -73.2497 204.6874)" style="fill:#25292B;" width="0.857" height="157.19"/>
					</g>
				</g>
				<g>
					<g>
						<polygon style="fill:#25292B;" points="526.074,279.807 507.355,260.709 507.968,260.109 525.349,277.841 527.041,253.069 
							527.898,253.127 						"/>
					</g>
				</g>
				<g>
					<g>
						<polygon style="fill:#25292B;" points="554.324,356.345 535.604,337.247 536.218,336.647 553.598,354.38 555.291,329.607 
							556.147,329.665 						"/>
					</g>
				</g>
				<g>
					<g>
						<polygon style="fill:#25292B;" points="539.289,315.612 520.571,296.514 521.184,295.915 538.564,313.646 540.257,288.874 
							541.113,288.933 						"/>
					</g>
				</g>
			</g>
			<g>
				<g>
					<g>
						<path style="fill:#FFA727;" d="M631.815,206.543c-9.854,150.557-66.357,179.788-66.357,179.788S541.493,327.4,631.815,206.543
							z"/>
					</g>
				</g>
				<g>
					<g>
						
							<rect x="516.014" y="306.922" transform="matrix(0.346 -0.9382 0.9382 0.346 100.518 758.9012)" style="fill:#25292B;" width="157.189" height="0.857"/>
					</g>
				</g>
				<g>
					<g>
						<polygon style="fill:#25292B;" points="604.773,279.807 602.95,253.127 603.806,253.069 605.499,277.842 622.879,260.109 
							623.493,260.709 						"/>
					</g>
				</g>
				<g>
					<g>
						<polygon style="fill:#25292B;" points="576.525,356.345 574.701,329.665 575.558,329.607 577.25,354.38 594.631,336.647 
							595.244,337.247 						"/>
					</g>
				</g>
				<g>
					<g>
						<polygon style="fill:#25292B;" points="591.558,315.612 589.735,288.933 590.591,288.874 592.284,313.646 609.665,295.915 
							610.278,296.514 						"/>
					</g>
				</g>
			</g>
			<g>
				<g>
					<g>
						<path style="fill:#FFBD29;" d="M565.435,194.688c42.887,144.655,0,191.643,0,191.643S522.548,339.343,565.435,194.688z"/>
					</g>
				</g>
				<g>
					<g>
						<rect x="565.007" y="223.548" style="fill:#25292B;" width="0.858" height="157.19"/>
					</g>
				</g>
				<g>
					<g>
						<polygon style="fill:#25292B;" points="565.436,272.784 554.487,248.385 555.27,248.033 565.436,270.687 575.6,248.033 
							576.383,248.385 						"/>
					</g>
				</g>
				<g>
					<g>
						<polygon style="fill:#25292B;" points="565.436,354.369 554.487,329.97 555.27,329.618 565.436,352.272 575.6,329.618 
							576.383,329.97 						"/>
					</g>
				</g>
				<g>
					<g>
						<polygon style="fill:#25292B;" points="565.436,310.95 554.487,286.551 555.27,286.199 565.436,308.854 575.6,286.199 
							576.383,286.551 						"/>
					</g>
				</g>
			</g>
		</g>
		<g>
			<polygon style="fill:#F2D9AF;" points="546.06,447.097 534.488,363.822 596.36,363.822 585.157,446.691 			"/>
			<path style="fill:#25292B;" d="M546.06,447.597c-0.249,0-0.461-0.184-0.495-0.432l-11.572-83.274
				c-0.021-0.143,0.023-0.288,0.118-0.396c0.095-0.109,0.232-0.172,0.377-0.172h61.873c0.145,0,0.281,0.063,0.377,0.171
				c0.095,0.108,0.138,0.253,0.118,0.396l-11.204,82.869c-0.033,0.246-0.241,0.43-0.49,0.433l-39.097,0.405
				C546.064,447.597,546.062,447.597,546.06,447.597z M535.062,364.322l11.433,82.27l38.225-0.396l11.069-81.874H535.062z"/>
		</g>
	</g>
	<g>
		<path style="fill:#25292B;" d="M247.113,208.861h-1.267c-0.276,0-0.5-0.224-0.5-0.5s0.224-0.5,0.5-0.5h1.267
			c1.387,0,2.661-0.637,3.495-1.748c0.166-0.221,0.479-0.265,0.7-0.1c0.221,0.166,0.265,0.479,0.1,0.7
			C250.383,208.079,248.818,208.861,247.113,208.861z M240.064,208.861h-5.782c-0.276,0-0.5-0.224-0.5-0.5s0.224-0.5,0.5-0.5h5.782
			c0.276,0,0.5,0.224,0.5,0.5S240.34,208.861,240.064,208.861z M228.5,208.861h-5.782c-0.276,0-0.5-0.224-0.5-0.5s0.224-0.5,0.5-0.5
			h5.782c0.276,0,0.5,0.224,0.5,0.5S228.776,208.861,228.5,208.861z M216.935,208.861h-5.782c-0.276,0-0.5-0.224-0.5-0.5
			s0.224-0.5,0.5-0.5h5.782c0.276,0,0.5,0.224,0.5,0.5S217.211,208.861,216.935,208.861z M205.37,208.861h-5.782
			c-0.276,0-0.5-0.224-0.5-0.5s0.224-0.5,0.5-0.5h5.782c0.276,0,0.5,0.224,0.5,0.5S205.646,208.861,205.37,208.861z
			 M193.806,208.861h-5.782c-0.276,0-0.5-0.224-0.5-0.5s0.224-0.5,0.5-0.5h5.782c0.276,0,0.5,0.224,0.5,0.5
			S194.082,208.861,193.806,208.861z M182.241,208.861h-5.782c-0.276,0-0.5-0.224-0.5-0.5s0.224-0.5,0.5-0.5h5.782
			c0.276,0,0.5,0.224,0.5,0.5S182.518,208.861,182.241,208.861z M170.677,208.861h-5.782c-0.276,0-0.5-0.224-0.5-0.5
			s0.224-0.5,0.5-0.5h5.782c0.276,0,0.5,0.224,0.5,0.5S170.953,208.861,170.677,208.861z M159.112,208.861h-1.393
			c-1.65,0-3.184-0.742-4.209-2.036c-0.171-0.216-0.135-0.531,0.082-0.703c0.216-0.173,0.531-0.135,0.703,0.082
			c0.834,1.053,2.083,1.657,3.425,1.657h1.393c0.276,0,0.5,0.224,0.5,0.5S159.388,208.861,159.112,208.861z M152.852,201.471
			c-0.276,0-0.5-0.224-0.5-0.5v-5.782c0-0.276,0.224-0.5,0.5-0.5s0.5,0.224,0.5,0.5v5.782
			C153.352,201.248,153.128,201.471,152.852,201.471z M251.979,201.344c-0.276,0-0.5-0.224-0.5-0.5v-5.782
			c0-0.276,0.224-0.5,0.5-0.5s0.5,0.224,0.5,0.5v5.782C252.479,201.121,252.256,201.344,251.979,201.344z M152.852,189.907
			c-0.276,0-0.5-0.224-0.5-0.5v-5.782c0-0.276,0.224-0.5,0.5-0.5s0.5,0.224,0.5,0.5v5.782
			C153.352,189.683,153.128,189.907,152.852,189.907z M251.979,189.78c-0.276,0-0.5-0.224-0.5-0.5v-5.782c0-0.276,0.224-0.5,0.5-0.5
			s0.5,0.224,0.5,0.5v5.782C252.479,189.556,252.256,189.78,251.979,189.78z M152.852,178.342c-0.276,0-0.5-0.224-0.5-0.5v-5.782
			c0-0.276,0.224-0.5,0.5-0.5s0.5,0.224,0.5,0.5v5.782C153.352,178.119,153.128,178.342,152.852,178.342z M251.979,178.215
			c-0.276,0-0.5-0.224-0.5-0.5v-5.782c0-0.276,0.224-0.5,0.5-0.5s0.5,0.224,0.5,0.5v5.782
			C252.479,177.991,252.256,178.215,251.979,178.215z M152.852,166.778c-0.276,0-0.5-0.224-0.5-0.5v-5.783
			c0-0.276,0.224-0.5,0.5-0.5s0.5,0.224,0.5,0.5v5.783C153.352,166.554,153.128,166.778,152.852,166.778z M251.979,166.65
			c-0.276,0-0.5-0.224-0.5-0.5v-5.782c0-0.276,0.224-0.5,0.5-0.5s0.5,0.224,0.5,0.5v5.782
			C252.479,166.427,252.256,166.65,251.979,166.65z M152.852,155.213c-0.276,0-0.5-0.224-0.5-0.5v-5.782c0-0.276,0.224-0.5,0.5-0.5
			s0.5,0.224,0.5,0.5v5.782C153.352,154.989,153.128,155.213,152.852,155.213z M251.979,155.086c-0.276,0-0.5-0.224-0.5-0.5v-5.782
			c0-0.276,0.224-0.5,0.5-0.5s0.5,0.224,0.5,0.5v5.782C252.479,154.862,252.256,155.086,251.979,155.086z M152.852,143.648
			c-0.276,0-0.5-0.224-0.5-0.5v-5.782c0-0.276,0.224-0.5,0.5-0.5s0.5,0.224,0.5,0.5v5.782
			C153.352,143.425,153.128,143.648,152.852,143.648z M251.979,143.521c-0.276,0-0.5-0.224-0.5-0.5v-5.782
			c0-0.276,0.224-0.5,0.5-0.5s0.5,0.224,0.5,0.5v5.782C252.479,143.298,252.256,143.521,251.979,143.521z M152.852,132.084
			c-0.276,0-0.5-0.224-0.5-0.5v-5.782c0-0.276,0.224-0.5,0.5-0.5s0.5,0.224,0.5,0.5v5.782
			C153.352,131.86,153.128,132.084,152.852,132.084z M251.979,131.957c-0.276,0-0.5-0.224-0.5-0.5v-5.782c0-0.276,0.224-0.5,0.5-0.5
			s0.5,0.224,0.5,0.5v5.782C252.479,131.733,252.256,131.957,251.979,131.957z M152.852,120.52c-0.276,0-0.5-0.224-0.5-0.5v-5.783
			c0-0.276,0.224-0.5,0.5-0.5s0.5,0.224,0.5,0.5v5.783C153.352,120.296,153.128,120.52,152.852,120.52z M251.979,120.392
			c-0.276,0-0.5-0.224-0.5-0.5v-5.782c0-0.132,0.051-0.252,0.135-0.341c-0.096-0.076-0.164-0.187-0.183-0.317
			c-0.264-1.745-1.595-3.188-3.313-3.592c-0.269-0.063-0.436-0.333-0.373-0.601c0.063-0.27,0.335-0.433,0.601-0.373
			c2.112,0.497,3.749,2.271,4.073,4.417c0.023,0.157-0.029,0.308-0.129,0.416c0.115,0.092,0.189,0.233,0.189,0.392v5.782
			C252.479,120.168,252.256,120.392,251.979,120.392z M155.781,110.144c-0.193,0-0.377-0.112-0.458-0.301
			c-0.11-0.253,0.006-0.548,0.259-0.658c0.676-0.293,1.395-0.442,2.137-0.442h3.789c0.276,0,0.5,0.224,0.5,0.5s-0.224,0.5-0.5,0.5
			h-3.789c-0.604,0-1.189,0.121-1.738,0.359C155.916,110.131,155.848,110.144,155.781,110.144z M242.46,109.743h-5.782
			c-0.276,0-0.5-0.224-0.5-0.5s0.224-0.5,0.5-0.5h5.782c0.276,0,0.5,0.224,0.5,0.5S242.736,109.743,242.46,109.743z
			 M230.896,109.743h-5.782c-0.276,0-0.5-0.224-0.5-0.5s0.224-0.5,0.5-0.5h5.782c0.276,0,0.5,0.224,0.5,0.5
			S231.172,109.743,230.896,109.743z M219.331,109.743h-5.783c-0.276,0-0.5-0.224-0.5-0.5s0.224-0.5,0.5-0.5h5.783
			c0.276,0,0.5,0.224,0.5,0.5S219.607,109.743,219.331,109.743z M207.766,109.743h-5.782c-0.276,0-0.5-0.224-0.5-0.5
			s0.224-0.5,0.5-0.5h5.782c0.276,0,0.5,0.224,0.5,0.5S208.042,109.743,207.766,109.743z M196.202,109.743h-5.782
			c-0.276,0-0.5-0.224-0.5-0.5s0.224-0.5,0.5-0.5h5.782c0.276,0,0.5,0.224,0.5,0.5S196.478,109.743,196.202,109.743z
			 M184.637,109.743h-5.782c-0.276,0-0.5-0.224-0.5-0.5s0.224-0.5,0.5-0.5h5.782c0.276,0,0.5,0.224,0.5,0.5
			S184.914,109.743,184.637,109.743z M173.072,109.743h-5.782c-0.276,0-0.5-0.224-0.5-0.5s0.224-0.5,0.5-0.5h5.782
			c0.276,0,0.5,0.224,0.5,0.5S173.349,109.743,173.072,109.743z"/>
	</g>
	<g>
		<g>
			<g>
				<g>
					<g>
						<g>
							<path style="fill:#25292B;" d="M441.617,243.852L441.617,243.852c-0.147,0-0.283-0.079-0.356-0.206l-3.881-6.719
								c-0.074-0.127-0.074-0.284,0-0.411l3.881-6.718c0.073-0.127,0.209-0.206,0.356-0.206l0,0c0.147,0,0.283,0.078,0.356,0.205
								l3.89,6.718c0.074,0.128,0.074,0.285,0,0.413l-3.89,6.719C441.899,243.774,441.764,243.852,441.617,243.852z M438.21,236.722
								l3.407,5.897l3.414-5.897l-3.414-5.896L438.21,236.722z"/>
						</g>
					</g>
				</g>
			</g>
			<g>
				<g>
					<g>
						<g>
							<path style="fill:#25292B;" d="M430.824,235.802c-1.292,0-2.344-1.052-2.344-2.344c0-1.292,1.052-2.343,2.344-2.343
								s2.343,1.051,2.343,2.343C433.167,234.75,432.116,235.802,430.824,235.802z M430.824,231.938
								c-0.839,0-1.521,0.682-1.521,1.52c0,0.839,0.682,1.521,1.521,1.521c0.838,0,1.52-0.682,1.52-1.521
								C432.344,232.62,431.662,231.938,430.824,231.938z"/>
						</g>
					</g>
				</g>
			</g>
			<g>
				<g>
					<g>
						<g>
							<path style="fill:#25292B;" d="M437.735,227.181c-1.129,0-2.048-0.919-2.048-2.048c0-1.128,0.919-2.047,2.048-2.047
								c1.129,0,2.048,0.919,2.048,2.047C439.783,226.263,438.864,227.181,437.735,227.181z M437.735,223.91
								c-0.675,0-1.225,0.549-1.225,1.224s0.55,1.225,1.225,1.225s1.225-0.55,1.225-1.225S438.41,223.91,437.735,223.91z"/>
						</g>
					</g>
				</g>
			</g>
			<g>
				<g>
					<g>
						<g>
							<path style="fill:#25292B;" d="M428.891,228.124c-0.836,0-1.516-0.68-1.516-1.516s0.68-1.516,1.516-1.516
								c0.836,0,1.516,0.681,1.516,1.516S429.727,228.124,428.891,228.124z M428.891,225.915c-0.382,0-0.693,0.311-0.693,0.694
								c0,0.382,0.311,0.693,0.693,0.693s0.693-0.311,0.693-0.693C429.584,226.226,429.273,225.915,428.891,225.915z"/>
						</g>
					</g>
				</g>
			</g>
		</g>
		<g>
			<g>
				<g>
					<g>
						<g>
							<path style="fill:#25292B;" d="M257.229,90.176L257.229,90.176c-0.147,0-0.283-0.078-0.356-0.206l-2.969-5.141
								c-0.074-0.127-0.074-0.284,0-0.411l2.969-5.141c0.073-0.127,0.209-0.206,0.356-0.206l0,0c0.147,0,0.283,0.078,0.356,0.205
								l2.977,5.141c0.074,0.127,0.074,0.285,0,0.412l-2.977,5.141C257.512,90.097,257.376,90.176,257.229,90.176z M254.734,84.624
								l2.495,4.319l2.5-4.319l-2.5-4.319L254.734,84.624z"/>
						</g>
					</g>
				</g>
			</g>
			<g>
				<g>
					<g>
						<g>
							<path style="fill:#25292B;" d="M250.203,82.458c-1.292,0-2.344-1.052-2.344-2.344c0-1.293,1.052-2.344,2.344-2.344
								c1.292,0,2.343,1.051,2.343,2.344C252.546,81.407,251.495,82.458,250.203,82.458z M250.203,78.593
								c-0.839,0-1.521,0.682-1.521,1.521c0,0.839,0.682,1.521,1.521,1.521c0.838,0,1.52-0.682,1.52-1.521
								C251.723,79.276,251.041,78.593,250.203,78.593z"/>
						</g>
					</g>
				</g>
			</g>
			<g>
				<g>
					<g>
						<g>
							<path style="fill:#25292B;" d="M257.115,76.661c-1.129,0-2.048-0.919-2.048-2.048c0-1.129,0.919-2.047,2.048-2.047
								c1.129,0,2.048,0.919,2.048,2.047C259.162,75.743,258.244,76.661,257.115,76.661z M257.115,73.389
								c-0.675,0-1.225,0.549-1.225,1.224c0,0.675,0.55,1.225,1.225,1.225s1.225-0.549,1.225-1.225
								C258.339,73.939,257.79,73.389,257.115,73.389z"/>
						</g>
					</g>
				</g>
			</g>
			<g>
				<g>
					<g>
						<g>
							<path style="fill:#25292B;" d="M250.203,74.493c-0.836,0-1.516-0.68-1.516-1.516s0.68-1.516,1.516-1.516
								s1.516,0.68,1.516,1.516S251.039,74.493,250.203,74.493z M250.203,72.285c-0.382,0-0.693,0.311-0.693,0.693
								s0.311,0.693,0.693,0.693c0.382,0,0.693-0.311,0.693-0.693S250.585,72.285,250.203,72.285z"/>
						</g>
					</g>
				</g>
			</g>
		</g>
		<g>
			<g>
				<g>
					<g>
						<g>
							<path style="fill:#25292B;" d="M598.174,228.452L598.174,228.452c-0.147,0-0.283-0.079-0.356-0.206l-3.881-6.719
								c-0.073-0.127-0.073-0.284,0-0.411l3.881-6.718c0.074-0.127,0.209-0.206,0.356-0.206l0,0c0.147,0,0.282,0.078,0.356,0.205
								l3.89,6.718c0.074,0.128,0.074,0.285,0,0.413l-3.89,6.719C598.456,228.374,598.32,228.452,598.174,228.452z M594.767,221.322
								l3.406,5.897l3.414-5.897l-3.414-5.896L594.767,221.322z"/>
						</g>
					</g>
				</g>
			</g>
			<g>
				<g>
					<g>
						<g>
							<path style="fill:#25292B;" d="M582.115,216.536c-1.293,0-2.344-1.051-2.344-2.343c0-1.292,1.052-2.344,2.344-2.344
								c1.292,0,2.344,1.052,2.344,2.344C584.459,215.485,583.407,216.536,582.115,216.536z M582.115,212.672
								c-0.839,0-1.521,0.682-1.521,1.521c0,0.838,0.682,1.52,1.521,1.52c0.839,0,1.521-0.682,1.521-1.52
								C583.636,213.354,582.954,212.672,582.115,212.672z"/>
						</g>
					</g>
				</g>
			</g>
			<g>
				<g>
					<g>
						<g>
							<path style="fill:#25292B;" d="M594.504,211.782c-1.129,0-2.047-0.919-2.047-2.047c0-1.129,0.919-2.048,2.047-2.048
								c1.129,0,2.048,0.919,2.048,2.048C596.551,210.863,595.633,211.782,594.504,211.782z M594.504,208.51
								c-0.675,0-1.224,0.55-1.224,1.225s0.549,1.224,1.224,1.224c0.675,0,1.225-0.549,1.225-1.224S595.179,208.51,594.504,208.51z"
								/>
						</g>
					</g>
				</g>
			</g>
			<g>
				<g>
					<g>
						<g>
							<path style="fill:#25292B;" d="M606.177,219.501c-0.836,0-1.516-0.68-1.516-1.516s0.68-1.516,1.516-1.516
								s1.516,0.68,1.516,1.516S607.013,219.501,606.177,219.501z M606.177,217.293c-0.382,0-0.693,0.311-0.693,0.693
								c0,0.382,0.311,0.693,0.693,0.693c0.382,0,0.693-0.311,0.693-0.693C606.87,217.604,606.559,217.293,606.177,217.293z"/>
						</g>
					</g>
				</g>
			</g>
			<g>
				<g>
					<g>
						<g>
							<path style="fill:#25292B;" d="M606.643,211.782L606.643,211.782c-0.147,0-0.283-0.079-0.356-0.206l-2.438-4.219
								c-0.074-0.127-0.074-0.284,0-0.411l2.438-4.22c0.074-0.127,0.209-0.206,0.356-0.206l0,0c0.147,0,0.282,0.078,0.356,0.205
								l2.443,4.22c0.074,0.128,0.074,0.285,0,0.413l-2.443,4.219C606.926,211.704,606.79,211.782,606.643,211.782z
								 M604.681,207.151l1.963,3.397l1.967-3.397l-1.967-3.398L604.681,207.151z"/>
						</g>
					</g>
				</g>
			</g>
			<g>
				<g>
					<g>
						<g>
							<path style="fill:#25292B;" d="M588.574,205.269c-0.836,0-1.516-0.68-1.516-1.516s0.68-1.516,1.516-1.516
								s1.516,0.68,1.516,1.516S589.41,205.269,588.574,205.269z M588.574,203.061c-0.382,0-0.693,0.311-0.693,0.693
								c0,0.382,0.311,0.693,0.693,0.693c0.382,0,0.693-0.311,0.693-0.693C589.267,203.372,588.956,203.061,588.574,203.061z"/>
						</g>
					</g>
				</g>
			</g>
		</g>
		<g>
			<g>
				<g>
					<g>
						<g>
							<path style="fill:#25292B;" d="M533.005,147.276L533.005,147.276c-0.147,0-0.283-0.079-0.356-0.206l-3.881-6.719
								c-0.074-0.127-0.074-0.284,0-0.411l3.881-6.718c0.074-0.127,0.209-0.206,0.356-0.206l0,0c0.147,0,0.282,0.078,0.356,0.205
								l3.89,6.718c0.074,0.128,0.074,0.285,0,0.413l-3.89,6.719C533.287,147.198,533.151,147.276,533.005,147.276z
								 M529.599,140.146l3.406,5.897l3.414-5.897l-3.414-5.896L529.599,140.146z"/>
						</g>
					</g>
				</g>
			</g>
			<g>
				<g>
					<g>
						<g>
							<path style="fill:#25292B;" d="M516.946,135.36c-1.293,0-2.344-1.051-2.344-2.343s1.052-2.344,2.344-2.344
								c1.292,0,2.344,1.052,2.344,2.344S518.238,135.36,516.946,135.36z M516.946,131.496c-0.839,0-1.521,0.682-1.521,1.521
								c0,0.838,0.682,1.52,1.521,1.52c0.839,0,1.521-0.682,1.521-1.52C518.467,132.178,517.785,131.496,516.946,131.496z"/>
						</g>
					</g>
				</g>
			</g>
			<g>
				<g>
					<g>
						<g>
							<path style="fill:#25292B;" d="M529.335,130.606c-1.129,0-2.047-0.919-2.047-2.047c0-1.129,0.919-2.048,2.047-2.048
								c1.129,0,2.048,0.919,2.048,2.048C531.383,129.687,530.464,130.606,529.335,130.606z M529.335,127.334
								c-0.675,0-1.224,0.55-1.224,1.225c0,0.675,0.549,1.224,1.224,1.224c0.675,0,1.225-0.549,1.225-1.224
								C530.56,127.884,530.01,127.334,529.335,127.334z"/>
						</g>
					</g>
				</g>
			</g>
			<g>
				<g>
					<g>
						<g>
							<path style="fill:#25292B;" d="M541.008,138.325c-0.836,0-1.516-0.68-1.516-1.516s0.68-1.516,1.516-1.516
								c0.836,0,1.516,0.68,1.516,1.516S541.844,138.325,541.008,138.325z M541.008,136.117c-0.382,0-0.693,0.311-0.693,0.693
								c0,0.382,0.311,0.693,0.693,0.693c0.382,0,0.693-0.311,0.693-0.693C541.702,136.428,541.391,136.117,541.008,136.117z"/>
						</g>
					</g>
				</g>
			</g>
			<g>
				<g>
					<g>
						<g>
							<path style="fill:#25292B;" d="M541.475,130.606L541.475,130.606c-0.147,0-0.283-0.079-0.356-0.206l-2.438-4.219
								c-0.074-0.127-0.074-0.284,0-0.411l2.438-4.22c0.074-0.127,0.209-0.206,0.356-0.206l0,0c0.147,0,0.282,0.078,0.356,0.205
								l2.443,4.22c0.074,0.128,0.074,0.285,0,0.413l-2.443,4.219C541.757,130.528,541.621,130.606,541.475,130.606z
								 M539.512,125.975l1.963,3.397l1.967-3.397l-1.967-3.398L539.512,125.975z"/>
						</g>
					</g>
				</g>
			</g>
			<g>
				<g>
					<g>
						<g>
							<path style="fill:#25292B;" d="M523.405,124.093c-0.836,0-1.516-0.68-1.516-1.516s0.68-1.516,1.516-1.516
								c0.836,0,1.516,0.68,1.516,1.516S524.241,124.093,523.405,124.093z M523.405,121.885c-0.382,0-0.693,0.311-0.693,0.693
								s0.311,0.693,0.693,0.693c0.382,0,0.693-0.311,0.693-0.693S523.787,121.885,523.405,121.885z"/>
						</g>
					</g>
				</g>
			</g>
		</g>
	</g>
	<g>
		<g>
			<g>
				<path style="fill:#FFBD29;" d="M143.657,133.488l-25.538,1.446c0,0,4.079,10.535,3.77,15.363
					c-0.318,4.819-5.445,13.126-5.445,13.126c1.675,6.297,2.699,22.037,5.443,58.987l-0.463,0.01
					c-28.815,15.246-74.168-8.269-74.168-8.269c3.46-8.481,6.476-12.258,6.476-12.258c-2.795,0-5.387-0.993-7.411-2.679
					c-2.024-1.687-3.469-4.057-3.971-6.813l-9.03-49.342c-1.966-10.755,3.681-21.452,13.675-25.905l13.945-6.206l24.025-5.667
					l58.69,1.687V133.488z"/>
			</g>
			<g>
				<path style="fill:#25292B;" d="M53.732,202.392c-0.266,0-0.487-0.209-0.499-0.477c-0.013-0.276,0.201-0.51,0.477-0.522
					l54.172-2.48v-15.878l-42.615-6.189c-0.23-0.033-0.407-0.221-0.426-0.453l-2.857-33.756c-0.023-0.275,0.181-0.517,0.456-0.54
					c0.272-0.027,0.517,0.181,0.54,0.456l2.824,33.36l42.65,6.195c0.246,0.036,0.428,0.246,0.428,0.495v16.789
					c0,0.267-0.21,0.487-0.477,0.5l-54.649,2.502C53.748,202.392,53.74,202.392,53.732,202.392z"/>
			</g>
			<g>
				<path style="fill:#25292B;" d="M118.119,135.434c-0.16,0-0.317-0.076-0.414-0.218l-5.004-7.344
					c-0.156-0.229-0.097-0.54,0.131-0.695c0.229-0.156,0.539-0.097,0.695,0.131l5.004,7.344c0.156,0.229,0.097,0.54-0.131,0.695
					C118.313,135.406,118.215,135.434,118.119,135.434z"/>
			</g>
			<g>
				<path style="fill:#25292B;" d="M83.465,167.558c-0.233,0-0.441-0.163-0.489-0.4c-0.055-0.271,0.12-0.535,0.39-0.589
					c9.59-1.953,19.414-3.13,29.197-3.498c0.28-0.028,0.508,0.205,0.518,0.481c0.011,0.276-0.205,0.508-0.481,0.518
					c-9.729,0.366-19.498,1.536-29.035,3.478C83.531,167.555,83.498,167.558,83.465,167.558z"/>
			</g>
		</g>
		<g>
			<g>
				<path style="fill:#25292B;" d="M52.711,100.722c6.352,1.4,12.588,3.602,19.075,4.317c6.296,0.694,12.724-0.171,18.697-2.248
					c3.912-1.361,7.03-3.499,9.889-6.084c-0.155-0.964-0.346-1.922-0.594-2.858c-1.137-4.269-3.036-8.298-4.385-12.509
					c-1.214-3.758-1.995-7.796-1.34-11.671c1.436-1.638,2.486-3.595,3.065-5.686c0.164-0.607,0.289-1.262,0.029-1.831
					c-0.472-1.041-1.87-1.166-3.007-1.311c-6.187-0.781-10.533-6.312-16.007-9.29c-5.484-2.968-12.345-3.267-18.06-0.761
					c-5.715,2.496-10.158,7.729-11.69,13.771c-1.725,6.775,0.048,14.196-2.38,20.758c-1.224,3.334-3.46,6.187-5.214,9.281
					c-1.023,1.798-1.883,3.78-2.262,5.798C43.253,99.803,47.936,99.67,52.711,100.722z"/>
			</g>
			<g>
				<g>
					<g>
						<path style="fill:#F2E9DA;" d="M83.55,100.413l3.508,12.075l-0.299,15.101l-25.818-16.643L59.1,90.179
							c-3.768,1.002-6.679-1.243-8.259-5.233c-1.696-4.289-1.041-8.972,2.92-10.543c0.906-0.357,1.85-0.52,2.785-0.501
							c1.802,0.039,3.575,0.742,4.992,1.956c0.01,0,0.019,0.01,0.029,0.019l-0.01-0.067l0.048-0.01
							c0.241-0.019,1.349-0.173,2.92-0.626l0.106-0.029c3.373-1.002,8.77-3.412,12.258-9.078c0.694-1.128,1.311-2.38,1.821-3.778
							c0,0,7.902,0.617,11.796,5.098c0.52,0.578,0.954,1.224,1.301,1.937l0.819,11.777c0.453,6.428-2.043,12.702-6.785,17.077
							L83.55,100.413z"/>
					</g>
				</g>
			</g>
			<g>
				<g>
					<g>
						
							<ellipse transform="matrix(0.9976 -0.0696 0.0696 0.9976 -5.2526 6.3399)" style="fill:#25292B;" cx="88.393" cy="78.581" rx="2.095" ry="2.318"/>
					</g>
				</g>
			</g>
			<g>
				<g>
					<g>
						
							<ellipse transform="matrix(0.9976 -0.0696 0.0696 0.9976 -5.3451 5.458)" style="fill:#25292B;" cx="75.686" cy="79.467" rx="2.095" ry="2.318"/>
					</g>
				</g>
			</g>
			<g>
				<g>
					<g>
						<path style="fill:#25292B;" d="M86.284,73.298c1.553-0.615,3.36-0.459,4.729,0.534c0.272,0.197,0.41,0.586,0.204,0.886
							c-0.186,0.271-0.595,0.415-0.886,0.204c-0.134-0.098-0.273-0.188-0.418-0.269c-0.071-0.04-0.143-0.077-0.216-0.112
							c-0.008-0.004-0.017-0.008-0.025-0.011c-0.038-0.016-0.076-0.032-0.115-0.047c-0.154-0.061-0.312-0.113-0.472-0.155
							c-0.08-0.021-0.161-0.04-0.242-0.057c-0.015-0.003-0.028-0.006-0.039-0.008c-0.045-0.007-0.09-0.014-0.135-0.019
							c-0.165-0.021-0.331-0.032-0.497-0.034c-0.083-0.001-0.166,0-0.249,0.004c-0.041,0.002-0.083,0.005-0.124,0.007
							c-0.002,0-0.001,0-0.002,0c-0.005,0.001-0.002,0.001-0.011,0.002c-0.165,0.022-0.328,0.049-0.489,0.088
							c-0.081,0.02-0.161,0.041-0.24,0.066c-0.04,0.012-0.079,0.025-0.118,0.038c-0.011,0.004-0.016,0.005-0.02,0.006
							c-0.008,0.003-0.012,0.005-0.022,0.009c-0.311,0.123-0.708,0.078-0.872-0.26C85.887,73.886,85.949,73.43,86.284,73.298z"/>
					</g>
				</g>
			</g>
			<g>
				<g>
					<g>
						<path style="fill:#25292B;" d="M77.411,74.77c-0.115,0.357-0.502,0.457-0.827,0.378c-0.011-0.003-0.015-0.004-0.023-0.006
							c-0.005-0.001-0.01-0.001-0.021-0.003c-0.041-0.007-0.082-0.015-0.122-0.022c-0.082-0.013-0.164-0.024-0.247-0.032
							c-0.165-0.016-0.331-0.021-0.497-0.019c-0.01,0-0.007,0-0.012,0c-0.002,0,0,0-0.002,0c-0.041,0.003-0.083,0.006-0.124,0.01
							c-0.083,0.008-0.165,0.018-0.247,0.03c-0.164,0.025-0.327,0.059-0.487,0.103c-0.044,0.012-0.087,0.024-0.131,0.038
							c-0.01,0.004-0.024,0.008-0.037,0.013c-0.078,0.029-0.155,0.058-0.232,0.09c-0.153,0.064-0.302,0.138-0.446,0.219
							c-0.036,0.02-0.072,0.042-0.107,0.063c-0.008,0.005-0.016,0.01-0.023,0.014c-0.067,0.045-0.134,0.092-0.198,0.141
							c-0.132,0.1-0.257,0.21-0.377,0.325c-0.259,0.249-0.684,0.163-0.906-0.079c-0.245-0.268-0.163-0.673,0.079-0.906
							c1.218-1.173,2.985-1.579,4.609-1.185C77.382,74.027,77.507,74.471,77.411,74.77z"/>
					</g>
				</g>
			</g>
			<g>
				<path style="fill:#25292B;" d="M78.424,103.155c-0.152,0-0.307-0.004-0.466-0.012c-3.887-0.21-7.052-3.871-7.185-4.026
					c-0.179-0.21-0.154-0.525,0.056-0.705s0.525-0.154,0.705,0.055c0.03,0.035,3.023,3.49,6.478,3.677
					c3.416,0.182,5.124-2.012,5.141-2.034c0.167-0.22,0.48-0.263,0.701-0.095c0.22,0.167,0.262,0.48,0.095,0.701
					C83.87,100.819,82.05,103.155,78.424,103.155z"/>
			</g>
			<g>
				<path style="fill:#25292B;" d="M87.228,88.107c-0.012,0-0.024,0-0.036-0.001l-5.057-0.368c-0.275-0.02-0.482-0.259-0.462-0.535
					s0.26-0.481,0.535-0.462l4.325,0.315l-3.027-9.737c-0.082-0.264,0.065-0.544,0.329-0.626c0.265-0.081,0.544,0.066,0.626,0.329
					l3.245,10.438c0.049,0.158,0.017,0.33-0.086,0.459C87.524,88.037,87.38,88.107,87.228,88.107z"/>
			</g>
			<g>
				<path style="fill:#25292B;" d="M81.192,91.745c-0.017,0-0.034-0.001-0.051-0.002c-1.18-0.12-2.3-0.567-3.239-1.293
					s-1.654-1.697-2.067-2.809c-0.096-0.259,0.036-0.547,0.294-0.643c0.26-0.095,0.547,0.036,0.643,0.294
					c0.343,0.923,0.961,1.763,1.741,2.366c0.779,0.603,1.749,0.99,2.729,1.089c0.274,0.028,0.475,0.273,0.447,0.548
					C81.663,91.553,81.445,91.745,81.192,91.745z"/>
			</g>
			<g>
				<path style="fill:#25292B;" d="M57.148,88.311c-0.002,0-0.005,0-0.007,0c-1.604-0.024-3.088-1.2-3.528-2.796
					c-0.416-1.507,0.132-3.231,1.361-4.29c0.579-0.498,1.194-0.74,1.805-0.736c0.198,0.005,0.389,0.042,0.566,0.106
					c-0.036-0.313-0.085-0.624-0.156-0.928c-0.183-0.784-0.49-1.426-0.912-1.909c-0.419-0.48-0.938-0.757-1.423-0.759
					c-0.432-0.013-0.86,0.213-1.15,0.562c-0.284,0.343-0.438,0.817-0.421,1.302c0.01,0.276-0.206,0.508-0.482,0.517
					c-0.27,0.018-0.507-0.206-0.517-0.482c-0.025-0.727,0.211-1.447,0.65-1.976c0.48-0.579,1.195-0.923,1.914-0.923
					c0.003,0,0.006,0,0.009,0c0.772,0.003,1.564,0.404,2.172,1.101c0.531,0.607,0.912,1.395,1.132,2.34
					c0.193,0.828,0.241,1.667,0.274,2.456c0.011,0.266-0.188,0.494-0.453,0.519c-0.269,0.023-0.503-0.163-0.542-0.425
					c-0.039-0.263-0.355-0.492-0.692-0.501c-0.425-0.018-0.855,0.263-1.125,0.494c-0.928,0.799-1.359,2.143-1.05,3.267
					c0.32,1.158,1.429,2.045,2.579,2.062c0.276,0.004,0.497,0.231,0.493,0.507C57.644,88.093,57.421,88.311,57.148,88.311z"/>
			</g>
		</g>
		<g>
			<g>
				<path style="fill:#FFBD29;" d="M84.158,433.876h29.118l7.69,6.791c0,0,22.786-0.643,22.786,16.02H84.158V433.876z"/>
			</g>
			<g>
				<path style="fill:#25292B;" d="M86.17,454.868c-0.275,0-0.499-0.223-0.5-0.498c-0.001-0.276,0.222-0.501,0.498-0.502
					l56.157-0.21c0,0,0.001,0,0.002,0c0.275,0,0.499,0.223,0.5,0.498c0.001,0.276-0.222,0.501-0.498,0.502l-56.157,0.21
					C86.171,454.868,86.17,454.868,86.17,454.868z"/>
			</g>
			<g>
				<path style="fill:#25292B;" d="M105.187,443.546c-1.108,0-2.215-0.059-3.313-0.175c-2.088-0.222-3.364-1.057-3.592-2.35
					c-0.295-1.674,1.336-2.865,2.824-3.378c4.519-1.557,9.746-0.619,13.496,2.309c1.06-3.369,2.906-6.466,5.374-9
					c0.791-0.812,1.768-1.674,3.023-1.916c1.3-0.249,2.906,0.418,3.237,1.807c0.314,1.318-0.612,2.472-1.455,3.33
					c-2.755,2.808-5.789,5.374-9.019,7.627c-0.125,0.088-0.282,0.112-0.421,0.071c-0.04,0.027-0.083,0.051-0.132,0.066
					C111.995,443.002,108.584,443.546,105.187,443.546z M105.635,437.896c-1.424,0-2.848,0.226-4.204,0.692
					c-0.897,0.31-2.364,1.133-2.165,2.259c0.202,1.141,1.965,1.449,2.713,1.529c4.156,0.438,8.446,0.014,12.438-1.235
					c-0.016-0.026-0.029-0.054-0.039-0.082C111.959,439.008,108.796,437.896,105.635,437.896z M115.432,440.656
					c0.031,0.029,0.062,0.058,0.093,0.087c3.053-2.16,5.925-4.604,8.541-7.271c0.662-0.674,1.396-1.556,1.196-2.396
					c-0.196-0.82-1.251-1.222-2.075-1.057c-0.983,0.189-1.813,0.931-2.495,1.631C118.234,434.173,116.421,437.28,115.432,440.656z"
					/>
			</g>
			<g>
				<path style="fill:#25292B;" d="M115.493,433.822l-32.281,0.085V307.786L59.018,434.963H26.287c0,0,8.73-164.444,13.424-192.912
					c2.024-12.287,4.915-21.452,7.546-27.9c0,0,45.353,23.515,74.168,8.269l0.463-0.01
					C122.956,296.944,116.014,419.607,115.493,433.822z"/>
			</g>
			<g>
				<g>
					<polygon style="fill:#FFBD29;" points="57.778,434.931 61.789,456.409 23.561,456.409 27.126,434.931 					"/>
				</g>
				<g>
					<path style="fill:#FFBD29;" d="M29.196,456.409h34.838v-2.268c0-10.796-7.799-17.099-17.419-17.099l0,0
						c-9.62,0-17.419,6.304-17.419,17.099V456.409z"/>
				</g>
				<g>
					<path style="fill:#25292B;" d="M33.976,443.813c-0.135,0-0.27-0.055-0.369-0.162c-0.187-0.203-0.173-0.52,0.031-0.706
						c4.512-4.139,9.096-5.984,14.863-5.984c6.545,0,10.499,3.953,10.664,4.121c0.193,0.197,0.19,0.514-0.006,0.707
						c-0.198,0.193-0.514,0.19-0.707-0.006c-0.038-0.038-3.84-3.822-9.951-3.822c-5.499,0-9.874,1.765-14.188,5.721
						C34.218,443.769,34.097,443.813,33.976,443.813z"/>
				</g>
				<g>
					<path style="fill:#25292B;" d="M62.829,454.928h-37.04c-0.276,0-0.5-0.224-0.5-0.5s0.224-0.5,0.5-0.5h37.04
						c0.276,0,0.5,0.224,0.5,0.5S63.105,454.928,62.829,454.928z"/>
				</g>
			</g>
			<g>
				<path style="fill:#F2E9DA;" d="M83.213,308.286c-0.032,0-0.064-0.003-0.097-0.01c-0.271-0.053-0.448-0.315-0.395-0.587
					l12.845-65.352c0.038-0.19,0.182-0.342,0.37-0.389l22.861-5.715c0.267-0.068,0.539,0.096,0.606,0.364
					c0.067,0.268-0.096,0.539-0.364,0.606l-22.553,5.639l-12.784,65.041C83.656,308.121,83.447,308.286,83.213,308.286z"/>
			</g>
			<g>
				<path style="fill:#F2E9DA;" d="M33.445,435.463c-0.014,0-0.028-0.001-0.042-0.002c-0.275-0.022-0.48-0.264-0.457-0.539
					c0.122-1.48,12.28-148.262,15.106-173.076c2.839-24.937,14.551-41.192,14.669-41.354c0.162-0.223,0.475-0.272,0.698-0.108
					c0.223,0.163,0.271,0.476,0.109,0.699c-0.117,0.16-11.675,16.216-14.483,40.876c-2.824,24.799-14.981,171.565-15.103,173.045
					C33.921,435.265,33.702,435.463,33.445,435.463z"/>
			</g>
		</g>
		<g>
			<g>
				<g>
					<rect x="130.29" y="88.974" style="fill:#F2E9DA;" width="105.17" height="91.688"/>
				</g>
				<g>
					<path style="fill:#FFBD29;" d="M130.154,149.326c0,0,21.674-21.79,36.677-21.79c21.432,0,68.497,53.959,68.497,53.959H130.154
						V149.326z"/>
				</g>
				<g>
					<path style="fill:#25292B;" d="M200.898,135.317c-11.108,0-20.146-9.038-20.146-20.146c0-11.109,9.038-20.146,20.146-20.146
						c11.109,0,20.146,9.038,20.146,20.146C221.044,126.28,212.007,135.317,200.898,135.317z M200.898,96.025
						c-10.557,0-19.146,8.589-19.146,19.146c0,10.557,8.589,19.146,19.146,19.146c10.558,0,19.146-8.589,19.146-19.146
						C220.044,104.614,211.456,96.025,200.898,96.025z"/>
				</g>
				<g>
					<circle style="fill:#FFBD29;" cx="200.898" cy="115.171" r="15.717"/>
				</g>
				<g>
					<path style="fill:#25292B;" d="M236.551,149.26v32.236h-91.274c0,0,47.058-39.58,68.491-39.58
						C220.872,141.916,229.468,145.501,236.551,149.26z"/>
				</g>
				<g>
					<path style="fill:#25292B;" d="M124.012,82.702v104.231h117.723V82.702H124.012z M235.46,180.658H130.287V88.977H235.46
						V180.658z"/>
				</g>
			</g>
			<g>
				<g>
					<g>
						<g>
							<path style="fill:#F2E9DA;" d="M237.753,87.464c-0.02-0.75,0.267-1.441,0.75-1.947c0.483-0.505,1.154-0.832,1.904-0.852
								l6.759-0.019c1.5-0.04,2.758,1.154,2.798,2.654c0.02,0.746-0.267,1.437-0.75,1.943c-0.483,0.509-1.154,0.832-1.904,0.852
								l-6.759,0.019C239.052,90.154,237.793,88.96,237.753,87.464z"/>
						</g>
					</g>
					<g>
						<g>
							<path style="fill:#F2E9DA;" d="M236.774,92.711c-0.023-0.879,0.314-1.694,0.884-2.29c0.569-0.6,1.36-0.98,2.244-1.004
								l7.906-0.049c1.768-0.047,3.251,1.36,3.298,3.123c0.023,0.884-0.314,1.694-0.884,2.294c-0.569,0.595-1.361,0.976-2.244,0.999
								l-7.906,0.049C238.304,95.881,236.82,94.479,236.774,92.711z"/>
						</g>
					</g>
					<g>
						<g>
							<path style="fill:#F2E9DA;" d="M236.859,98.716c-0.023-0.884,0.314-1.694,0.884-2.294c0.569-0.6,1.36-0.98,2.244-1.004
								l7.906-0.049c1.768-0.047,3.251,1.36,3.298,3.128c0.023,0.884-0.314,1.694-0.884,2.29s-1.361,0.98-2.244,1.004l-7.906,0.049
								C238.389,101.886,236.905,100.479,236.859,98.716z"/>
						</g>
					</g>
					<g>
						<g>
							<path style="fill:#F2E9DA;" d="M236.924,104.199c-0.023-0.884,0.37-1.696,1.03-2.294c0.66-0.598,1.575-0.986,2.596-1.013
								l6.825-0.02c2.042-0.054,3.749,1.347,3.796,3.11c0.023,0.884-0.37,1.696-1.03,2.298c-0.66,0.602-1.575,0.986-2.596,1.013
								l-6.825,0.02C238.678,107.368,236.97,105.967,236.924,104.199z"/>
						</g>
					</g>
					<g>
						<path style="fill:#25292B;" d="M239.098,101.984c-0.266-0.009-0.48-0.227-0.482-0.496c-0.002-0.276,0.221-0.501,0.497-0.503
							l10.387-0.091c0.262,0.005,0.501,0.221,0.503,0.497c0.002,0.276-0.221,0.501-0.497,0.503l-10.387,0.091
							C239.112,101.985,239.105,101.985,239.098,101.984z"/>
					</g>
					<g>
						<path style="fill:#25292B;" d="M239.125,96.056c-0.268-0.009-0.483-0.23-0.482-0.501c0.001-0.276,0.225-0.499,0.501-0.498
							l10.016,0.039c0.278-0.021,0.499,0.225,0.498,0.501c-0.001,0.276-0.225,0.499-0.501,0.498l-10.016-0.039
							C239.135,96.057,239.13,96.057,239.125,96.056z"/>
					</g>
					<g>
						<path style="fill:#25292B;" d="M239.153,90.025c-0.263-0.009-0.477-0.222-0.482-0.489c-0.006-0.276,0.213-0.505,0.489-0.51
							l10.044-0.282c0.268-0.002,0.505,0.212,0.51,0.489c0.006,0.276-0.213,0.505-0.489,0.51l-10.044,0.282
							C239.172,90.025,239.162,90.025,239.153,90.025z"/>
					</g>
				</g>
				<g>
					<g>
						<path style="fill:#F2E9DA;" d="M136.462,187.301h-17.57c-1.974,0-3.589-1.615-3.589-3.589v0c0-1.974,1.615-3.589,3.589-3.589
							h17.57c1.974,0,3.589,1.615,3.589,3.589v0C140.051,185.686,138.436,187.301,136.462,187.301z"/>
					</g>
					<g>
						<path style="fill:#F2E9DA;" d="M118.054,180.124c-5.321,0-9.182,3.059-9.182,3.059v13.931l13.121,2.498
							c2.008,0.382,4.066,0.163,5.983-0.639l26.225-6.855c0.905-0.378,1.509-1.386,1.509-2.516l0,0c0-1.474-1.016-2.67-2.268-2.67
							h-19.282L118.054,180.124z"/>
					</g>
					<g>
						<path style="fill:#25292B;" d="M138.335,187.433h-17.322c-0.276,0-0.5-0.224-0.5-0.5s0.224-0.5,0.5-0.5h17.322
							c0.276,0,0.5,0.224,0.5,0.5S138.612,187.433,138.335,187.433z"/>
					</g>
					<g>
						<path style="fill:#25292B;" d="M132.292,194.533c-0.256,0-0.475-0.196-0.498-0.457c-0.024-0.275,0.179-0.518,0.455-0.542
							l21.91-1.915c0.278-0.021,0.518,0.18,0.542,0.455c0.024,0.275-0.179,0.518-0.455,0.542l-21.91,1.915
							C132.321,194.532,132.306,194.533,132.292,194.533z"/>
					</g>
				</g>
			</g>
		</g>
	</g>
	<g>
		<g>
			<g>
				<path style="fill:#FFBD29;" d="M614.497,447.079c0,4.799-3.884,8.731-8.731,8.731h-50.913l-2.57-23.018l7.292-9.296
					l54.912,23.168C614.497,446.8,614.497,446.944,614.497,447.079z"/>
			</g>
			<g>
				<path style="fill:#25292B;" d="M555.537,456.38h-70.371c-11.642,0-21.25-9.097-21.886-20.72l3.202-77.899l-33.113,4.819
					l4.713,70.997h-30L389.24,353.54c-2.66-11.314,3.97-22.734,15.111-26.03l43.512-12.885l78.273,5.455
					c-2.055,28.574-23.17,100.412-23.17,100.412l49.091,4.808L555.537,456.38z"/>
			</g>
			<g>
				<path style="fill:#F2E9DA;" d="M466.481,358.261c-0.252,0-0.469-0.19-0.496-0.447c-0.029-0.274,0.17-0.521,0.444-0.55
					c0.435-0.046,43.57-4.805,51.308-20.883c0.12-0.249,0.419-0.354,0.667-0.233c0.249,0.119,0.354,0.418,0.233,0.667
					c-7.977,16.578-50.305,21.253-52.103,21.443C466.518,358.26,466.499,358.261,466.481,358.261z"/>
			</g>
			<g>
				<path style="fill:#F2E9DA;" d="M421.426,431.4c-0.236,0-0.447-0.169-0.491-0.41l-12.977-71.243
					c-1.206-6.87,2.423-13.594,8.823-16.354l42.269-18.238c0.252-0.111,0.549,0.008,0.657,0.261
					c0.109,0.254-0.008,0.548-0.261,0.657l-42.269,18.238c-5.974,2.577-9.36,8.852-8.235,15.26l12.977,71.24
					c0.049,0.271-0.131,0.532-0.402,0.582C421.486,431.397,421.456,431.4,421.426,431.4z"/>
			</g>
			<g>
				<path style="fill:#FFBD29;" d="M437.692,433.566h-29.118l-7.69,6.791c0,0-22.786-0.643-22.786,16.02h59.593V433.566z"/>
			</g>
			<g>
				<path style="fill:#25292B;" d="M435.681,454.559c-0.001,0-0.001,0-0.002,0l-0.21-0.001l-55.947-0.209
					c-0.276-0.001-0.499-0.226-0.498-0.502c0.001-0.275,0.225-0.498,0.5-0.498c0.001,0,0.001,0,0.002,0l56.157,0.21
					c0.276,0.001,0.499,0.226,0.498,0.502C436.18,454.336,435.956,454.559,435.681,454.559z"/>
			</g>
			<g>
				<path style="fill:#25292B;" d="M416.663,443.236c-3.397,0-6.809-0.544-10.021-1.608c-0.048-0.016-0.093-0.038-0.132-0.066
					c-0.14,0.04-0.294,0.018-0.421-0.071c-3.231-2.254-6.266-4.82-9.02-7.627c-0.842-0.858-1.768-2.013-1.454-3.33
					c0.329-1.389,1.948-2.053,3.235-1.807c1.256,0.241,2.233,1.104,3.024,1.916c2.467,2.533,4.313,5.631,5.373,9
					c3.75-2.928,8.978-3.864,13.496-2.309c1.487,0.513,3.12,1.705,2.824,3.378c-0.229,1.293-1.505,2.128-3.593,2.35
					C418.879,443.178,417.771,443.236,416.663,443.236z M407.433,440.832c3.991,1.249,8.28,1.675,12.438,1.235
					c0.749-0.08,2.512-0.389,2.714-1.529c0.198-1.125-1.268-1.949-2.166-2.259c-4.363-1.504-9.438-0.506-12.947,2.471
					C407.462,440.778,407.448,440.806,407.433,440.832z M398.293,429.675c-0.743,0-1.537,0.39-1.704,1.09
					c-0.2,0.842,0.534,1.724,1.195,2.397c2.614,2.666,5.486,5.11,8.541,7.271c0.031-0.029,0.062-0.058,0.093-0.086
					c-0.989-3.377-2.803-6.485-5.259-9.008c-0.683-0.7-1.513-1.442-2.496-1.631C398.544,429.686,398.419,429.675,398.293,429.675z"
					/>
			</g>
			<g>
				<path style="fill:#25292B;" d="M612.189,448.938c-0.065,0-0.132-0.013-0.196-0.04l-51.658-22.025
					c-0.254-0.108-0.372-0.402-0.264-0.656c0.108-0.253,0.399-0.372,0.656-0.264l51.658,22.025c0.254,0.108,0.372,0.402,0.264,0.656
					C612.568,448.824,612.383,448.938,612.189,448.938z"/>
			</g>
		</g>
		<g>
			<g>
				<path style="fill:#FFBD29;" d="M532.68,194.44l-6.9,98.492l0.357,27.148c0,0-15.921,11.092-38.626,11.16
					c-22.705,0.067-39.647-16.614-39.647-16.614l14.6-23.438l-1.879-17.684l-16.74,9.117c-8.461,4.597-19.053,1.041-23.014-7.739
					l-14.359-31.783l16.007-8.837l14.128,18.552c0,0,39.493-28.911,45.246-30.376c0.867-0.222,1.715-0.395,2.554-0.53
					c6.813-1.128,12.393,0.212,12.393,0.212l11.7-8.105l-4.655-26.936l-1.532-8.895l-15.93-25.991l12.422-10.9l29.268,37.913
					C531.427,183.55,533.065,188.966,532.68,194.44z"/>
			</g>
			<g>
				<path style="fill:#25292B;" d="M512.36,220.357c-0.162,0-0.321-0.079-0.417-0.225l-3.86-5.844
					c-0.152-0.23-0.089-0.541,0.142-0.692c0.23-0.153,0.54-0.089,0.692,0.142l3.86,5.844c0.152,0.23,0.089,0.541-0.142,0.692
					C512.551,220.331,512.455,220.357,512.36,220.357z"/>
			</g>
			<g>
				<path style="fill:#25292B;" d="M501.634,225.493c-0.083,0-0.166-0.02-0.242-0.063l-4.565-2.533
					c-0.242-0.134-0.329-0.438-0.195-0.68c0.135-0.243,0.442-0.328,0.68-0.194l4.565,2.533c0.242,0.134,0.329,0.438,0.195,0.68
					C501.979,225.4,501.81,225.493,501.634,225.493z"/>
			</g>
			<g>
				<path style="fill:#25292B;" d="M460.584,274.003c-0.172,0-0.339-0.089-0.433-0.248c-0.139-0.239-0.058-0.545,0.181-0.685
					l19.561-11.384c0.236-0.139,0.544-0.059,0.685,0.181c0.139,0.239,0.058,0.545-0.181,0.685l-19.561,11.384
					C460.757,273.981,460.67,274.003,460.584,274.003z"/>
			</g>
			<g>
				<path style="fill:#25292B;" d="M430.136,257.529c-0.163,0-0.323-0.08-0.419-0.227c-0.15-0.231-0.085-0.542,0.146-0.692
					l6.471-4.217c0.232-0.149,0.542-0.086,0.692,0.146s0.085,0.542-0.146,0.692l-6.471,4.217
					C430.324,257.503,430.229,257.529,430.136,257.529z"/>
			</g>
			<g>
				<path style="fill:#25292B;" d="M502.65,302.405c-0.184,0-0.36-0.102-0.447-0.277c-0.123-0.247-0.022-0.547,0.225-0.67
					c6.742-3.36,13.249-7.317,19.34-11.76c0.223-0.162,0.535-0.113,0.699,0.109c0.162,0.224,0.113,0.536-0.109,0.699
					c-6.137,4.475-12.691,8.461-19.484,11.846C502.802,302.389,502.726,302.405,502.65,302.405z"/>
			</g>
		</g>
		<g>
			<g>
				<path style="fill:#25292B;" d="M512.538,191.607c-1.34,7.401-3.44,14.639-5.763,21.79c0.087,0.405-0.376,0.848-0.742,0.482
					c-1.475-1.484-2.843-3.074-4.067-4.78c-4.173-5.802-6.727-12.731-7.324-19.853c-5.233,3.315-11.699,4.443-17.752,2.949
					c-5.137-1.282-10.736-4.462-12.75-9.637c-0.877-2.255-0.877-4.847,0.135-7.064c1.06-2.342,3.122-3.739,5.619-4.183
					c1.475-0.27,2.978-0.241,4.462-0.279c1.629-0.039,3.248-0.173,4.847-0.414c3.354-0.511,6.476-1.581,9.656-2.718
					c2.93-1.06,6.1-1.985,9.242-1.359c1.831,0.366,3.566,1.311,4.722,2.756c2.602-0.414,5.358,0.607,7.209,2.477
					C515.169,176.939,513.694,185.188,512.538,191.607z"/>
			</g>
			<g>
				<g>
					<g>
						<path style="fill:#F2E9DA;" d="M508.5,214.013l-11.7,8.105c0,0-5.58-1.34-12.393-0.212l0.472-5.339l-2.65-1.802
							c-5.426-3.489-8.982-9.232-9.647-15.641l-1.253-11.738c16.354-3.315,23.418-9.203,23.418-9.203
							c0.038,6.601,7.218,10.35,7.459,10.321h0.048v0.067c0.01-0.01,0.01-0.019,0.019-0.019c0.463-0.559,0.993-1.06,1.571-1.475
							L508.5,214.013z"/>
					</g>
					<g>
						<path style="fill:#F2E9DA;" d="M514.398,195.635c-0.867,4.202-3.334,6.919-7.228,6.592l1.33,11.786l-4.655-26.936
							c0.906-0.655,1.927-1.108,3.007-1.32c0.916-0.183,1.879-0.183,2.833,0.01C513.858,186.615,515.323,191.115,514.398,195.635z"
							/>
					</g>
				</g>
			</g>
			<g>
				<g>
					<g>
						
							<ellipse transform="matrix(0.9944 -0.1053 0.1053 0.9944 -17.9761 51.2271)" style="fill:#25292B;" cx="476.309" cy="195.909" rx="2.095" ry="2.318"/>
					</g>
				</g>
			</g>
			<g>
				<g>
					<g>
						
							<ellipse transform="matrix(0.9944 -0.1053 0.1053 0.9944 -17.7646 52.5531)" style="fill:#25292B;" cx="488.976" cy="194.568" rx="2.095" ry="2.318"/>
					</g>
				</g>
			</g>
			<g>
				<g>
					<g>
						<path style="fill:#25292B;" d="M477.466,190.339c-1.637-0.335-3.389,0.134-4.563,1.35c-0.234,0.242-0.302,0.649-0.047,0.908
							c0.23,0.234,0.659,0.305,0.908,0.047c0.115-0.119,0.236-0.233,0.365-0.338c0.063-0.051,0.127-0.101,0.193-0.148
							c0.007-0.005,0.015-0.01,0.023-0.015c0.035-0.023,0.07-0.045,0.105-0.067c0.141-0.087,0.288-0.165,0.438-0.235
							c0.075-0.035,0.152-0.067,0.229-0.098c0.014-0.006,0.027-0.011,0.037-0.015c0.043-0.015,0.086-0.029,0.129-0.042
							c0.159-0.049,0.32-0.089,0.483-0.12c0.082-0.015,0.163-0.028,0.246-0.039c0.041-0.005,0.082-0.01,0.124-0.014
							c0.002,0,0.001,0,0.002,0c0.005,0,0.002,0,0.012,0c0.166-0.007,0.331-0.009,0.497,0.001c0.083,0.005,0.165,0.013,0.248,0.023
							c0.041,0.005,0.082,0.011,0.123,0.017c0.011,0.002,0.016,0.002,0.021,0.003c0.008,0.002,0.013,0.003,0.024,0.005
							c0.328,0.067,0.711-0.047,0.813-0.408C477.959,190.85,477.818,190.411,477.466,190.339z"/>
					</g>
				</g>
			</g>
			<g>
				<g>
					<g>
						<path style="fill:#25292B;" d="M486.459,190.243c0.176,0.332,0.574,0.363,0.88,0.228c0.01-0.004,0.015-0.006,0.022-0.01
							c0.004-0.001,0.009-0.003,0.02-0.007c0.039-0.014,0.078-0.029,0.117-0.043c0.078-0.027,0.157-0.052,0.237-0.074
							c0.16-0.045,0.322-0.078,0.486-0.105c0.009-0.002,0.006-0.001,0.011-0.002c0.002,0,0,0,0.002,0
							c0.041-0.004,0.082-0.009,0.124-0.012c0.083-0.007,0.166-0.011,0.249-0.013c0.166-0.004,0.332,0.001,0.497,0.016
							c0.045,0.004,0.09,0.009,0.135,0.014c0.011,0.002,0.025,0.004,0.039,0.007c0.082,0.015,0.163,0.03,0.244,0.048
							c0.162,0.037,0.321,0.083,0.478,0.138c0.039,0.014,0.078,0.028,0.117,0.043c0.008,0.003,0.017,0.007,0.025,0.01
							c0.074,0.033,0.148,0.068,0.22,0.105c0.148,0.076,0.29,0.162,0.427,0.254c0.298,0.2,0.702,0.041,0.878-0.236
							c0.195-0.307,0.043-0.691-0.236-0.878c-1.403-0.943-3.215-1.035-4.745-0.364C486.358,189.507,486.313,189.966,486.459,190.243
							z"/>
					</g>
				</g>
			</g>
			<g>
				<path style="fill:#25292B;" d="M489.018,218.495c-2.745,0-4.395-1.487-4.477-1.563c-0.203-0.187-0.215-0.501-0.029-0.705
					c0.187-0.202,0.502-0.217,0.706-0.031c0.084,0.077,2.111,1.877,5.418,1.108c3.378-0.788,5.715-4.709,5.738-4.749
					c0.14-0.239,0.448-0.317,0.684-0.178c0.238,0.14,0.318,0.446,0.178,0.685c-0.104,0.176-2.581,4.332-6.373,5.215
					C490.203,218.431,489.587,218.495,489.018,218.495z"/>
			</g>
			<g>
				<path style="fill:#25292B;" d="M479.028,205.094c-0.121,0-0.239-0.044-0.331-0.125c-0.124-0.11-0.186-0.273-0.165-0.438
					l1.378-10.843c0.034-0.274,0.291-0.467,0.56-0.433c0.273,0.035,0.468,0.285,0.433,0.559l-1.285,10.116l4.203-1.063
					c0.276-0.067,0.541,0.095,0.607,0.362c0.068,0.268-0.094,0.54-0.361,0.607l-4.915,1.243
					C479.11,205.089,479.069,205.094,479.028,205.094z"/>
			</g>
			<g>
				<path style="fill:#25292B;" d="M485.606,207.625c-0.218,0-0.419-0.144-0.481-0.363c-0.075-0.266,0.079-0.542,0.345-0.618
					c0.947-0.269,1.834-0.819,2.497-1.548c0.663-0.73,1.126-1.665,1.303-2.633c0.051-0.272,0.314-0.455,0.582-0.402
					c0.271,0.05,0.452,0.31,0.402,0.582c-0.214,1.167-0.749,2.247-1.547,3.126c-0.798,0.878-1.823,1.514-2.964,1.838
					C485.697,207.62,485.651,207.625,485.606,207.625z"/>
			</g>
			<g>
				<path style="fill:#25292B;" d="M508.683,200.056c-0.234,0-0.444-0.166-0.49-0.405c-0.052-0.271,0.126-0.534,0.396-0.586
					c1.131-0.217,2.068-1.284,2.181-2.48c0.109-1.161-0.55-2.409-1.603-3.033c-0.306-0.182-0.764-0.378-1.193-0.291
					c-0.324,0.066-0.602,0.353-0.594,0.613c0.008,0.266-0.193,0.492-0.459,0.514c-0.258,0.018-0.501-0.168-0.536-0.432
					c-0.105-0.781-0.203-1.614-0.158-2.465c0.053-0.969,0.29-1.811,0.708-2.502c0.476-0.791,1.186-1.324,1.946-1.462
					c0.713-0.129,1.479,0.085,2.055,0.574c0.524,0.443,0.884,1.111,0.985,1.832c0.038,0.273-0.151,0.526-0.425,0.565
					c-0.279,0.037-0.527-0.151-0.565-0.425c-0.067-0.481-0.302-0.921-0.642-1.208c-0.346-0.293-0.812-0.426-1.229-0.353
					c-0.479,0.087-0.94,0.449-1.269,0.995c-0.332,0.55-0.522,1.236-0.566,2.039c-0.017,0.313-0.011,0.629,0.009,0.944
					c0.165-0.095,0.347-0.167,0.539-0.206c0.589-0.12,1.249,0.021,1.905,0.411c1.396,0.828,2.234,2.43,2.088,3.987
					c-0.155,1.648-1.412,3.065-2.987,3.369C508.746,200.053,508.715,200.056,508.683,200.056z"/>
			</g>
		</g>
		<g>
			<g>
				<path style="fill:#F2E9DA;" d="M486.82,151.807l11.483-10.076l-18.154-15.714c-1.134-0.982-2.553-1.573-4.049-1.688l-11.5-0.882
					c-1.033-0.079-1.914,0.737-1.914,1.773l0,0l-1.229-0.057c-1.932-0.09-3.549,1.452-3.549,3.387v0.377v0.522
					c0,1.753,1.336,3.217,3.081,3.376l10.091,0.924l3.484,5.398l-5.646,7.537c-0.988,1.054-0.899,2.719,0.196,3.661l0,0
					c0.97,0.835,2.41,0.817,3.359-0.041l6.063-5.482C478.538,144.822,480.77,149.622,486.82,151.807z"/>
			</g>
			<g>
				<path style="fill:#25292B;" d="M475.297,126.702c-0.014,0-0.026,0-0.04-0.001l-12.609-0.982
					c-0.275-0.021-0.48-0.262-0.459-0.538c0.021-0.275,0.263-0.478,0.537-0.459l12.609,0.982c0.275,0.021,0.48,0.262,0.459,0.538
					C475.774,126.503,475.555,126.702,475.297,126.702z"/>
			</g>
			<g>
				<path style="fill:#25292B;" d="M473.716,131.078c-0.018,0-0.035-0.001-0.053-0.003l-15.806-1.652
					c-0.274-0.028-0.475-0.274-0.445-0.549c0.028-0.276,0.273-0.476,0.549-0.445l15.806,1.652c0.274,0.028,0.475,0.274,0.445,0.549
					C474.186,130.887,473.968,131.078,473.716,131.078z"/>
			</g>
		</g>
		<g>
			<g>
				<path style="fill:#F2E9DA;" d="M421.426,234.842l-12.353,6.82c0,0-7.76-6.031-8.63-7.605s-1.206-15.204-1.206-15.204h11.094
					v-7.642c0-1.727,1.4-3.126,3.126-3.126l0,0c1.727,0,3.126,1.4,3.126,3.126v10.187
					C416.584,221.398,420.843,226.116,421.426,234.842z"/>
			</g>
			<g>
				<path style="fill:#25292B;" d="M408.168,224.22c-0.068,0-0.137-0.014-0.203-0.043c-0.252-0.112-0.366-0.408-0.254-0.66
					l2.164-4.867c0.113-0.253,0.408-0.366,0.66-0.254c0.252,0.112,0.366,0.408,0.254,0.66l-2.164,4.867
					C408.542,224.109,408.359,224.22,408.168,224.22z"/>
			</g>
		</g>
	</g>
	<path style="fill:#25292B;" d="M630.74,456.85c0,0.26-0.34,0.47-0.75,0.47H15.84c-0.42,0-0.76-0.21-0.76-0.47s0.34-0.47,0.76-0.47
		h614.15C630.4,456.38,630.74,456.59,630.74,456.85z"/>
</g>
</svg>
